font.ufo
<glyph name="percent" format="1">
  <advance width="815"/>
  <unicode hex="0025"/>
  <outline>
    <contour>
      <point x="391" y="493" type="curve" smooth="yes"/>
      <point x="391" y="381"/>
      <point x="296" y="325"/>
      <point x="210" y="325" type="curve" smooth="yes"/>
      <point x="124" y="325"/>
      <point x="30" y="381"/>
      <point x="30" y="493" type="curve" smooth="yes"/>
      <point x="30" y="605"/>
      <point x="124" y="663"/>
      <point x="210" y="663" type="curve" smooth="yes"/>
      <point x="296" y="663"/>
      <point x="391" y="605"/>
    </contour>
    <contour>
      <point x="172" y="493" type="curve" smooth="yes"/>
      <point x="173" y="415"/>
      <point x="175" y="376"/>
      <point x="212" y="376" type="curve" smooth="yes"/>
      <point x="248" y="376"/>
      <point x="250" y="414"/>
      <point x="249" y="493" type="curve" smooth="yes"/>
      <point x="247" y="575"/>
      <point x="245" y="611"/>
      <point x="208" y="611" type="curve" smooth="yes"/>
      <point x="173" y="611"/>
      <point x="170" y="574"/>
    </contour>
    <contour>
      <point x="668" y="650" type="line"/>
      <point x="231" y="0" type="line"/>
      <point x="147" y="0" type="line"/>
      <point x="584" y="650" type="line"/>
    </contour>
    <contour>
      <point x="785" y="154" type="curve" smooth="yes"/>
      <point x="785" y="42"/>
      <point x="710" y="-14"/>
      <point x="604" y="-14" type="curve" smooth="yes"/>
      <point x="498" y="-14"/>
      <point x="424" y="42"/>
      <point x="424" y="154" type="curve" smooth="yes"/>
      <point x="424" y="265"/>
      <point x="498" y="324"/>
      <point x="604" y="324" type="curve" smooth="yes"/>
      <point x="710" y="324"/>
      <point x="785" y="265"/>
    </contour>
    <contour>
      <point x="566" y="154" type="curve" smooth="yes"/>
      <point x="567" y="76"/>
      <point x="569" y="37"/>
      <point x="606" y="37" type="curve" smooth="yes"/>
      <point x="642" y="37"/>
      <point x="644" y="75"/>
      <point x="643" y="154" type="curve" smooth="yes"/>
      <point x="641" y="236"/>
      <point x="639" y="272"/>
      <point x="602" y="272" type="curve" smooth="yes"/>
      <point x="567" y="272"/>
      <point x="564" y="235"/>
    </contour>
  </outline>
</glyph>
<glyph name="ampersand" format="1">
  <advance width="734"/>
  <unicode hex="0026"/>
  <outline>
    <contour>
      <point x="137" y="491" type="curve" smooth="yes"/>
      <point x="137" y="435"/>
      <point x="162" y="400"/>
      <point x="199" y="353" type="curve" smooth="yes"/>
      <point x="474" y="0" type="line"/>
      <point x="691" y="0" type="line"/>
      <point x="698" y="21"/>
      <point x="700" y="39"/>
      <point x="699" y="54" type="curve"/>
      <point x="643" y="58"/>
      <point x="609" y="78"/>
      <point x="571" y="127" type="curve" smooth="yes"/>
      <point x="342" y="423" type="line" smooth="yes"/>
      <point x="314" y="460"/>
      <point x="304" y="481"/>
      <point x="304" y="517" type="curve" smooth="yes"/>
      <point x="304" y="555"/>
      <point x="326" y="585"/>
      <point x="356" y="585" type="curve" smooth="yes"/>
      <point x="386" y="585"/>
      <point x="410" y="555"/>
      <point x="410" y="508" type="curve" smooth="yes"/>
      <point x="410" y="457"/>
      <point x="381" y="412"/>
      <point x="322" y="387" type="curve"/>
      <point x="344" y="349" type="line"/>
      <point x="492" y="395"/>
      <point x="568" y="435"/>
      <point x="568" y="519" type="curve" smooth="yes"/>
      <point x="568" y="593"/>
      <point x="506" y="663"/>
      <point x="358" y="663" type="curve" smooth="yes"/>
      <point x="218" y="663"/>
      <point x="137" y="582"/>
    </contour>
    <contour>
      <point x="33" y="146" type="curve" smooth="yes"/>
      <point x="33" y="49"/>
      <point x="110" y="-13"/>
      <point x="222" y="-13" type="curve" smooth="yes"/>
      <point x="333" y="-13"/>
      <point x="387" y="34"/>
      <point x="475" y="145" type="curve"/>
      <point x="427" y="176" type="line"/>
      <point x="376" y="121"/>
      <point x="342" y="100"/>
      <point x="296" y="100" type="curve" smooth="yes"/>
      <point x="235" y="100"/>
      <point x="198" y="136"/>
      <point x="198" y="194" type="curve" smooth="yes"/>
      <point x="198" y="249"/>
      <point x="232" y="289"/>
      <point x="292" y="306" type="curve"/>
      <point x="272" y="345" type="line"/>
      <point x="147" y="325"/>
      <point x="33" y="267"/>
    </contour>
    <contour>
      <point x="491" y="302" type="curve"/>
      <point x="518" y="301"/>
      <point x="540" y="297"/>
      <point x="567" y="287" type="curve"/>
      <point x="564" y="300" type="line"/>
      <point x="463" y="203" type="line"/>
      <point x="505" y="166" type="line"/>
      <point x="586" y="244" type="line" smooth="yes"/>
      <point x="628" y="284"/>
      <point x="657" y="297"/>
      <point x="698" y="302" type="curve"/>
      <point x="703" y="318"/>
      <point x="704" y="341"/>
      <point x="703" y="359" type="curve"/>
      <point x="495" y="359" type="line"/>
      <point x="492" y="342"/>
      <point x="490" y="318"/>
    </contour>
  </outline>
</glyph>
<glyph name="quotesingle" format="1">
  <advance width="189"/>
  <unicode hex="0027"/>
  <outline>
    <contour>
      <point x="35" y="790" type="line"/>
      <point x="67" y="540" type="line"/>
      <point x="123" y="540" type="line"/>
      <point x="154" y="790" type="line"/>
    </contour>
  </outline>
</glyph>
<glyph name="parenleft" format="1">
  <advance width="475"/>
  <unicode hex="0028"/>
  <outline>
    <contour>
      <point x="455" y="754" type="line"/>
      <point x="327" y="640"/>
      <point x="271" y="467"/>
      <point x="271" y="321" type="curve" smooth="yes"/>
      <point x="271" y="175"/>
      <point x="327" y="3"/>
      <point x="455" y="-110" type="curve"/>
      <point x="391" y="-157" type="line"/>
      <point x="199" y="-27"/>
      <point x="120" y="148"/>
      <point x="120" y="321" type="curve" smooth="yes"/>
      <point x="120" y="496"/>
      <point x="199" y="671"/>
      <point x="391" y="800" type="curve"/>
    </contour>
  </outline>
</glyph>
<glyph name="asterisk" format="1">
  <advance width="478"/>
  <unicode hex="002A"/>
  <outline>
    <contour>
      <point x="268" y="540" type="line"/>
      <point x="385" y="604" type="line"/>
      <point x="402" y="582"/>
      <point x="418" y="512"/>
      <point x="418" y="485" type="curve"/>
      <point x="283" y="478" type="line"/>
      <point x="382" y="390" type="line"/>
      <point x="367" y="366"/>
      <point x="310" y="326"/>
      <point x="282" y="320" type="curve"/>
      <point x="235" y="435" type="line"/>
      <point x="189" y="322" type="line"/>
      <point x="161" y="329"/>
      <point x="102" y="369"/>
      <point x="89" y="393" type="curve"/>
      <point x="184" y="478" type="line"/>
      <point x="52" y="485" type="line"/>
      <point x="52" y="515"/>
      <point x="67" y="584"/>
      <point x="84" y="604" type="curve"/>
      <point x="199" y="542" type="line"/>
      <point x="173" y="672" type="line"/>
      <point x="197" y="683"/>
      <point x="269" y="680"/>
      <point x="294" y="672" type="curve"/>
    </contour>
  </outline>
</glyph>
<glyph name="plus" format="1">
  <advance width="603"/>
  <unicode hex="002B"/>
  <outline>
    <contour>
      <point x="349" y="583" type="line"/>
      <point x="349" y="389" type="line"/>
      <point x="558" y="389" type="line"/>
      <point x="558" y="294" type="line"/>
      <point x="349" y="294" type="line"/>
      <point x="349" y="100" type="line"/>
      <point x="254" y="100" type="line"/>
      <point x="254" y="294" type="line"/>
      <point x="45" y="294" type="line"/>
      <point x="45" y="389" type="line"/>
      <point x="254" y="389" type="line"/>
      <point x="254" y="583" type="line"/>
    </contour>
  </outline>
</glyph>
<glyph name="hyphen" format="1">
  <advance width="492"/>
  <unicode hex="002D"/>
  <outline>
    <contour>
      <point x="437" y="260" type="line"/>
      <point x="437" y="355" type="line"/>
      <point x="55" y="355" type="line"/>
      <point x="55" y="260" type="line"/>
    </contour>
  </outline>
</glyph>
<glyph name="zero" format="1">
  <advance width="573"/>
  <unicode hex="0030"/>
  <outline>
    <contour>
      <point x="287" y="650" type="move" name="top"/>
    </contour>
    <contour>
      <point x="533" y="323" type="curve" smooth="yes"/>
      <point x="533" y="100"/>
      <point x="430" y="-13"/>
      <point x="285" y="-13" type="curve" smooth="yes"/>
      <point x="141" y="-13"/>
      <point x="40" y="100"/>
      <point x="40" y="323" type="curve" smooth="yes"/>
      <point x="40" y="546"/>
      <point x="141" y="664"/>
      <point x="285" y="664" type="curve" smooth="yes"/>
      <point x="430" y="664"/>
      <point x="533" y="546"/>
    </contour>
    <contour>
      <point x="210" y="323" type="curve" smooth="yes"/>
      <point x="212" y="147"/>
      <point x="215" y="58"/>
      <point x="289" y="58" type="curve" smooth="yes"/>
      <point x="361" y="58"/>
      <point x="365" y="144"/>
      <point x="363" y="324" type="curve" smooth="yes"/>
      <point x="360" y="511"/>
      <point x="356" y="592"/>
      <point x="281" y="592" type="curve" smooth="yes"/>
      <point x="211" y="592"/>
      <point x="206" y="508"/>
    </contour>
  </outline>
</glyph>
<glyph name="seven" format="1">
  <advance width="451"/>
  <unicode hex="0037"/>
  <outline>
    <contour>
      <point x="404" y="640" type="line"/>
      <point x="421" y="611"/>
      <point x="432" y="579"/>
      <point x="436" y="544" type="curve"/>
      <point x="224" y="0" type="line"/>
      <point x="176" y="-7"/>
      <point x="143" y="1"/>
      <point x="115" y="8" type="curve"/>
      <point x="282" y="413" type="line"/>
      <point x="342" y="533" type="line"/>
      <point x="361" y="519" type="line"/>
      <point x="164" y="519" type="line" smooth="yes"/>
      <point x="118" y="519"/>
      <point x="94" y="501"/>
      <point x="80" y="430" type="curve"/>
      <point x="68" y="430"/>
      <point x="54" y="432"/>
      <point x="42" y="439" type="curve"/>
      <point x="42" y="486"/>
      <point x="44" y="589"/>
      <point x="51" y="640" type="curve"/>
    </contour>
  </outline>
</glyph>
<glyph name="eight" format="1">
  <advance width="546"/>
  <unicode hex="0038"/>
  <outline>
    <contour>
      <point x="497" y="498" type="curve" smooth="yes"/>
      <point x="497" y="592"/>
      <point x="410" y="663"/>
      <point x="288" y="663" type="curve" smooth="yes"/>
      <point x="152" y="663"/>
      <point x="49" y="590"/>
      <point x="49" y="482" type="curve" smooth="yes"/>
      <point x="49" y="395"/>
      <point x="172" y="332"/>
      <point x="252" y="294" type="curve" smooth="yes"/>
      <point x="314" y="263"/>
      <point x="357" y="219"/>
      <point x="357" y="156" type="curve" smooth="yes"/>
      <point x="357" y="102"/>
      <point x="325" y="62"/>
      <point x="264" y="62" type="curve" smooth="yes"/>
      <point x="218" y="62"/>
      <point x="184" y="98"/>
      <point x="184" y="144" type="curve" smooth="yes"/>
      <point x="184" y="207"/>
      <point x="208" y="259"/>
      <point x="296" y="304" type="curve" smooth="yes"/>
      <point x="418" y="366"/>
      <point x="497" y="412"/>
    </contour>
    <contour>
      <point x="201" y="512" type="curve" smooth="yes"/>
      <point x="201" y="555"/>
      <point x="224" y="588"/>
      <point x="274" y="588" type="curve" smooth="yes"/>
      <point x="341" y="588"/>
      <point x="354" y="532"/>
      <point x="354" y="496" type="curve" smooth="yes"/>
      <point x="354" y="436"/>
      <point x="293" y="380"/>
      <point x="246" y="354" type="curve" smooth="yes"/>
      <point x="162" y="307"/>
      <point x="40" y="254"/>
      <point x="40" y="154" type="curve" smooth="yes"/>
      <point x="40" y="68"/>
      <point x="133" y="-13"/>
      <point x="270" y="-13" type="curve" smooth="yes"/>
      <point x="410" y="-13"/>
      <point x="506" y="77"/>
      <point x="506" y="167" type="curve" smooth="yes"/>
      <point x="506" y="275"/>
      <point x="404" y="335"/>
      <point x="321" y="379" type="curve" smooth="yes"/>
      <point x="264" y="407"/>
      <point x="201" y="446"/>
    </contour>
  </outline>
</glyph>
<glyph name="less" format="1">
  <advance width="463"/>
  <unicode hex="003C"/>
  <outline>
    <contour>
      <point x="30" y="290" type="line"/>
      <point x="413" y="80" type="line"/>
      <point x="413" y="189" type="line"/>
      <point x="137" y="336" type="line"/>
      <point x="413" y="483" type="line"/>
      <point x="413" y="592" type="line"/>
      <point x="30" y="382" type="line"/>
    </contour>
  </outline>
</glyph>
<glyph name="equal" format="1">
  <advance width="573"/>
  <unicode hex="003D"/>
  <outline>
    <contour>
      <point x="523" y="486" type="line"/>
      <point x="523" y="386" type="line"/>
      <point x="50" y="386" type="line"/>
      <point x="50" y="486" type="line"/>
    </contour>
    <contour>
      <point x="523" y="276" type="line"/>
      <point x="523" y="176" type="line"/>
      <point x="50" y="176" type="line"/>
      <point x="50" y="276" type="line"/>
    </contour>
  </outline>
</glyph>
<glyph name="greater" format="1">
  <advance width="463"/>
  <unicode hex="003E"/>
  <outline>
    <contour>
      <point x="50" y="592" type="line"/>
      <point x="50" y="483" type="line"/>
      <point x="326" y="336" type="line"/>
      <point x="50" y="189" type="line"/>
      <point x="50" y="80" type="line"/>
      <point x="433" y="290" type="line"/>
      <point x="433" y="382" type="line"/>
    </contour>
  </outline>
</glyph>
<glyph name="question" format="1">
  <advance width="508"/>
  <unicode hex="003F"/>
  <outline>
    <contour>
      <point x="40" y="606" type="curve"/>
      <point x="85" y="561" type="line"/>
      <point x="123" y="591"/>
      <point x="155" y="608"/>
      <point x="200" y="608" type="curve" smooth="yes"/>
      <point x="249" y="608"/>
      <point x="291" y="571"/>
      <point x="291" y="516" type="curve" smooth="yes"/>
      <point x="291" y="466"/>
      <point x="275" y="442"/>
      <point x="236" y="407" type="curve" smooth="yes"/>
      <point x="194" y="369" type="line" smooth="yes"/>
      <point x="148" y="328"/>
      <point x="142" y="298"/>
      <point x="157" y="230" type="curve" smooth="yes"/>
      <point x="170" y="166" type="line"/>
      <point x="247" y="166" type="line"/>
      <point x="247" y="243" type="line" smooth="yes"/>
      <point x="247" y="282"/>
      <point x="254" y="299"/>
      <point x="284" y="318" type="curve" smooth="yes"/>
      <point x="348" y="358" type="line" smooth="yes"/>
      <point x="422" y="405"/>
      <point x="456" y="458"/>
      <point x="456" y="530" type="curve" smooth="yes"/>
      <point x="456" y="627"/>
      <point x="390" y="721"/>
      <point x="255" y="721" type="curve" smooth="yes"/>
      <point x="163" y="721"/>
      <point x="97" y="678"/>
    </contour>
    <contour>
      <point x="140" y="56" type="curve" smooth="yes"/>
      <point x="140" y="14"/>
      <point x="175" y="-20"/>
      <point x="215" y="-20" type="curve" smooth="yes"/>
      <point x="257" y="-20"/>
      <point x="291" y="14"/>
      <point x="291" y="56" type="curve" smooth="yes"/>
      <point x="291" y="96"/>
      <point x="257" y="131"/>
      <point x="215" y="131" type="curve" smooth="yes"/>
      <point x="175" y="131"/>
      <point x="140" y="96"/>
    </contour>
  </outline>
</glyph>
<glyph name="D" format="1">
  <advance width="712"/>
  <unicode hex="0044"/>
  <outline>
    <contour>
      <point x="355" y="650" type="move" name="top"/>
    </contour>
    <contour>
      <point x="335" y="650" type="line"/>
      <point x="525" y="650"/>
      <point x="677" y="538"/>
      <point x="677" y="325" type="curve" smooth="yes"/>
      <point x="677" y="112"/>
      <point x="532" y="0"/>
      <point x="351" y="0" type="curve" smooth="yes"/>
      <point x="43" y="0" type="line"/>
      <point x="42" y="18"/>
      <point x="43" y="40"/>
      <point x="48" y="57" type="curve"/>
      <point x="83" y="63"/>
      <point x="111" y="73"/>
      <point x="111" y="117" type="curve" smooth="yes"/>
      <point x="111" y="592" type="line"/>
      <point x="115" y="581" type="line"/>
      <point x="97" y="591"/>
      <point x="60" y="594"/>
      <point x="41" y="594" type="curve"/>
      <point x="40" y="610"/>
      <point x="42" y="634"/>
      <point x="45" y="650" type="curve"/>
    </contour>
    <contour>
      <point x="271" y="588" type="line"/>
      <point x="271" y="63" type="line"/>
      <point x="322" y="63" type="line" smooth="yes"/>
      <point x="444" y="63"/>
      <point x="506" y="155"/>
      <point x="506" y="325" type="curve" smooth="yes"/>
      <point x="506" y="496"/>
      <point x="444" y="588"/>
      <point x="314" y="588" type="curve" smooth="yes"/>
    </contour>
  </outline>
</glyph>
<glyph name="E" format="1">
  <advance width="598"/>
  <unicode hex="0045"/>
  <outline>
    <contour>
      <point x="329" y="650" type="move" name="top"/>
    </contour>
    <contour>
      <point x="563" y="0" type="move" name="ogonek"/>
    </contour>
    <contour>
      <point x="301" y="0" type="move" name="bottom"/>
    </contour>
    <contour>
      <point x="446" y="283" type="line"/>
      <point x="403" y="283" type="line"/>
      <point x="250" y="294" type="line"/>
      <point x="250" y="355" type="line"/>
      <point x="403" y="371" type="line"/>
      <point x="446" y="371" type="line"/>
    </contour>
    <contour>
      <point x="550" y="464" type="curve"/>
      <point x="538" y="463"/>
      <point x="501" y="462"/>
      <point x="483" y="462" type="curve"/>
      <point x="476" y="533"/>
      <point x="477" y="588"/>
      <point x="404" y="588" type="curve" smooth="yes"/>
      <point x="224" y="588" type="line"/>
      <point x="271" y="635" type="line"/>
      <point x="271" y="16" type="line"/>
      <point x="225" y="63" type="line"/>
      <point x="406" y="63" type="line" smooth="yes"/>
      <point x="478" y="63"/>
      <point x="481" y="121"/>
      <point x="489" y="198" type="curve"/>
      <point x="507" y="199"/>
      <point x="547" y="197"/>
      <point x="559" y="194" type="curve"/>
      <point x="564" y="127"/>
      <point x="565" y="66"/>
      <point x="563" y="0" type="curve"/>
      <point x="42" y="0" type="line"/>
      <point x="41" y="18"/>
      <point x="42" y="40"/>
      <point x="48" y="57" type="curve"/>
      <point x="83" y="63"/>
      <point x="111" y="73"/>
      <point x="111" y="117" type="curve" smooth="yes"/>
      <point x="111" y="592" type="line"/>
      <point x="114" y="581" type="line"/>
      <point x="97" y="591"/>
      <point x="60" y="594"/>
      <point x="40" y="594" type="curve"/>
      <point x="39" y="610"/>
      <point x="41" y="634"/>
      <point x="45" y="650" type="curve"/>
      <point x="556" y="650" type="line"/>
      <point x="557" y="589"/>
      <point x="556" y="526"/>
    </contour>
  </outline>
</glyph>
<glyph name="I" format="1">
  <advance width="382"/>
  <unicode hex="0049"/>
  <outline>
    <contour>
      <point x="191" y="650" type="move" name="top"/>
    </contour>
    <contour>
      <point x="337" y="0" type="move" name="ogonek"/>
    </contour>
    <contour>
      <point x="271" y="43" type="line"/>
      <point x="268" y="69" type="line"/>
      <point x="285" y="59"/>
      <point x="322" y="57"/>
      <point x="341" y="57" type="curve"/>
      <point x="342" y="40"/>
      <point x="340" y="17"/>
      <point x="337" y="0" type="curve"/>
      <point x="42" y="0" type="line"/>
      <point x="41" y="18"/>
      <point x="42" y="40"/>
      <point x="48" y="57" type="curve"/>
      <point x="83" y="63"/>
      <point x="111" y="73"/>
      <point x="111" y="117" type="curve" smooth="yes"/>
      <point x="111" y="592" type="line"/>
      <point x="113" y="582" type="line"/>
      <point x="96" y="591"/>
      <point x="60" y="594"/>
      <point x="40" y="594" type="curve"/>
      <point x="39" y="610"/>
      <point x="41" y="634"/>
      <point x="45" y="650" type="curve"/>
      <point x="339" y="650" type="line"/>
      <point x="340" y="633"/>
      <point x="339" y="610"/>
      <point x="334" y="594" type="curve"/>
      <point x="299" y="588"/>
      <point x="271" y="578"/>
      <point x="271" y="534" type="curve" smooth="yes"/>
    </contour>
  </outline>
</glyph>
<glyph name="K" format="1">
  <advance width="746"/>
  <unicode hex="004B"/>
  <outline>
    <contour>
      <point x="396" y="650" type="move" name="top"/>
    </contour>
    <contour>
      <point x="396" y="0" type="move" name="bottom"/>
    </contour>
    <contour>
      <point x="334" y="594" type="curve"/>
      <point x="299" y="588"/>
      <point x="271" y="578"/>
      <point x="271" y="534" type="curve" smooth="yes"/>
      <point x="271" y="43" type="line"/>
      <point x="268" y="69" type="line"/>
      <point x="285" y="59"/>
      <point x="322" y="57"/>
      <point x="341" y="57" type="curve"/>
      <point x="342" y="40"/>
      <point x="340" y="17"/>
      <point x="337" y="0" type="curve"/>
      <point x="42" y="0" type="line"/>
      <point x="41" y="18"/>
      <point x="42" y="40"/>
      <point x="48" y="57" type="curve"/>
      <point x="83" y="63"/>
      <point x="111" y="73"/>
      <point x="111" y="117" type="curve" smooth="yes"/>
      <point x="111" y="592" type="line"/>
      <point x="113" y="582" type="line"/>
      <point x="96" y="591"/>
      <point x="60" y="594"/>
      <point x="40" y="594" type="curve"/>
      <point x="39" y="610"/>
      <point x="41" y="634"/>
      <point x="45" y="650" type="curve"/>
      <point x="339" y="650" type="line"/>
      <point x="340" y="633"/>
      <point x="339" y="610"/>
    </contour>
    <contour>
      <point x="702" y="595" type="curve"/>
      <point x="659" y="595"/>
      <point x="627" y="583"/>
      <point x="587" y="546" type="curve" smooth="yes"/>
      <point x="215" y="196" type="line"/>
      <point x="148" y="220" type="line"/>
      <point x="531" y="588" type="line"/>
      <point x="539" y="575" type="line"/>
      <point x="514" y="594"/>
      <point x="487" y="595"/>
      <point x="458" y="595" type="curve"/>
      <point x="454" y="610"/>
      <point x="456" y="635"/>
      <point x="462" y="650" type="curve"/>
      <point x="705" y="650" type="line"/>
      <point x="705" y="631"/>
      <point x="705" y="612"/>
    </contour>
    <contour>
      <point x="707" y="57" type="curve"/>
      <point x="709" y="40"/>
      <point x="707" y="20"/>
      <point x="702" y="0" type="curve"/>
      <point x="490" y="0" type="line"/>
      <point x="326" y="255" type="line" smooth="yes"/>
      <point x="315" y="272"/>
      <point x="308" y="279"/>
      <point x="285" y="279" type="curve"/>
      <point x="370" y="392" type="line"/>
      <point x="425" y="392"/>
      <point x="454" y="364"/>
      <point x="481" y="321" type="curve" smooth="yes"/>
      <point x="611" y="119" type="line" smooth="yes"/>
      <point x="643" y="68"/>
      <point x="662" y="59"/>
    </contour>
  </outline>
</glyph>
<glyph name="V" format="1">
  <advance width="680"/>
  <unicode hex="0056"/>
  <outline>
    <contour>
      <point x="313" y="595" type="curve"/>
      <point x="247" y="589"/>
      <point x="228" y="568"/>
      <point x="247" y="524" type="curve" smooth="yes"/>
      <point x="369" y="244" type="line" smooth="yes"/>
      <point x="379" y="220"/>
      <point x="384" y="201"/>
      <point x="389" y="178" type="curve"/>
      <point x="393" y="178" type="line"/>
      <point x="573" y="623" type="line"/>
      <point x="562" y="578" type="line"/>
      <point x="533" y="588"/>
      <point x="513" y="594"/>
      <point x="479" y="595" type="curve"/>
      <point x="479" y="615"/>
      <point x="478" y="632"/>
      <point x="482" y="650" type="curve"/>
      <point x="685" y="650" type="line"/>
      <point x="683" y="630"/>
      <point x="680" y="614"/>
      <point x="675" y="595" type="curve"/>
      <point x="642" y="588"/>
      <point x="623" y="571"/>
      <point x="608" y="536" type="curve" smooth="yes"/>
      <point x="374" y="-6" type="line"/>
      <point x="311" y="-6" type="line"/>
      <point x="39" y="623" type="line"/>
      <point x="76" y="576" type="line"/>
      <point x="47" y="590"/>
      <point x="32" y="593"/>
      <point x="1" y="595" type="curve"/>
      <point x="-4" y="616"/>
      <point x="-6" y="629"/>
      <point x="-4" y="650" type="curve"/>
      <point x="310" y="650" type="line"/>
      <point x="314" y="634"/>
      <point x="314" y="614"/>
    </contour>
  </outline>
</glyph>
<glyph name="W" format="1">
  <advance width="988"/>
  <unicode hex="0057"/>
  <outline>
    <contour>
      <point x="332" y="595" type="curve"/>
      <point x="264" y="589"/>
      <point x="247" y="568"/>
      <point x="262" y="524" type="curve" smooth="yes"/>
      <point x="347" y="274" type="line" smooth="yes"/>
      <point x="354" y="254"/>
      <point x="357" y="235"/>
      <point x="359" y="215" type="curve"/>
      <point x="362" y="215" type="line"/>
      <point x="540" y="620" type="line"/>
      <point x="603" y="620" type="line"/>
      <point x="726" y="282" type="line" smooth="yes"/>
      <point x="734" y="260"/>
      <point x="740" y="240"/>
      <point x="741" y="215" type="curve"/>
      <point x="744" y="215" type="line"/>
      <point x="876" y="625" type="line"/>
      <point x="887" y="575" type="line"/>
      <point x="855" y="586"/>
      <point x="832" y="593"/>
      <point x="804" y="595" type="curve"/>
      <point x="805" y="615"/>
      <point x="807" y="632"/>
      <point x="811" y="650" type="curve"/>
      <point x="983" y="650" type="line"/>
      <point x="984" y="631"/>
      <point x="983" y="615"/>
      <point x="980" y="595" type="curve"/>
      <point x="948" y="588"/>
      <point x="929" y="574"/>
      <point x="916" y="536" type="curve" smooth="yes"/>
      <point x="727" y="-6" type="line"/>
      <point x="664" y="-6" type="line"/>
      <point x="499" y="418" type="line"/>
      <point x="523" y="431" type="line"/>
      <point x="328" y="-6" type="line"/>
      <point x="265" y="-6" type="line"/>
      <point x="49" y="628" type="line"/>
      <point x="94" y="574" type="line"/>
      <point x="58" y="590"/>
      <point x="36" y="594"/>
      <point x="9" y="595" type="curve"/>
      <point x="5" y="616"/>
      <point x="3" y="629"/>
      <point x="6" y="650" type="curve"/>
      <point x="325" y="650" type="line"/>
      <point x="330" y="629"/>
      <point x="332" y="614"/>
    </contour>
  </outline>
</glyph>
<glyph name="Y" format="1">
  <advance width="675"/>
  <unicode hex="0059"/>
  <outline>
    <contour>
      <point x="374" y="650" type="move" name="top"/>
    </contour>
    <contour>
      <point x="333" y="595" type="curve"/>
      <point x="266" y="589"/>
      <point x="256" y="562"/>
      <point x="277" y="524" type="curve" smooth="yes"/>
      <point x="380" y="335" type="line"/>
      <point x="384" y="335" type="line"/>
      <point x="392" y="364"/>
      <point x="407" y="395"/>
      <point x="423" y="422" type="curve" smooth="yes"/>
      <point x="541" y="626" type="line"/>
      <point x="551" y="577" type="line"/>
      <point x="514" y="588"/>
      <point x="503" y="594"/>
      <point x="466" y="595" type="curve"/>
      <point x="467" y="615"/>
      <point x="469" y="632"/>
      <point x="473" y="650" type="curve"/>
      <point x="669" y="650" type="line"/>
      <point x="668" y="631"/>
      <point x="666" y="615"/>
      <point x="661" y="595" type="curve"/>
      <point x="612" y="588"/>
      <point x="600" y="568"/>
      <point x="580" y="536" type="curve" smooth="yes"/>
      <point x="426" y="279" type="line"/>
      <point x="426" y="64" type="line"/>
      <point x="449" y="57"/>
      <point x="478" y="57"/>
      <point x="504" y="57" type="curve"/>
      <point x="504" y="39"/>
      <point x="503" y="19"/>
      <point x="500" y="0" type="curve"/>
      <point x="177" y="0" type="line"/>
      <point x="176" y="20"/>
      <point x="177" y="38"/>
      <point x="180" y="57" type="curve"/>
      <point x="212" y="63"/>
      <point x="250" y="70"/>
      <point x="250" y="117" type="curve" smooth="yes"/>
      <point x="250" y="279" type="line"/>
      <point x="42" y="626" type="line"/>
      <point x="99" y="574" type="line"/>
      <point x="63" y="591"/>
      <point x="40" y="596"/>
      <point x="10" y="595" type="curve"/>
      <point x="7" y="615"/>
      <point x="5" y="632"/>
      <point x="5" y="650" type="curve"/>
      <point x="326" y="650" type="line"/>
      <point x="330" y="631"/>
      <point x="333" y="615"/>
    </contour>
  </outline>
</glyph>
<glyph name="bracketleft" format="1">
  <advance width="414"/>
  <unicode hex="005B"/>
  <outline>
    <contour>
      <point x="255" y="713" type="line"/>
      <point x="384" y="713" type="line"/>
      <point x="384" y="789" type="line"/>
      <point x="100" y="789" type="line"/>
      <point x="100" y="-140" type="line"/>
      <point x="384" y="-140" type="line"/>
      <point x="384" y="-64" type="line"/>
      <point x="255" y="-64" type="line"/>
    </contour>
  </outline>
</glyph>
<glyph name="h" format="1">
  <advance width="650"/>
  <unicode hex="0068"/>
  <outline>
    <contour>
      <point x="558" y="316" type="curve" smooth="yes"/>
      <point x="558" y="41" type="line"/>
      <point x="554" y="69" type="line"/>
      <point x="587" y="60"/>
      <point x="602" y="57"/>
      <point x="625" y="57" type="curve"/>
      <point x="626" y="40"/>
      <point x="624" y="17"/>
      <point x="620" y="0" type="curve"/>
      <point x="349" y="0" type="line"/>
      <point x="347" y="18"/>
      <point x="349" y="40"/>
      <point x="353" y="57" type="curve"/>
      <point x="384" y="63"/>
      <point x="403" y="73"/>
      <point x="403" y="116" type="curve" smooth="yes"/>
      <point x="403" y="296" type="line" smooth="yes"/>
      <point x="403" y="350"/>
      <point x="375" y="374"/>
      <point x="338" y="374" type="curve" smooth="yes"/>
      <point x="303" y="374"/>
      <point x="270" y="345"/>
      <point x="248" y="284" type="curve"/>
      <point x="228" y="336" type="line"/>
      <point x="258" y="434"/>
      <point x="326" y="474"/>
      <point x="403" y="474" type="curve" smooth="yes"/>
      <point x="494" y="474"/>
      <point x="558" y="417"/>
    </contour>
    <contour>
      <point x="248" y="42" type="line"/>
      <point x="244" y="69" type="line"/>
      <point x="262" y="60"/>
      <point x="285" y="57"/>
      <point x="304" y="57" type="curve"/>
      <point x="305" y="40"/>
      <point x="303" y="17"/>
      <point x="300" y="0" type="curve"/>
      <point x="25" y="0" type="line"/>
      <point x="24" y="18"/>
      <point x="25" y="40"/>
      <point x="30" y="57" type="curve"/>
      <point x="65" y="63"/>
      <point x="93" y="73"/>
      <point x="93" y="116" type="curve" smooth="yes"/>
      <point x="93" y="643" type="line"/>
      <point x="95" y="625" type="line"/>
      <point x="77" y="628"/>
      <point x="51" y="627"/>
      <point x="26" y="626" type="curve"/>
      <point x="27" y="642"/>
      <point x="30" y="667"/>
      <point x="35" y="682" type="curve"/>
      <point x="100" y="705"/>
      <point x="160" y="717"/>
      <point x="248" y="720" type="curve"/>
    </contour>
  </outline>
</glyph>
<glyph name="s" format="1">
  <advance width="421"/>
  <unicode hex="0073"/>
  <outline>
    <contour>
      <point x="236" y="461" type="move" name="top"/>
    </contour>
    <contour>
      <point x="213" y="0" type="move" name="bottom"/>
    </contour>
    <contour>
      <point x="248" y="107" type="curve" smooth="yes"/>
      <point x="248" y="187"/>
      <point x="49" y="194"/>
      <point x="49" y="331" type="curve" smooth="yes"/>
      <point x="49" y="428"/>
      <point x="123" y="474"/>
      <point x="241" y="474" type="curve" smooth="yes"/>
      <point x="289" y="474"/>
      <point x="324" y="466"/>
      <point x="364" y="453" type="curve"/>
      <point x="366" y="394"/>
      <point x="362" y="351"/>
      <point x="358" y="321" type="curve"/>
      <point x="344" y="321"/>
      <point x="323" y="323"/>
      <point x="309" y="326" type="curve"/>
      <point x="320" y="398"/>
      <point x="283" y="411"/>
      <point x="246" y="411" type="curve" smooth="yes"/>
      <point x="217" y="411"/>
      <point x="192" y="395"/>
      <point x="192" y="362" type="curve" smooth="yes"/>
      <point x="192" y="284"/>
      <point x="399" y="291"/>
      <point x="399" y="140" type="curve" smooth="yes"/>
      <point x="399" y="55"/>
      <point x="319" y="-13"/>
      <point x="181" y="-13" type="curve" smooth="yes"/>
      <point x="144" y="-13"/>
      <point x="84" y="-7"/>
      <point x="40" y="6" type="curve"/>
      <point x="37" y="50"/>
      <point x="39" y="101"/>
      <point x="44" y="148" type="curve"/>
      <point x="57" y="148"/>
      <point x="80" y="146"/>
      <point x="96" y="144" type="curve"/>
      <point x="93" y="57"/>
      <point x="152" y="57"/>
      <point x="184" y="57" type="curve" smooth="yes"/>
      <point x="221" y="57"/>
      <point x="248" y="80"/>
    </contour>
  </outline>
</glyph>
<glyph name="t" format="1">
  <advance width="385"/>
  <unicode hex="0074"/>
  <outline>
    <contour>
      <point x="284" y="650" type="move" name="commaaccent"/>
    </contour>
    <contour>
      <point x="197" y="0" type="move" name="bottom"/>
    </contour>
    <contour>
      <point x="236" y="607" type="line"/>
      <point x="236" y="140" type="line"/>
      <point x="236" y="101"/>
      <point x="251" y="90"/>
      <point x="275" y="90" type="curve" smooth="yes"/>
      <point x="296" y="90"/>
      <point x="316" y="96"/>
      <point x="342" y="114" type="curve"/>
      <point x="368" y="80" type="line"/>
      <point x="332" y="28"/>
      <point x="282" y="-11"/>
      <point x="218" y="-11" type="curve" smooth="yes"/>
      <point x="139" y="-11"/>
      <point x="81" y="36"/>
      <point x="81" y="137" type="curve" smooth="yes"/>
      <point x="81" y="421" type="line"/>
      <point x="101" y="378" type="line"/>
      <point x="76" y="386"/>
      <point x="45" y="387"/>
      <point x="19" y="387" type="curve"/>
      <point x="18" y="401"/>
      <point x="19" y="425"/>
      <point x="21" y="437" type="curve"/>
      <point x="40" y="446"/>
      <point x="61" y="452"/>
      <point x="80" y="456" type="curve"/>
      <point x="204" y="616" type="line"/>
    </contour>
    <contour>
      <point x="201" y="459" type="line"/>
      <point x="242" y="459"/>
      <point x="290" y="461"/>
      <point x="354" y="470" type="curve"/>
      <point x="354" y="439"/>
      <point x="351" y="411"/>
      <point x="344" y="389" type="curve"/>
      <point x="201" y="389" type="line"/>
    </contour>
  </outline>
</glyph>
<glyph name="v" format="1">
  <advance width="542"/>
  <unicode hex="0076"/>
  <outline>
    <contour>
      <point x="270" y="406" type="curve"/>
      <point x="251" y="406"/>
      <point x="222" y="406"/>
      <point x="202" y="397" type="curve"/>
      <point x="205" y="432" type="line"/>
      <point x="322" y="38" type="line"/>
      <point x="307" y="41" type="line"/>
      <point x="307" y="82"/>
      <point x="321" y="130"/>
      <point x="337" y="175" type="curve" smooth="yes"/>
      <point x="393" y="341" type="line" smooth="yes"/>
      <point x="408" y="385"/>
      <point x="398" y="399"/>
      <point x="357" y="406" type="curve"/>
      <point x="352" y="423"/>
      <point x="350" y="445"/>
      <point x="352" y="461" type="curve"/>
      <point x="568" y="461" type="line"/>
      <point x="569" y="441"/>
      <point x="564" y="422"/>
      <point x="556" y="406" type="curve"/>
      <point x="530" y="406"/>
      <point x="507" y="402"/>
      <point x="484" y="387" type="curve"/>
      <point x="503" y="408" type="line"/>
      <point x="336" y="-6" type="line"/>
      <point x="203" y="-6" type="line"/>
      <point x="64" y="346" type="line" smooth="yes"/>
      <point x="52" y="382"/>
      <point x="38" y="397"/>
      <point x="-5" y="406" type="curve"/>
      <point x="-9" y="423"/>
      <point x="-11" y="445"/>
      <point x="-9" y="461" type="curve"/>
      <point x="266" y="461" type="line"/>
      <point x="270" y="446"/>
      <point x="270" y="423"/>
    </contour>
  </outline>
</glyph>
<glyph name="x" format="1">
  <advance width="528"/>
  <unicode hex="0078"/>
  <outline>
    <contour>
      <point x="272" y="406" type="curve"/>
      <point x="252" y="406"/>
      <point x="223" y="406"/>
      <point x="202" y="397" type="curve"/>
      <point x="193" y="433" type="line"/>
      <point x="450" y="116" type="line" smooth="yes"/>
      <point x="481" y="78"/>
      <point x="491" y="59"/>
      <point x="538" y="57" type="curve"/>
      <point x="542" y="39"/>
      <point x="544" y="18"/>
      <point x="542" y="0" type="curve"/>
      <point x="259" y="0" type="line"/>
      <point x="255" y="17"/>
      <point x="255" y="39"/>
      <point x="255" y="57" type="curve"/>
      <point x="274" y="57"/>
      <point x="304" y="56"/>
      <point x="324" y="65" type="curve"/>
      <point x="333" y="31" type="line"/>
      <point x="66" y="360" type="line" smooth="yes"/>
      <point x="48" y="383"/>
      <point x="31" y="406"/>
      <point x="-11" y="406" type="curve"/>
      <point x="-16" y="423"/>
      <point x="-17" y="445"/>
      <point x="-16" y="461" type="curve"/>
      <point x="268" y="461" type="line"/>
      <point x="272" y="446"/>
      <point x="272" y="423"/>
    </contour>
    <contour>
      <point x="528" y="406" type="curve"/>
      <point x="499" y="406"/>
      <point x="475" y="392"/>
      <point x="448" y="361" type="curve" smooth="yes"/>
      <point x="343" y="242" type="line"/>
      <point x="301" y="288" type="line"/>
      <point x="415" y="422" type="line"/>
      <point x="411" y="397" type="line"/>
      <point x="390" y="402"/>
      <point x="369" y="405"/>
      <point x="350" y="406" type="curve"/>
      <point x="346" y="423"/>
      <point x="344" y="445"/>
      <point x="346" y="461" type="curve"/>
      <point x="538" y="461" type="line"/>
      <point x="539" y="441"/>
      <point x="536" y="422"/>
    </contour>
    <contour>
      <point x="227" y="183" type="line"/>
      <point x="107" y="41" type="line"/>
      <point x="111" y="65" type="line"/>
      <point x="133" y="60"/>
      <point x="154" y="58"/>
      <point x="173" y="57" type="curve"/>
      <point x="177" y="39"/>
      <point x="178" y="18"/>
      <point x="177" y="0" type="curve"/>
      <point x="-16" y="0" type="line"/>
      <point x="-15" y="21"/>
      <point x="-12" y="40"/>
      <point x="-5" y="57" type="curve"/>
      <point x="24" y="57"/>
      <point x="48" y="70"/>
      <point x="76" y="101" type="curve" smooth="yes"/>
      <point x="188" y="233" type="line"/>
    </contour>
  </outline>
</glyph>
<glyph name="bar" format="1">
  <advance width="303"/>
  <unicode hex="007C"/>
  <outline>
    <contour>
      <point x="85" y="763" type="line"/>
      <point x="85" y="-107" type="line"/>
      <point x="208" y="-107" type="line"/>
      <point x="208" y="763" type="line"/>
    </contour>
  </outline>
</glyph>
<glyph name="braceright" format="1">
  <advance width="483"/>
  <unicode hex="007D"/>
  <outline>
    <contour>
      <point x="303" y="467" type="curve" smooth="yes"/>
      <point x="303" y="531"/>
      <point x="330" y="577"/>
      <point x="330" y="639" type="curve" smooth="yes"/>
      <point x="330" y="727"/>
      <point x="251" y="815"/>
      <point x="40" y="802" type="curve"/>
      <point x="40" y="752" type="line"/>
      <point x="124" y="745"/>
      <point x="179" y="709"/>
      <point x="179" y="639" type="curve" smooth="yes"/>
      <point x="179" y="581"/>
      <point x="153" y="528"/>
      <point x="153" y="464" type="curve" smooth="yes"/>
      <point x="153" y="385"/>
      <point x="185" y="345"/>
      <point x="277" y="325" type="curve"/>
      <point x="185" y="305"/>
      <point x="153" y="265"/>
      <point x="153" y="186" type="curve" smooth="yes"/>
      <point x="153" y="122"/>
      <point x="179" y="69"/>
      <point x="179" y="11" type="curve" smooth="yes"/>
      <point x="179" y="-59"/>
      <point x="124" y="-95"/>
      <point x="40" y="-102" type="curve"/>
      <point x="40" y="-152" type="line"/>
      <point x="251" y="-165"/>
      <point x="330" y="-77"/>
      <point x="330" y="11" type="curve" smooth="yes"/>
      <point x="330" y="73"/>
      <point x="303" y="119"/>
      <point x="303" y="183" type="curve" smooth="yes"/>
      <point x="303" y="242"/>
      <point x="332" y="278"/>
      <point x="403" y="285" type="curve"/>
      <point x="403" y="365" type="line"/>
      <point x="332" y="372"/>
      <point x="303" y="408"/>
    </contour>
  </outline>
</glyph>
<glyph name="sterling" format="1">
  <advance width="571"/>
  <unicode hex="00A3"/>
  <outline>
    <contour>
      <point x="500" y="606" type="curve"/>
      <point x="504" y="564"/>
      <point x="500" y="509"/>
      <point x="494" y="466" type="curve"/>
      <point x="444" y="466" type="line"/>
      <point x="436" y="516"/>
      <point x="404" y="551"/>
      <point x="349" y="551" type="curve" smooth="yes"/>
      <point x="294" y="551"/>
      <point x="258" y="508"/>
      <point x="258" y="432" type="curve" smooth="yes"/>
      <point x="258" y="387"/>
      <point x="280" y="320"/>
      <point x="280" y="271" type="curve" smooth="yes"/>
      <point x="280" y="208"/>
      <point x="248" y="143"/>
      <point x="208" y="104" type="curve"/>
      <point x="247" y="123"/>
      <point x="283" y="131"/>
      <point x="321" y="131" type="curve" smooth="yes"/>
      <point x="367" y="131"/>
      <point x="409" y="106"/>
      <point x="444" y="106" type="curve" smooth="yes"/>
      <point x="478" y="106"/>
      <point x="504" y="132"/>
      <point x="504" y="181" type="curve"/>
      <point x="516" y="183"/>
      <point x="533" y="180"/>
      <point x="542" y="174" type="curve"/>
      <point x="542" y="174"/>
      <point x="546" y="154"/>
      <point x="546" y="127" type="curve" smooth="yes"/>
      <point x="546" y="41"/>
      <point x="508" y="-14"/>
      <point x="409" y="-14" type="curve" smooth="yes"/>
      <point x="315" y="-14"/>
      <point x="286" y="9"/>
      <point x="220" y="9" type="curve" smooth="yes"/>
      <point x="193" y="9"/>
      <point x="124" y="5"/>
      <point x="75" y="-9" type="curve"/>
      <point x="65" y="-1"/>
      <point x="57" y="10"/>
      <point x="53" y="24" type="curve"/>
      <point x="117" y="76"/>
      <point x="145" y="127"/>
      <point x="145" y="207" type="curve" smooth="yes"/>
      <point x="145" y="284"/>
      <point x="110" y="346"/>
      <point x="110" y="432" type="curve" smooth="yes"/>
      <point x="110" y="565"/>
      <point x="218" y="663"/>
      <point x="352" y="663" type="curve" smooth="yes"/>
      <point x="415" y="663"/>
      <point x="469" y="638"/>
    </contour>
    <contour>
      <point x="462" y="361" type="line"/>
      <point x="441" y="303" type="line"/>
      <point x="50" y="303" type="line"/>
      <point x="71" y="361" type="line"/>
    </contour>
  </outline>
</glyph>
<glyph name="currency" format="1">
  <advance width="537"/>
  <unicode hex="00A4"/>
  <outline>
    <contour>
      <point x="268" y="178" type="curve" smooth="yes"/>
      <point x="364" y="178"/>
      <point x="448" y="245"/>
      <point x="448" y="345" type="curve" smooth="yes"/>
      <point x="448" y="445"/>
      <point x="364" y="513"/>
      <point x="268" y="513" type="curve" smooth="yes"/>
      <point x="172" y="513"/>
      <point x="89" y="445"/>
      <point x="89" y="345" type="curve" smooth="yes"/>
      <point x="89" y="245"/>
      <point x="172" y="178"/>
    </contour>
    <contour>
      <point x="268" y="452" type="curve" smooth="yes"/>
      <point x="298" y="452"/>
      <point x="319" y="422"/>
      <point x="319" y="346" type="curve" smooth="yes"/>
      <point x="319" y="270"/>
      <point x="298" y="239"/>
      <point x="268" y="239" type="curve" smooth="yes"/>
      <point x="238" y="239"/>
      <point x="217" y="270"/>
      <point x="217" y="346" type="curve" smooth="yes"/>
      <point x="217" y="422"/>
      <point x="238" y="452"/>
    </contour>
    <contour>
      <point x="183" y="435" type="line"/>
      <point x="71" y="526" type="line"/>
      <point x="25" y="465" type="line"/>
      <point x="135" y="385" type="line"/>
    </contour>
    <contour>
      <point x="512" y="465" type="line"/>
      <point x="466" y="526" type="line"/>
      <point x="354" y="435" type="line"/>
      <point x="402" y="385" type="line"/>
    </contour>
    <contour>
      <point x="25" y="225" type="line"/>
      <point x="71" y="164" type="line"/>
      <point x="183" y="255" type="line"/>
      <point x="135" y="305" type="line"/>
    </contour>
    <contour>
      <point x="354" y="255" type="line"/>
      <point x="466" y="164" type="line"/>
      <point x="512" y="225" type="line"/>
      <point x="402" y="305" type="line"/>
    </contour>
  </outline>
</glyph>
<glyph name="brokenbar" format="1">
  <advance width="293"/>
  <unicode hex="00A6"/>
  <outline>
    <contour>
      <point x="85" y="243" type="line"/>
      <point x="85" y="-107" type="line"/>
      <point x="208" y="-107" type="line"/>
      <point x="208" y="243" type="line"/>
    </contour>
    <contour>
      <point x="208" y="413" type="line"/>
      <point x="208" y="763" type="line"/>
      <point x="85" y="763" type="line"/>
      <point x="85" y="413" type="line"/>
    </contour>
  </outline>
</glyph>
<glyph name="guillemotleft" format="1">
  <advance width="716"/>
  <unicode hex="00AB"/>
  <outline>
    <contour>
      <point x="115" y="306" type="line"/>
      <point x="299" y="96" type="line"/>
      <point x="355" y="126" type="line"/>
      <point x="240" y="306" type="line"/>
      <point x="355" y="486" type="line"/>
      <point x="299" y="514" type="line"/>
    </contour>
    <contour>
      <point x="358" y="306" type="line"/>
      <point x="542" y="96" type="line"/>
      <point x="598" y="126" type="line"/>
      <point x="483" y="306" type="line"/>
      <point x="598" y="486" type="line"/>
      <point x="542" y="514" type="line"/>
    </contour>
  </outline>
</glyph>
<glyph name="registered" format="1">
  <advance width="820"/>
  <unicode hex="00AE"/>
  <outline>
    <contour>
      <point x="354" y="481" type="move" name="top"/>
    </contour>
    <contour>
      <point x="354" y="139" type="move" name="bottom"/>
    </contour>
    <contour>
      <point x="124" y="323" type="curve" smooth="yes"/>
      <point x="124" y="128"/>
      <point x="252" y="28"/>
      <point x="411" y="28" type="curve" smooth="yes"/>
      <point x="570" y="28"/>
      <point x="696" y="128"/>
      <point x="696" y="323" type="curve" smooth="yes"/>
      <point x="696" y="518"/>
      <point x="570" y="618"/>
      <point x="411" y="618" type="curve" smooth="yes"/>
      <point x="252" y="618"/>
      <point x="124" y="518"/>
    </contour>
    <contour>
      <point x="760" y="323" type="curve" smooth="yes"/>
      <point x="760" y="105"/>
      <point x="606" y="-27"/>
      <point x="411" y="-27" type="curve" smooth="yes"/>
      <point x="215" y="-27"/>
      <point x="60" y="105"/>
      <point x="60" y="323" type="curve" smooth="yes"/>
      <point x="60" y="541"/>
      <point x="215" y="673"/>
      <point x="411" y="673" type="curve" smooth="yes"/>
      <point x="606" y="673"/>
      <point x="760" y="541"/>
    </contour>
    <contour>
      <point x="555" y="409" type="curve" smooth="yes"/>
      <point x="555" y="345"/>
      <point x="503" y="300"/>
      <point x="418" y="300" type="curve" smooth="yes"/>
      <point x="352" y="300" type="line"/>
      <point x="349" y="309"/>
      <point x="349" y="335"/>
      <point x="349" y="345" type="curve"/>
      <point x="403" y="345" type="line" smooth="yes"/>
      <point x="440" y="345"/>
      <point x="461" y="362"/>
      <point x="461" y="409" type="curve" smooth="yes"/>
      <point x="461" y="457"/>
      <point x="446" y="473"/>
      <point x="403" y="473" type="curve" smooth="yes"/>
      <point x="357" y="473" type="line"/>
      <point x="371" y="492" type="line"/>
      <point x="371" y="175" type="line"/>
      <point x="369" y="195" type="line"/>
      <point x="383" y="189"/>
      <point x="404" y="185"/>
      <point x="419" y="184" type="curve"/>
      <point x="420" y="174"/>
      <point x="418" y="158"/>
      <point x="417" y="148" type="curve"/>
      <point x="245" y="148" type="line"/>
      <point x="245" y="158"/>
      <point x="245" y="174"/>
      <point x="249" y="184" type="curve"/>
      <point x="268" y="187"/>
      <point x="283" y="193"/>
      <point x="283" y="218" type="curve" smooth="yes"/>
      <point x="283" y="476" type="line"/>
      <point x="284" y="471" type="line"/>
      <point x="275" y="476"/>
      <point x="255" y="477"/>
      <point x="244" y="477" type="curve"/>
      <point x="244" y="487"/>
      <point x="245" y="510"/>
      <point x="247" y="519" type="curve"/>
      <point x="418" y="519" type="line" smooth="yes"/>
      <point x="503" y="519"/>
      <point x="555" y="474"/>
    </contour>
    <contour>
      <point x="421" y="281" type="line"/>
      <point x="416" y="294"/>
      <point x="410" y="300"/>
      <point x="397" y="300" type="curve"/>
      <point x="456" y="318" type="line"/>
      <point x="488" y="318"/>
      <point x="506" y="297"/>
      <point x="521" y="270" type="curve" smooth="yes"/>
      <point x="545" y="221" type="line" smooth="yes"/>
      <point x="559" y="191"/>
      <point x="571" y="184"/>
      <point x="592" y="184" type="curve"/>
      <point x="592" y="172"/>
      <point x="591" y="159"/>
      <point x="589" y="148" type="curve"/>
      <point x="482" y="148" type="line"/>
    </contour>
  </outline>
</glyph>
<glyph name="macron" format="1">
  <advance width="271"/>
  <unicode hex="00AF"/>
  <outline>
    <contour>
      <point x="136" y="461" type="move" name="_top"/>
    </contour>
    <contour>
      <point x="10" y="524" type="line"/>
      <point x="261" y="524" type="line"/>
      <point x="261" y="578" type="line"/>
      <point x="10" y="578" type="line"/>
    </contour>
  </outline>
</glyph>
<glyph name="paragraph" format="1">
  <advance width="546"/>
  <unicode hex="00B6"/>
  <outline>
    <contour>
      <point x="505" y="650" type="line"/>
      <point x="506" y="631"/>
      <point x="504" y="612"/>
      <point x="501" y="593" type="curve"/>
      <point x="452" y="587"/>
      <point x="437" y="565"/>
      <point x="437" y="525" type="curve" smooth="yes"/>
      <point x="437" y="28" type="line" smooth="yes"/>
      <point x="437" y="-103"/>
      <point x="347" y="-203"/>
      <point x="211" y="-242" type="curve"/>
      <point x="166" y="-196" type="line"/>
      <point x="229" y="-139"/>
      <point x="250" y="-77"/>
      <point x="250" y="28" type="curve" smooth="yes"/>
      <point x="250" y="226" type="line"/>
      <point x="216" y="226" type="line" smooth="yes"/>
      <point x="100" y="226"/>
      <point x="15" y="309"/>
      <point x="15" y="437" type="curve" smooth="yes"/>
      <point x="15" y="565"/>
      <point x="101" y="650"/>
      <point x="217" y="650" type="curve" smooth="yes"/>
    </contour>
    <contour>
      <point x="324" y="28" type="line"/>
      <point x="324" y="-58"/>
      <point x="301" y="-118"/>
      <point x="257" y="-170" type="curve"/>
      <point x="327" y="-121"/>
      <point x="363" y="-68"/>
      <point x="363" y="28" type="curve" smooth="yes"/>
      <point x="363" y="518" type="line" smooth="yes"/>
      <point x="363" y="552"/>
      <point x="374" y="577"/>
      <point x="391" y="589" type="curve"/>
      <point x="324" y="589" type="line"/>
    </contour>
  </outline>
</glyph>
<glyph name="cedilla" format="1">
  <advance width="302"/>
  <unicode hex="00B8"/>
  <outline>
    <contour>
      <point x="171" y="0" type="move" name="_bottom"/>
    </contour>
    <contour>
      <point x="221" y="21" type="line"/>
      <point x="202" y="-74" type="line"/>
      <point x="182" y="-61" type="line"/>
      <point x="193" y="-61" type="line" smooth="yes"/>
      <point x="269" y="-61"/>
      <point x="292" y="-96"/>
      <point x="292" y="-130" type="curve" smooth="yes"/>
      <point x="292" y="-190"/>
      <point x="224" y="-225"/>
      <point x="150" y="-225" type="curve" smooth="yes"/>
      <point x="90" y="-225"/>
      <point x="48" y="-209"/>
      <point x="10" y="-186" type="curve"/>
      <point x="33" y="-154" type="line"/>
      <point x="68" y="-173"/>
      <point x="98" y="-180"/>
      <point x="130" y="-180" type="curve" smooth="yes"/>
      <point x="172" y="-180"/>
      <point x="203" y="-165"/>
      <point x="203" y="-137" type="curve" smooth="yes"/>
      <point x="203" y="-116"/>
      <point x="184" y="-106"/>
      <point x="154" y="-106" type="curve" smooth="yes"/>
      <point x="140" y="-106"/>
      <point x="123" y="-108"/>
      <point x="105" y="-111" type="curve"/>
      <point x="132" y="21" type="line"/>
    </contour>
  </outline>
</glyph>
<glyph name="guillemotright" format="1">
  <advance width="736"/>
  <unicode hex="00BB"/>
  <outline>
    <contour>
      <point x="119" y="486" type="line"/>
      <point x="233" y="306" type="line"/>
      <point x="119" y="126" type="line"/>
      <point x="174" y="96" type="line"/>
      <point x="358" y="306" type="line"/>
      <point x="174" y="514" type="line"/>
    </contour>
    <contour>
      <point x="381" y="486" type="line"/>
      <point x="496" y="306" type="line"/>
      <point x="381" y="126" type="line"/>
      <point x="437" y="96" type="line"/>
      <point x="621" y="306" type="line"/>
      <point x="437" y="514" type="line"/>
    </contour>
  </outline>
</glyph>
<glyph name="threequarters" format="1">
  <advance width="762"/>
  <unicode hex="00BE"/>
  <outline>
    <contour>
      <point x="553" y="689" type="line"/>
      <point x="183" y="-37" type="line"/>
      <point x="244" y="-37" type="line"/>
      <point x="614" y="689" type="line"/>
    </contour>
    <contour>
      <point x="660" y="154" type="line"/>
      <point x="718" y="154" type="line"/>
      <point x="723" y="130"/>
      <point x="723" y="116"/>
      <point x="721" y="101" type="curve"/>
      <point x="660" y="101" type="line"/>
      <point x="660" y="27" type="line"/>
      <point x="658" y="52" type="line"/>
      <point x="669" y="45"/>
      <point x="687" y="43"/>
      <point x="700" y="43" type="curve"/>
      <point x="700" y="33"/>
      <point x="699" y="10"/>
      <point x="697" y="0" type="curve"/>
      <point x="529" y="0" type="line"/>
      <point x="528" y="11"/>
      <point x="529" y="33"/>
      <point x="532" y="43" type="curve"/>
      <point x="557" y="47"/>
      <point x="573" y="47"/>
      <point x="573" y="75" type="curve"/>
      <point x="573" y="101" type="line"/>
      <point x="427" y="101" type="line"/>
      <point x="418" y="115"/>
      <point x="411" y="128"/>
      <point x="408" y="144" type="curve"/>
      <point x="609" y="422" type="line"/>
      <point x="660" y="422" type="line"/>
    </contour>
    <contour>
      <point x="595" y="304" type="line"/>
      <point x="462" y="128" type="line"/>
      <point x="446" y="154" type="line"/>
      <point x="573" y="154" type="line"/>
      <point x="573" y="310" type="line"/>
    </contour>
    <contour>
      <point x="314" y="563" type="curve" smooth="yes"/>
      <point x="314" y="520"/>
      <point x="279" y="475"/>
      <point x="214" y="448" type="curve"/>
      <point x="214" y="466" type="line"/>
      <point x="284" y="448"/>
      <point x="320" y="407"/>
      <point x="320" y="351" type="curve" smooth="yes"/>
      <point x="320" y="281"/>
      <point x="257" y="224"/>
      <point x="169" y="224" type="curve" smooth="yes"/>
      <point x="121" y="224"/>
      <point x="83" y="239"/>
      <point x="49" y="267" type="curve"/>
      <point x="57" y="285"/>
      <point x="65" y="304"/>
      <point x="76" y="311" type="curve"/>
      <point x="98" y="296"/>
      <point x="125" y="287"/>
      <point x="158" y="287" type="curve" smooth="yes"/>
      <point x="197" y="287"/>
      <point x="221" y="311"/>
      <point x="221" y="342" type="curve" smooth="yes"/>
      <point x="221" y="387"/>
      <point x="190" y="411"/>
      <point x="137" y="411" type="curve"/>
      <point x="137" y="461" type="line"/>
      <point x="186" y="469"/>
      <point x="207" y="493"/>
      <point x="207" y="532" type="curve" smooth="yes"/>
      <point x="207" y="566"/>
      <point x="188" y="591"/>
      <point x="160" y="591" type="curve" smooth="yes"/>
      <point x="132" y="591"/>
      <point x="106" y="572"/>
      <point x="98" y="534" type="curve"/>
      <point x="90" y="534"/>
      <point x="73" y="534"/>
      <point x="66" y="535" type="curve"/>
      <point x="65" y="566"/>
      <point x="65" y="596"/>
      <point x="69" y="627" type="curve"/>
      <point x="103" y="648"/>
      <point x="142" y="663"/>
      <point x="196" y="663" type="curve" smooth="yes"/>
      <point x="262" y="663"/>
      <point x="314" y="619"/>
    </contour>
  </outline>
</glyph>
<glyph name="AE" format="1">
  <advance width="920"/>
  <unicode hex="00C6"/>
  <outline>
    <contour>
      <point x="442" y="482" type="line"/>
      <point x="388" y="391" type="line"/>
      <point x="157" y="56" type="line"/>
      <point x="152" y="97" type="line"/>
      <point x="176" y="77"/>
      <point x="207" y="62"/>
      <point x="239" y="62" type="curve"/>
      <point x="239" y="41"/>
      <point x="238" y="20"/>
      <point x="235" y="0" type="curve"/>
      <point x="1" y="0" type="line"/>
      <point x="0" y="20"/>
      <point x="2" y="43"/>
      <point x="5" y="62" type="curve"/>
      <point x="55" y="69"/>
      <point x="88" y="88"/>
      <point x="116" y="128" type="curve" smooth="yes"/>
      <point x="436" y="593" type="line"/>
    </contour>
    <contour>
      <point x="459" y="224" type="line"/>
      <point x="223" y="224" type="line"/>
      <point x="253" y="293" type="line"/>
      <point x="489" y="293" type="line"/>
    </contour>
    <contour>
      <point x="769" y="283" type="line"/>
      <point x="725" y="283" type="line"/>
      <point x="572" y="294" type="line"/>
      <point x="572" y="355" type="line"/>
      <point x="725" y="371" type="line"/>
      <point x="769" y="371" type="line"/>
    </contour>
    <contour>
      <point x="872" y="464" type="curve"/>
      <point x="860" y="463"/>
      <point x="823" y="462"/>
      <point x="805" y="462" type="curve"/>
      <point x="798" y="533"/>
      <point x="799" y="588"/>
      <point x="727" y="588" type="curve" smooth="yes"/>
      <point x="546" y="588" type="line"/>
      <point x="593" y="635" type="line"/>
      <point x="593" y="16" type="line"/>
      <point x="547" y="63" type="line"/>
      <point x="728" y="63" type="line" smooth="yes"/>
      <point x="800" y="63"/>
      <point x="803" y="121"/>
      <point x="811" y="198" type="curve"/>
      <point x="829" y="199"/>
      <point x="869" y="197"/>
      <point x="881" y="194" type="curve"/>
      <point x="886" y="127"/>
      <point x="887" y="66"/>
      <point x="885" y="0" type="curve"/>
      <point x="364" y="0" type="line"/>
      <point x="363" y="18"/>
      <point x="364" y="40"/>
      <point x="370" y="57" type="curve"/>
      <point x="405" y="63"/>
      <point x="433" y="73"/>
      <point x="433" y="117" type="curve" smooth="yes"/>
      <point x="433" y="592" type="line"/>
      <point x="436" y="581" type="line"/>
      <point x="419" y="591"/>
      <point x="382" y="594"/>
      <point x="362" y="594" type="curve"/>
      <point x="361" y="610"/>
      <point x="363" y="634"/>
      <point x="367" y="650" type="curve"/>
      <point x="878" y="650" type="line"/>
      <point x="879" y="589"/>
      <point x="878" y="526"/>
    </contour>
  </outline>
</glyph>
<glyph name="Oslash" format="1">
  <advance width="712"/>
  <unicode hex="00D8"/>
  <outline>
    <contour>
      <point x="357" y="650" type="move" name="top"/>
    </contour>
    <contour>
      <point x="355" y="-14" type="curve" smooth="yes"/>
      <point x="140" y="-14"/>
      <point x="50" y="119"/>
      <point x="50" y="323" type="curve" smooth="yes"/>
      <point x="50" y="527"/>
      <point x="176" y="664"/>
      <point x="355" y="664" type="curve" smooth="yes"/>
      <point x="533" y="664"/>
      <point x="663" y="527"/>
      <point x="663" y="323" type="curve" smooth="yes"/>
      <point x="663" y="119"/>
      <point x="533" y="-14"/>
    </contour>
    <contour>
      <point x="471" y="324" type="curve" smooth="yes"/>
      <point x="467" y="477"/>
      <point x="450" y="592"/>
      <point x="350" y="592" type="curve" smooth="yes"/>
      <point x="253" y="592"/>
      <point x="237" y="476"/>
      <point x="242" y="323" type="curve" smooth="yes"/>
      <point x="245" y="175"/>
      <point x="259" y="58"/>
      <point x="359" y="58" type="curve" smooth="yes"/>
      <point x="456" y="58"/>
      <point x="474" y="172"/>
    </contour>
    <contour>
      <point x="138" y="-14" type="line"/>
      <point x="50" y="-14" type="line"/>
      <point x="576" y="663" type="line"/>
      <point x="664" y="663" type="line"/>
    </contour>
  </outline>
</glyph>
<glyph name="thorn" format="1">
  <advance width="592"/>
  <unicode hex="00FE"/>
  <outline>
    <contour>
      <point x="245" y="-159" type="line"/>
      <point x="271" y="-173"/>
      <point x="310" y="-181"/>
      <point x="338" y="-182" type="curve"/>
      <point x="339" y="-199"/>
      <point x="337" y="-222"/>
      <point x="334" y="-239" type="curve"/>
      <point x="25" y="-239" type="line"/>
      <point x="24" y="-221"/>
      <point x="25" y="-199"/>
      <point x="31" y="-182" type="curve"/>
      <point x="66" y="-176"/>
      <point x="93" y="-166"/>
      <point x="93" y="-123" type="curve" smooth="yes"/>
      <point x="93" y="643" type="line"/>
      <point x="95" y="625" type="line"/>
      <point x="77" y="628"/>
      <point x="51" y="627"/>
      <point x="26" y="626" type="curve"/>
      <point x="27" y="642"/>
      <point x="30" y="667"/>
      <point x="35" y="682" type="curve"/>
      <point x="100" y="705"/>
      <point x="160" y="717"/>
      <point x="248" y="720" type="curve"/>
      <point x="248" y="-176" type="line"/>
    </contour>
    <contour>
      <point x="367" y="-13" type="curve" smooth="yes"/>
      <point x="316" y="-13"/>
      <point x="269" y="8"/>
      <point x="235" y="63" type="curve"/>
      <point x="244" y="163" type="line"/>
      <point x="251" y="110"/>
      <point x="286" y="72"/>
      <point x="319" y="72" type="curve" smooth="yes"/>
      <point x="354" y="72"/>
      <point x="402" y="95"/>
      <point x="402" y="231" type="curve" smooth="yes"/>
      <point x="402" y="367"/>
      <point x="354" y="389"/>
      <point x="319" y="389" type="curve" smooth="yes"/>
      <point x="286" y="389"/>
      <point x="251" y="351"/>
      <point x="244" y="298" type="curve"/>
      <point x="235" y="398" type="line"/>
      <point x="269" y="453"/>
      <point x="316" y="474"/>
      <point x="367" y="474" type="curve" smooth="yes"/>
      <point x="475" y="474"/>
      <point x="568" y="393"/>
      <point x="568" y="231" type="curve" smooth="yes"/>
      <point x="568" y="69"/>
      <point x="475" y="-13"/>
    </contour>
  </outline>
</glyph>
<glyph name="Dcroat" format="1">
  <advance width="712"/>
  <unicode hex="0110"/>
  <outline>
    <contour>
      <point x="378" y="361" type="line"/>
      <point x="384" y="339"/>
      <point x="384" y="316"/>
      <point x="378" y="294" type="curve"/>
      <point x="36" y="294" type="line"/>
      <point x="31" y="316"/>
      <point x="31" y="339"/>
      <point x="36" y="361" type="curve"/>
    </contour>
    <component base="D"/>
  </outline>
</glyph>
<glyph name="dcroat" format="1">
  <advance width="592"/>
  <unicode hex="0111"/>
  <outline>
    <contour>
      <point x="569" y="616" type="line"/>
      <point x="577" y="599"/>
      <point x="579" y="582"/>
      <point x="577" y="563" type="curve"/>
      <point x="241" y="510" type="line"/>
      <point x="232" y="527"/>
      <point x="230" y="544"/>
      <point x="233" y="563" type="curve"/>
    </contour>
    <component base="d"/>
  </outline>
</glyph>
<glyph name="dotlessi" format="1">
  <advance width="340"/>
  <unicode hex="0131"/>
  <outline>
    <contour>
      <point x="175" y="461" type="move" name="top"/>
    </contour>
    <contour>
      <point x="315" y="9" type="move" name="ogonek"/>
    </contour>
    <contour>
      <point x="248" y="42" type="line"/>
      <point x="244" y="69" type="line"/>
      <point x="262" y="60"/>
      <point x="285" y="57"/>
      <point x="304" y="57" type="curve"/>
      <point x="305" y="40"/>
      <point x="303" y="17"/>
      <point x="300" y="0" type="curve"/>
      <point x="25" y="0" type="line"/>
      <point x="24" y="18"/>
      <point x="25" y="40"/>
      <point x="30" y="57" type="curve"/>
      <point x="65" y="63"/>
      <point x="93" y="73"/>
      <point x="93" y="116" type="curve" smooth="yes"/>
      <point x="93" y="392" type="line"/>
      <point x="95" y="375" type="line"/>
      <point x="77" y="377"/>
      <point x="51" y="377"/>
      <point x="26" y="376" type="curve"/>
      <point x="27" y="391"/>
      <point x="30" y="416"/>
      <point x="35" y="432" type="curve"/>
      <point x="100" y="454"/>
      <point x="160" y="466"/>
      <point x="248" y="470" type="curve"/>
    </contour>
  </outline>
</glyph>
<glyph name="breve" format="1">
  <advance width="305"/>
  <unicode hex="02D8"/>
  <outline>
    <contour>
      <point x="153" y="461" type="move" name="_top"/>
    </contour>
    <contour>
      <point x="10" y="657" type="curve" smooth="yes"/>
      <point x="10" y="670"/>
      <point x="11" y="682"/>
      <point x="14" y="695" type="curve"/>
      <point x="57" y="695" type="line"/>
      <point x="57" y="645"/>
      <point x="92" y="628"/>
      <point x="153" y="628" type="curve" smooth="yes"/>
      <point x="213" y="628"/>
      <point x="248" y="645"/>
      <point x="248" y="695" type="curve"/>
      <point x="291" y="695" type="line"/>
      <point x="294" y="682"/>
      <point x="295" y="670"/>
      <point x="295" y="657" type="curve" smooth="yes"/>
      <point x="295" y="574"/>
      <point x="234" y="525"/>
      <point x="153" y="525" type="curve" smooth="yes"/>
      <point x="72" y="525"/>
      <point x="10" y="574"/>
    </contour>
  </outline>
</glyph>
<glyph name="dvAnusvara" format="1">
  <advance width="0"/>
  <unicode hex="0902"/>
  <outline>
    <contour>
      <point x="-70" y="635" type="move" name="_abvm"/>
    </contour>
    <contour>
      <point x="-226" y="781" type="line"/>
      <point x="-132" y="690" type="line"/>
      <point x="-41" y="781" type="line"/>
      <point x="-135" y="874" type="line"/>
    </contour>
  </outline>
</glyph>
<glyph name="dvI" format="1">
  <advance width="546"/>
  <unicode hex="0907"/>
  <outline>
    <contour>
      <point x="508" y="108" type="curve" smooth="yes"/>
      <point x="508" y="190"/>
      <point x="421" y="288"/>
      <point x="343" y="288" type="curve" smooth="yes"/>
      <point x="290" y="288"/>
      <point x="246" y="254"/>
      <point x="192" y="254" type="curve" smooth="yes"/>
      <point x="171" y="254"/>
      <point x="163" y="268"/>
      <point x="163" y="284" type="curve" smooth="yes"/>
      <point x="163" y="315"/>
      <point x="184" y="343"/>
      <point x="225" y="343" type="curve" smooth="yes"/>
      <point x="461" y="343" type="line"/>
      <point x="461" y="531" type="line"/>
      <point x="624" y="531" type="line"/>
      <point x="553" y="635" type="line"/>
      <point x="-67" y="635" type="line"/>
      <point x="5" y="531" type="line"/>
      <point x="335" y="531" type="line"/>
      <point x="335" y="463" type="line"/>
      <point x="192" y="463" type="line" smooth="yes"/>
      <point x="124" y="463"/>
      <point x="64" y="427"/>
      <point x="64" y="352" type="curve" smooth="yes"/>
      <point x="64" y="265"/>
      <point x="176" y="140"/>
      <point x="249" y="140" type="curve" smooth="yes"/>
      <point x="315" y="140"/>
      <point x="369" y="179"/>
      <point x="402" y="179" type="curve" smooth="yes"/>
      <point x="412" y="179"/>
      <point x="417" y="166"/>
      <point x="417" y="156" type="curve" smooth="yes"/>
      <point x="417" y="102"/>
      <point x="324" y="62"/>
      <point x="244" y="59" type="curve"/>
      <point x="208" y="106"/>
      <point x="170" y="142"/>
      <point x="140" y="142" type="curve" smooth="yes"/>
      <point x="104" y="142"/>
      <point x="68" y="112"/>
      <point x="68" y="77" type="curve" smooth="yes"/>
      <point x="68" y="22"/>
      <point x="164" y="-43"/>
      <point x="237" y="-58" type="curve"/>
      <point x="360" y="-230" type="line"/>
      <point x="443" y="-176" type="line"/>
      <point x="332" y="-53" type="line"/>
      <point x="431" y="-32"/>
      <point x="508" y="36"/>
    </contour>
  </outline>
</glyph>
<glyph name="dvUU" format="1">
  <advance width="729"/>
  <unicode hex="090A"/>
  <outline>
    <contour>
      <point x="727" y="185" type="curve" smooth="yes"/>
      <point x="727" y="282"/>
      <point x="614" y="394"/>
      <point x="520" y="394" type="curve" smooth="yes"/>
      <point x="476" y="394"/>
      <point x="424" y="356"/>
      <point x="385" y="318" type="curve"/>
      <point x="382" y="322"/>
      <point x="378" y="325"/>
      <point x="375" y="328" type="curve"/>
      <point x="396" y="355"/>
      <point x="406" y="386"/>
      <point x="406" y="420" type="curve" smooth="yes"/>
      <point x="406" y="463"/>
      <point x="389" y="502"/>
      <point x="367" y="531" type="curve"/>
      <point x="772" y="531" type="line"/>
      <point x="700" y="635" type="line"/>
      <point x="-92" y="635" type="line"/>
      <point x="-20" y="531" type="line"/>
      <point x="255" y="531" type="line"/>
      <point x="281" y="523"/>
      <point x="298" y="493"/>
      <point x="298" y="470" type="curve" smooth="yes"/>
      <point x="298" y="430"/>
      <point x="268" y="388"/>
      <point x="124" y="368" type="curve"/>
      <point x="196" y="245" type="line"/>
      <point x="244" y="252"/>
      <point x="283" y="264"/>
      <point x="314" y="280" type="curve"/>
      <point x="326" y="263"/>
      <point x="333" y="244"/>
      <point x="333" y="226" type="curve" smooth="yes"/>
      <point x="333" y="172"/>
      <point x="291" y="127"/>
      <point x="222" y="127" type="curve" smooth="yes"/>
      <point x="146" y="127"/>
      <point x="82" y="232"/>
      <point x="36" y="347" type="curve"/>
      <point x="-26" y="310" type="line"/>
      <point x="17" y="201"/>
      <point x="121" y="-1"/>
      <point x="265" y="-1" type="curve" smooth="yes"/>
      <point x="379" y="-1"/>
      <point x="444" y="80"/>
      <point x="444" y="175" type="curve" smooth="yes"/>
      <point x="444" y="183" type="line"/>
      <point x="472" y="220"/>
      <point x="529" y="276"/>
      <point x="577" y="276" type="curve" smooth="yes"/>
      <point x="604" y="276"/>
      <point x="618" y="265"/>
      <point x="618" y="239" type="curve" smooth="yes"/>
      <point x="618" y="188"/>
      <point x="575" y="138"/>
      <point x="490" y="115" type="curve"/>
      <point x="573" y="1" type="line"/>
      <point x="656" y="31"/>
      <point x="727" y="94"/>
    </contour>
  </outline>
</glyph>
<glyph name="dvvR" format="1">
  <advance width="978"/>
  <unicode hex="090B"/>
  <outline>
    <contour>
      <point x="997" y="635" type="line"/>
      <point x="-92" y="635" type="line"/>
      <point x="-20" y="531" type="line"/>
      <point x="452" y="531" type="line"/>
      <point x="452" y="319" type="line"/>
      <point x="346" y="442"/>
      <point x="274" y="464"/>
      <point x="201" y="464" type="curve" smooth="yes"/>
      <point x="145" y="464"/>
      <point x="97" y="446"/>
      <point x="36" y="397" type="curve"/>
      <point x="126" y="293" type="line"/>
      <point x="180" y="339"/>
      <point x="229" y="357"/>
      <point x="272" y="357" type="curve" smooth="yes"/>
      <point x="318" y="357"/>
      <point x="365" y="331"/>
      <point x="392" y="294" type="curve"/>
      <point x="120" y="73" type="line"/>
      <point x="217" y="-4" type="line"/>
      <point x="452" y="195" type="line"/>
      <point x="452" y="31" type="line"/>
      <point x="577" y="-40" type="line"/>
      <point x="577" y="253" type="line"/>
      <point x="607" y="241"/>
      <point x="643" y="235"/>
      <point x="678" y="235" type="curve" smooth="yes"/>
      <point x="707" y="235"/>
      <point x="729" y="238"/>
      <point x="751" y="246" type="curve"/>
      <point x="772" y="218" type="line"/>
      <point x="688" y="149" type="line" smooth="yes"/>
      <point x="661" y="128"/>
      <point x="654" y="105"/>
      <point x="654" y="83" type="curve" smooth="yes"/>
      <point x="654" y="-4"/>
      <point x="792" y="-98"/>
      <point x="868" y="-98" type="curve" smooth="yes"/>
      <point x="941" y="-98"/>
      <point x="986" y="-43"/>
      <point x="1000" y="4" type="curve"/>
      <point x="926" y="70" type="line"/>
      <point x="896" y="22"/>
      <point x="866" y="-11"/>
      <point x="815" y="-11" type="curve" smooth="yes"/>
      <point x="778" y="-11"/>
      <point x="762" y="12"/>
      <point x="762" y="37" type="curve" smooth="yes"/>
      <point x="762" y="63"/>
      <point x="788" y="82"/>
      <point x="793" y="87" type="curve" smooth="yes"/>
      <point x="897" y="178" type="line"/>
      <point x="816" y="287" type="line"/>
      <point x="834" y="304"/>
      <point x="842" y="321"/>
      <point x="842" y="344" type="curve" smooth="yes"/>
      <point x="842" y="403"/>
      <point x="784" y="467"/>
      <point x="741" y="467" type="curve" smooth="yes"/>
      <point x="707" y="467"/>
      <point x="677" y="438"/>
      <point x="677" y="406" type="curve" smooth="yes"/>
      <point x="677" y="388"/>
      <point x="685" y="370"/>
      <point x="694" y="354" type="curve"/>
      <point x="694" y="354"/>
      <point x="668" y="327"/>
      <point x="608" y="327" type="curve" smooth="yes"/>
      <point x="598" y="327"/>
      <point x="587" y="329"/>
      <point x="577" y="332" type="curve"/>
      <point x="577" y="531" type="line"/>
      <point x="1069" y="531" type="line"/>
    </contour>
  </outline>
</glyph>
<glyph name="dvvL" format="1">
  <advance width="753"/>
  <unicode hex="090C"/>
  <outline>
    <contour>
      <point x="512" y="345" type="curve" smooth="yes"/>
      <point x="527" y="345"/>
      <point x="541" y="343"/>
      <point x="553" y="338" type="curve"/>
      <point x="553" y="112" type="line"/>
      <point x="488" y="72"/>
      <point x="429" y="37"/>
      <point x="429" y="-22" type="curve" smooth="yes"/>
      <point x="429" y="-103"/>
      <point x="546" y="-227"/>
      <point x="642" y="-227" type="curve" smooth="yes"/>
      <point x="710" y="-227"/>
      <point x="772" y="-188"/>
      <point x="810" y="-146" type="curve"/>
      <point x="730" y="-70" type="line"/>
      <point x="704" y="-96"/>
      <point x="648" y="-127"/>
      <point x="603" y="-127" type="curve" smooth="yes"/>
      <point x="571" y="-127"/>
      <point x="541" y="-111"/>
      <point x="541" y="-76" type="curve" smooth="yes"/>
      <point x="541" y="-32"/>
      <point x="616" y="6"/>
      <point x="683" y="40" type="curve"/>
      <point x="683" y="531" type="line"/>
      <point x="844" y="531" type="line"/>
      <point x="772" y="635" type="line"/>
      <point x="-71" y="635" type="line"/>
      <point x="1" y="531" type="line"/>
      <point x="553" y="531" type="line"/>
      <point x="553" y="421" type="line"/>
      <point x="522" y="442"/>
      <point x="488" y="456"/>
      <point x="457" y="456" type="curve" smooth="yes"/>
      <point x="406" y="456"/>
      <point x="365" y="434"/>
      <point x="338" y="400" type="curve"/>
      <point x="304" y="433"/>
      <point x="258" y="458"/>
      <point x="204" y="458" type="curve" smooth="yes"/>
      <point x="104" y="458"/>
      <point x="37" y="383"/>
      <point x="37" y="285" type="curve" smooth="yes"/>
      <point x="37" y="155"/>
      <point x="169" y="35"/>
      <point x="256" y="-40" type="curve"/>
      <point x="320" y="6" type="line"/>
      <point x="250" y="63"/>
      <point x="161" y="140"/>
      <point x="161" y="237" type="curve" smooth="yes"/>
      <point x="161" y="302"/>
      <point x="202" y="342"/>
      <point x="252" y="342" type="curve" smooth="yes"/>
      <point x="274" y="342"/>
      <point x="291" y="337"/>
      <point x="304" y="330" type="curve"/>
      <point x="299" y="313"/>
      <point x="297" y="294"/>
      <point x="297" y="276" type="curve" smooth="yes"/>
      <point x="297" y="240"/>
      <point x="306" y="202"/>
      <point x="328" y="164" type="curve"/>
      <point x="445" y="123" type="line"/>
      <point x="430" y="156"/>
      <point x="421" y="194"/>
      <point x="421" y="230" type="curve" smooth="yes"/>
      <point x="421" y="291"/>
      <point x="445" y="345"/>
    </contour>
  </outline>
</glyph>
<glyph name="dvE" format="1">
  <advance width="561"/>
  <unicode hex="090F"/>
  <outline>
    <contour>
      <point x="566" y="635" type="line"/>
      <point x="-79" y="635" type="line"/>
      <point x="-17" y="531" type="line"/>
      <point x="72" y="531" type="line"/>
      <point x="72" y="254" type="line" smooth="yes"/>
      <point x="72" y="230"/>
      <point x="76" y="220"/>
      <point x="97" y="203" type="curve" smooth="yes"/>
      <point x="331" y="17" type="line" smooth="yes"/>
      <point x="361" y="-8"/>
      <point x="374" y="-22"/>
      <point x="374" y="-39" type="curve" smooth="yes"/>
      <point x="374" y="-52"/>
      <point x="360" y="-71"/>
      <point x="337" y="-92" type="curve"/>
      <point x="442" y="-175" type="line"/>
      <point x="469" y="-150"/>
      <point x="493" y="-114"/>
      <point x="493" y="-71" type="curve" smooth="yes"/>
      <point x="493" y="-36"/>
      <point x="473" y="5"/>
      <point x="432" y="36" type="curve" smooth="yes"/>
      <point x="238" y="188" type="line"/>
      <point x="204" y="214"/>
      <point x="202" y="230"/>
      <point x="202" y="273" type="curve" smooth="yes"/>
      <point x="202" y="531" type="line"/>
      <point x="361" y="531" type="line"/>
      <point x="361" y="351" type="line" smooth="yes"/>
      <point x="361" y="307"/>
      <point x="337" y="287"/>
      <point x="283" y="256" type="curve"/>
      <point x="379" y="160" type="line"/>
      <point x="451" y="204"/>
      <point x="491" y="257"/>
      <point x="491" y="345" type="curve" smooth="yes"/>
      <point x="491" y="531" type="line"/>
      <point x="628" y="531" type="line"/>
    </contour>
  </outline>
</glyph>
<glyph name="dvKHA" format="1">
  <advance width="755"/>
  <unicode hex="0916"/>
  <outline>
    <contour>
      <point x="12" y="317" type="line"/>
      <point x="90" y="189"/>
      <point x="205" y="11"/>
      <point x="390" y="11" type="curve" smooth="yes"/>
      <point x="463" y="11"/>
      <point x="528" y="45"/>
      <point x="563" y="75" type="curve"/>
      <point x="559" y="31" type="line"/>
      <point x="685" y="-40" type="line"/>
      <point x="685" y="531" type="line"/>
      <point x="847" y="531" type="line"/>
      <point x="775" y="635" type="line"/>
      <point x="-92" y="635" type="line"/>
      <point x="-20" y="531" type="line"/>
      <point x="145" y="531" type="line"/>
      <point x="145" y="350" type="line"/>
      <point x="145" y="338"/>
      <point x="139" y="334"/>
      <point x="130" y="334" type="curve" smooth="yes"/>
      <point x="116" y="334"/>
      <point x="95" y="346"/>
      <point x="71" y="370" type="curve"/>
    </contour>
    <contour>
      <point x="273" y="326" type="curve"/>
      <point x="273" y="531" type="line"/>
      <point x="555" y="531" type="line"/>
      <point x="555" y="428" type="line"/>
      <point x="525" y="450"/>
      <point x="486" y="467"/>
      <point x="445" y="467" type="curve" smooth="yes"/>
      <point x="375" y="467"/>
      <point x="311" y="411"/>
      <point x="311" y="334" type="curve" smooth="yes"/>
      <point x="311" y="236"/>
      <point x="397" y="175"/>
      <point x="478" y="159" type="curve"/>
      <point x="453" y="137"/>
      <point x="414" y="123"/>
      <point x="365" y="123" type="curve" smooth="yes"/>
      <point x="290" y="123"/>
      <point x="223" y="159"/>
      <point x="185" y="210" type="curve"/>
      <point x="256" y="225"/>
      <point x="273" y="271"/>
    </contour>
    <contour>
      <point x="570" y="294" type="curve" smooth="yes"/>
      <point x="570" y="256"/>
      <point x="546" y="227"/>
      <point x="540" y="223" type="curve"/>
      <point x="491" y="225"/>
      <point x="435" y="250"/>
      <point x="435" y="302" type="curve" smooth="yes"/>
      <point x="435" y="335"/>
      <point x="461" y="364"/>
      <point x="496" y="364" type="curve" smooth="yes"/>
      <point x="541" y="364"/>
      <point x="570" y="338"/>
    </contour>
  </outline>
</glyph>
<glyph name="dvGHA" format="1">
  <advance width="605"/>
  <unicode hex="0918"/>
  <outline>
    <contour>
      <point x="535" y="-40" type="line"/>
      <point x="535" y="531" type="line"/>
      <point x="696" y="531" type="line"/>
      <point x="625" y="635" type="line"/>
      <point x="-92" y="635" type="line"/>
      <point x="-20" y="531" type="line"/>
      <point x="20" y="531" type="line"/>
      <point x="27" y="531"/>
      <point x="49" y="533"/>
      <point x="57" y="533" type="curve"/>
      <point x="52" y="522"/>
      <point x="47" y="505"/>
      <point x="47" y="487" type="curve" smooth="yes"/>
      <point x="47" y="445"/>
      <point x="84" y="412"/>
      <point x="114" y="390" type="curve"/>
      <point x="76" y="369"/>
      <point x="54" y="334"/>
      <point x="54" y="292" type="curve" smooth="yes"/>
      <point x="54" y="186"/>
      <point x="178" y="72"/>
      <point x="298" y="72" type="curve" smooth="yes"/>
      <point x="340" y="72"/>
      <point x="377" y="88"/>
      <point x="411" y="113" type="curve"/>
      <point x="405" y="36" type="line"/>
    </contour>
    <contour>
      <point x="308" y="406" type="line"/>
      <point x="289" y="412"/>
      <point x="261" y="417"/>
      <point x="238" y="417" type="curve" smooth="yes"/>
      <point x="221" y="417"/>
      <point x="205" y="415"/>
      <point x="189" y="412" type="curve"/>
      <point x="177" y="424"/>
      <point x="170" y="442"/>
      <point x="170" y="461" type="curve" smooth="yes"/>
      <point x="170" y="485"/>
      <point x="188" y="521"/>
      <point x="215" y="531" type="curve"/>
      <point x="405" y="531" type="line"/>
      <point x="405" y="285" type="line"/>
      <point x="372" y="238"/>
      <point x="312" y="181"/>
      <point x="239" y="181" type="curve" smooth="yes"/>
      <point x="194" y="181"/>
      <point x="168" y="207"/>
      <point x="168" y="240" type="curve" smooth="yes"/>
      <point x="168" y="288"/>
      <point x="221" y="299"/>
      <point x="264" y="299" type="curve" smooth="yes"/>
      <point x="293" y="299"/>
      <point x="324" y="292"/>
      <point x="344" y="285" type="curve"/>
    </contour>
  </outline>
</glyph>
<glyph name="dvNGA" format="1">
  <advance width="627"/>
  <unicode hex="0919"/>
  <outline>
    <contour>
      <point x="397" y="-78" type="move" name="blwm.virama"/>
    </contour>
    <contour>
      <point x="445" y="635" type="move" name="abvm"/>
    </contour>
    <contour>
      <point x="397" y="-178" type="move" name="blwm.u"/>
    </contour>
    <contour>
      <point x="33" y="140" type="line"/>
      <point x="88" y="34"/>
      <point x="194" y="-50"/>
      <point x="305" y="-50" type="curve" smooth="yes"/>
      <point x="418" y="-50"/>
      <point x="501" y="30"/>
      <point x="501" y="107" type="curve" smooth="yes"/>
      <point x="501" y="175"/>
      <point x="427" y="294"/>
      <point x="349" y="294" type="curve" smooth="yes"/>
      <point x="300" y="294"/>
      <point x="258" y="257"/>
      <point x="210" y="257" type="curve" smooth="yes"/>
      <point x="185" y="257"/>
      <point x="174" y="276"/>
      <point x="174" y="299" type="curve" smooth="yes"/>
      <point x="174" y="328"/>
      <point x="193" y="345"/>
      <point x="235" y="345" type="curve" smooth="yes"/>
      <point x="445" y="345" type="line"/>
      <point x="445" y="531" type="line"/>
      <point x="719" y="531" type="line"/>
      <point x="647" y="635" type="line"/>
      <point x="-92" y="635" type="line"/>
      <point x="-20" y="531" type="line"/>
      <point x="322" y="531" type="line"/>
      <point x="322" y="465" type="line"/>
      <point x="205" y="465" type="line" smooth="yes"/>
      <point x="119" y="465"/>
      <point x="74" y="423"/>
      <point x="74" y="350" type="curve" smooth="yes"/>
      <point x="74" y="257"/>
      <point x="177" y="141"/>
      <point x="259" y="141" type="curve" smooth="yes"/>
      <point x="308" y="141"/>
      <point x="354" y="178"/>
      <point x="387" y="178" type="curve" smooth="yes"/>
      <point x="400" y="178"/>
      <point x="406" y="170"/>
      <point x="406" y="159" type="curve" smooth="yes"/>
      <point x="406" y="111"/>
      <point x="346" y="63"/>
      <point x="270" y="63" type="curve" smooth="yes"/>
      <point x="193" y="63"/>
      <point x="134" y="129"/>
      <point x="99" y="184" type="curve"/>
    </contour>
    <contour>
      <point x="470" y="287" type="line"/>
      <point x="564" y="196" type="line"/>
      <point x="655" y="287" type="line"/>
      <point x="561" y="380" type="line"/>
    </contour>
  </outline>
</glyph>
<glyph name="dvJA" format="1">
  <advance width="696"/>
  <unicode hex="091C"/>
  <outline>
    <contour>
      <point x="625" y="-40" type="line"/>
      <point x="625" y="531" type="line"/>
      <point x="788" y="531" type="line"/>
      <point x="716" y="635" type="line"/>
      <point x="-92" y="635" type="line"/>
      <point x="-20" y="531" type="line"/>
      <point x="495" y="531" type="line"/>
      <point x="495" y="436" type="line"/>
      <point x="216" y="436" type="line"/>
      <point x="201" y="412" type="line"/>
      <point x="272" y="344"/>
      <point x="300" y="285"/>
      <point x="300" y="249" type="curve" smooth="yes"/>
      <point x="300" y="211"/>
      <point x="280" y="192"/>
      <point x="244" y="192" type="curve" smooth="yes"/>
      <point x="167" y="192"/>
      <point x="115" y="307"/>
      <point x="77" y="436" type="curve"/>
      <point x="9" y="397" type="line"/>
      <point x="64" y="237"/>
      <point x="145" y="67"/>
      <point x="279" y="67" type="curve" smooth="yes"/>
      <point x="364" y="67"/>
      <point x="410" y="117"/>
      <point x="410" y="194" type="curve" smooth="yes"/>
      <point x="410" y="237"/>
      <point x="393" y="286"/>
      <point x="356" y="321" type="curve"/>
      <point x="495" y="321" type="line"/>
      <point x="495" y="37" type="line"/>
    </contour>
  </outline>
</glyph>
<glyph name="dvNYA" format="1">
  <advance width="763"/>
  <unicode hex="091E"/>
  <outline>
    <contour>
      <point x="8" y="313" type="line"/>
      <point x="93" y="197"/>
      <point x="206" y="68"/>
      <point x="333" y="68" type="curve" smooth="yes"/>
      <point x="420" y="68"/>
      <point x="509" y="136"/>
      <point x="492" y="238" type="curve"/>
      <point x="510" y="228"/>
      <point x="525" y="223"/>
      <point x="541" y="223" type="curve" smooth="yes"/>
      <point x="550" y="223"/>
      <point x="560" y="224"/>
      <point x="572" y="228" type="curve"/>
      <point x="563" y="37" type="line"/>
      <point x="693" y="-40" type="line"/>
      <point x="693" y="531" type="line"/>
      <point x="855" y="531" type="line"/>
      <point x="783" y="635" type="line"/>
      <point x="-92" y="635" type="line"/>
      <point x="-20" y="531" type="line"/>
      <point x="564" y="531" type="line"/>
      <point x="564" y="363" type="line"/>
      <point x="547" y="339"/>
      <point x="526" y="327"/>
      <point x="498" y="327" type="curve" smooth="yes"/>
      <point x="491" y="327"/>
      <point x="478" y="327"/>
      <point x="470" y="332" type="curve"/>
      <point x="410" y="441"/>
      <point x="338" y="490"/>
      <point x="272" y="490" type="curve" smooth="yes"/>
      <point x="231" y="490"/>
      <point x="184" y="463"/>
      <point x="138" y="413" type="curve"/>
      <point x="236" y="307" type="line"/>
      <point x="260" y="340"/>
      <point x="294" y="368"/>
      <point x="328" y="368" type="curve" smooth="yes"/>
      <point x="366" y="368"/>
      <point x="392" y="338"/>
      <point x="392" y="295" type="curve" smooth="yes"/>
      <point x="392" y="228"/>
      <point x="354" y="187"/>
      <point x="285" y="187" type="curve" smooth="yes"/>
      <point x="204" y="187"/>
      <point x="143" y="262"/>
      <point x="68" y="367" type="curve"/>
    </contour>
  </outline>
</glyph>
<glyph name="dvTTA" format="1">
  <advance width="520"/>
  <unicode hex="091F"/>
  <outline>
    <contour>
      <point x="409" y="-36" type="move" name="blwm.virama"/>
    </contour>
    <contour>
      <point x="431" y="635" type="move" name="abvm"/>
    </contour>
    <contour>
      <point x="409" y="-135" type="move" name="blwm.u"/>
    </contour>
    <contour>
      <point x="540" y="635" type="line"/>
      <point x="-88" y="635" type="line"/>
      <point x="-20" y="531" type="line"/>
      <point x="301" y="531" type="line"/>
      <point x="301" y="442" type="line"/>
      <point x="227" y="442" type="line" smooth="yes"/>
      <point x="136" y="442"/>
      <point x="53" y="387"/>
      <point x="53" y="275" type="curve" smooth="yes"/>
      <point x="53" y="141"/>
      <point x="201" y="-5"/>
      <point x="328" y="-5" type="curve" smooth="yes"/>
      <point x="403" y="-5"/>
      <point x="460" y="23"/>
      <point x="515" y="81" type="curve"/>
      <point x="433" y="191" type="line"/>
      <point x="385" y="136"/>
      <point x="338" y="116"/>
      <point x="277" y="116" type="curve" smooth="yes"/>
      <point x="214" y="116"/>
      <point x="170" y="146"/>
      <point x="170" y="215" type="curve" smooth="yes"/>
      <point x="170" y="285"/>
      <point x="215" y="322"/>
      <point x="284" y="322" type="curve" smooth="yes"/>
      <point x="431" y="322" type="line"/>
      <point x="431" y="531" type="line"/>
      <point x="608" y="531" type="line"/>
    </contour>
  </outline>
</glyph>
<glyph name="dvTTHA" format="1">
  <advance width="590"/>
  <unicode hex="0920"/>
  <outline>
    <contour>
      <point x="414" y="-45" type="move" name="blwm.virama"/>
    </contour>
    <contour>
      <point x="434" y="635" type="move" name="abvm"/>
    </contour>
    <contour>
      <point x="414" y="-148" type="move" name="blwm.u"/>
    </contour>
    <contour>
      <point x="610" y="635" type="line"/>
      <point x="-88" y="635" type="line"/>
      <point x="-20" y="531" type="line"/>
      <point x="304" y="531" type="line"/>
      <point x="304" y="440" type="line"/>
      <point x="230" y="440" type="line" smooth="yes"/>
      <point x="124" y="440"/>
      <point x="56" y="385"/>
      <point x="56" y="274" type="curve" smooth="yes"/>
      <point x="56" y="118"/>
      <point x="210" y="-11"/>
      <point x="355" y="-11" type="curve" smooth="yes"/>
      <point x="491" y="-11"/>
      <point x="560" y="64"/>
      <point x="560" y="172" type="curve" smooth="yes"/>
      <point x="560" y="261"/>
      <point x="498" y="335"/>
      <point x="434" y="374" type="curve"/>
      <point x="434" y="531" type="line"/>
      <point x="678" y="531" type="line"/>
    </contour>
    <contour>
      <point x="445" y="213" type="curve" smooth="yes"/>
      <point x="445" y="150"/>
      <point x="400" y="90"/>
      <point x="310" y="90" type="curve" smooth="yes"/>
      <point x="237" y="90"/>
      <point x="171" y="140"/>
      <point x="171" y="210" type="curve" smooth="yes"/>
      <point x="171" y="282"/>
      <point x="220" y="322"/>
      <point x="276" y="322" type="curve" smooth="yes"/>
      <point x="375" y="322" type="line"/>
      <point x="414" y="302"/>
      <point x="445" y="267"/>
    </contour>
  </outline>
</glyph>
<glyph name="dvTHA" format="1">
  <advance width="710"/>
  <unicode hex="0925"/>
  <outline>
    <contour>
      <point x="446" y="436" type="curve"/>
      <point x="446" y="509"/>
      <point x="348" y="643"/>
      <point x="240" y="643" type="curve" smooth="yes"/>
      <point x="180" y="643"/>
      <point x="112" y="602"/>
      <point x="112" y="530" type="curve" smooth="yes"/>
      <point x="112" y="485"/>
      <point x="142" y="439"/>
      <point x="181" y="400" type="curve"/>
      <point x="240" y="438" type="line"/>
      <point x="229" y="449"/>
      <point x="216" y="468"/>
      <point x="216" y="488" type="curve" smooth="yes"/>
      <point x="216" y="522"/>
      <point x="245" y="547"/>
      <point x="280" y="547" type="curve" smooth="yes"/>
      <point x="305" y="547"/>
      <point x="339" y="526"/>
      <point x="339" y="490" type="curve" smooth="yes"/>
      <point x="339" y="418"/>
      <point x="191" y="357"/>
      <point x="132" y="323" type="curve" smooth="yes"/>
      <point x="118" y="315"/>
      <point x="114" y="309"/>
      <point x="114" y="293" type="curve" smooth="yes"/>
      <point x="114" y="200"/>
      <point x="276" y="69"/>
      <point x="384" y="69" type="curve" smooth="yes"/>
      <point x="433" y="69"/>
      <point x="479" y="88"/>
      <point x="516" y="122" type="curve"/>
      <point x="510" y="37" type="line"/>
      <point x="640" y="-40" type="line"/>
      <point x="640" y="531" type="line"/>
      <point x="802" y="531" type="line"/>
      <point x="730" y="635" type="line"/>
      <point x="391" y="635" type="line"/>
      <point x="463" y="531" type="line"/>
      <point x="510" y="531" type="line"/>
      <point x="510" y="291" type="line"/>
      <point x="454" y="230"/>
      <point x="390" y="185"/>
      <point x="326" y="185" type="curve" smooth="yes"/>
      <point x="288" y="185"/>
      <point x="255" y="197"/>
      <point x="255" y="225" type="curve" smooth="yes"/>
      <point x="255" y="243"/>
      <point x="273" y="253"/>
      <point x="287" y="263" type="curve" smooth="yes"/>
      <point x="347" y="302"/>
      <point x="446" y="348"/>
    </contour>
  </outline>
</glyph>
<glyph name="dvDA" format="1">
  <advance width="535"/>
  <unicode hex="0926"/>
  <outline>
    <contour>
      <point x="419" y="-40" type="move" name="blwm.virama"/>
    </contour>
    <contour>
      <point x="435" y="635" type="move" name="abvm"/>
    </contour>
    <contour>
      <point x="395" y="-134" type="move" name="blwm.u"/>
    </contour>
    <contour>
      <point x="435" y="331" type="line"/>
      <point x="435" y="531" type="line"/>
      <point x="617" y="531" type="line"/>
      <point x="555" y="635" type="line"/>
      <point x="-82" y="635" type="line"/>
      <point x="-20" y="531" type="line"/>
      <point x="305" y="531" type="line"/>
      <point x="305" y="451" type="line"/>
      <point x="226" y="451" type="line" smooth="yes"/>
      <point x="99" y="451"/>
      <point x="48" y="382"/>
      <point x="48" y="292" type="curve" smooth="yes"/>
      <point x="48" y="223"/>
      <point x="84" y="154"/>
      <point x="137" y="102" type="curve" smooth="yes"/>
      <point x="189" y="51"/>
      <point x="256" y="18"/>
      <point x="320" y="18" type="curve" smooth="yes"/>
      <point x="346" y="18"/>
      <point x="372" y="25"/>
      <point x="395" y="36" type="curve"/>
      <point x="481" y="-97" type="line"/>
      <point x="556" y="-47" type="line"/>
      <point x="453" y="76" type="line"/>
      <point x="479" y="102"/>
      <point x="495" y="132"/>
      <point x="495" y="155" type="curve" smooth="yes"/>
      <point x="495" y="194"/>
      <point x="439" y="277"/>
      <point x="393" y="277" type="curve" smooth="yes"/>
      <point x="347" y="277"/>
      <point x="308" y="241"/>
      <point x="308" y="202" type="curve" smooth="yes"/>
      <point x="308" y="179"/>
      <point x="313" y="164"/>
      <point x="324" y="146" type="curve"/>
      <point x="324" y="146"/>
      <point x="301" y="129"/>
      <point x="272" y="129" type="curve" smooth="yes"/>
      <point x="205" y="129"/>
      <point x="161" y="172"/>
      <point x="161" y="239" type="curve" smooth="yes"/>
      <point x="161" y="299"/>
      <point x="196" y="331"/>
      <point x="276" y="331" type="curve"/>
    </contour>
  </outline>
</glyph>
<glyph name="dvDHA" format="1">
  <advance width="608"/>
  <unicode hex="0927"/>
  <outline>
    <contour>
      <point x="376" y="531" type="line"/>
      <point x="408" y="531" type="line"/>
      <point x="408" y="285" type="line"/>
      <point x="369" y="237"/>
      <point x="311" y="178"/>
      <point x="238" y="178" type="curve" smooth="yes"/>
      <point x="195" y="178"/>
      <point x="165" y="204"/>
      <point x="165" y="238" type="curve" smooth="yes"/>
      <point x="165" y="286"/>
      <point x="218" y="297"/>
      <point x="253" y="297" type="curve" smooth="yes"/>
      <point x="282" y="297"/>
      <point x="310" y="292"/>
      <point x="351" y="280" type="curve"/>
      <point x="312" y="408" type="line"/>
      <point x="284" y="412"/>
      <point x="247" y="417"/>
      <point x="218" y="417" type="curve" smooth="yes"/>
      <point x="210" y="417"/>
      <point x="198" y="417"/>
      <point x="193" y="416" type="curve"/>
      <point x="177" y="429"/>
      <point x="171" y="442"/>
      <point x="171" y="461" type="curve"/>
      <point x="171" y="485"/>
      <point x="189" y="522"/>
      <point x="216" y="531" type="curve"/>
      <point x="325" y="531" type="line"/>
      <point x="253" y="635" type="line"/>
      <point x="-92" y="635" type="line"/>
      <point x="-20" y="531" type="line"/>
      <point x="25" y="531" type="line"/>
      <point x="35" y="531"/>
      <point x="48" y="533"/>
      <point x="59" y="533" type="curve"/>
      <point x="52" y="523"/>
      <point x="47" y="499"/>
      <point x="47" y="487" type="curve" smooth="yes"/>
      <point x="47" y="441"/>
      <point x="82" y="416"/>
      <point x="116" y="394" type="curve"/>
      <point x="78" y="375"/>
      <point x="53" y="338"/>
      <point x="53" y="299" type="curve" smooth="yes"/>
      <point x="53" y="176"/>
      <point x="179" y="73"/>
      <point x="286" y="73" type="curve" smooth="yes"/>
      <point x="331" y="73"/>
      <point x="380" y="92"/>
      <point x="414" y="117" type="curve"/>
      <point x="409" y="36" type="line"/>
      <point x="538" y="-40" type="line"/>
      <point x="538" y="531" type="line"/>
      <point x="699" y="531" type="line"/>
      <point x="628" y="635" type="line"/>
      <point x="304" y="635" type="line"/>
    </contour>
  </outline>
</glyph>
<glyph name="dvNA" format="1">
  <advance width="546"/>
  <unicode hex="0928"/>
  <outline>
    <contour>
      <point x="476" y="-40" type="line"/>
      <point x="476" y="531" type="line"/>
      <point x="637" y="531" type="line"/>
      <point x="566" y="635" type="line"/>
      <point x="-92" y="635" type="line"/>
      <point x="-20" y="531" type="line"/>
      <point x="351" y="531" type="line"/>
      <point x="351" y="386" type="line"/>
      <point x="110" y="386" type="line" smooth="yes"/>
      <point x="62" y="386"/>
      <point x="34" y="371"/>
      <point x="34" y="327" type="curve" smooth="yes"/>
      <point x="34" y="270"/>
      <point x="121" y="156"/>
      <point x="173" y="156" type="curve" smooth="yes"/>
      <point x="197" y="156"/>
      <point x="209" y="174"/>
      <point x="209" y="196" type="curve" smooth="yes"/>
      <point x="209" y="272" type="line"/>
      <point x="351" y="272" type="line"/>
      <point x="351" y="34" type="line"/>
    </contour>
  </outline>
</glyph>
<glyph name="dvMA" format="1">
  <advance width="597"/>
  <unicode hex="092E"/>
  <outline>
    <contour>
      <point x="103" y="349" type="line"/>
      <point x="59" y="349"/>
      <point x="31" y="336"/>
      <point x="31" y="302" type="curve" smooth="yes"/>
      <point x="31" y="246"/>
      <point x="148" y="140"/>
      <point x="194" y="140" type="curve" smooth="yes"/>
      <point x="221" y="140"/>
      <point x="229" y="155"/>
      <point x="229" y="177" type="curve" smooth="yes"/>
      <point x="229" y="229" type="line"/>
      <point x="397" y="229" type="line"/>
      <point x="397" y="37" type="line"/>
      <point x="527" y="-40" type="line"/>
      <point x="527" y="531" type="line"/>
      <point x="685" y="531" type="line"/>
      <point x="617" y="635" type="line"/>
      <point x="-87" y="635" type="line"/>
      <point x="-20" y="531" type="line"/>
      <point x="104" y="531" type="line"/>
      <point x="104" y="349" type="line"/>
    </contour>
    <contour>
      <point x="229" y="531" type="line"/>
      <point x="397" y="531" type="line"/>
      <point x="397" y="349" type="line"/>
      <point x="229" y="349" type="line"/>
    </contour>
  </outline>
</glyph>
<glyph name="dvYA" format="1">
  <advance width="606"/>
  <unicode hex="092F"/>
  <outline>
    <contour>
      <point x="536" y="531" type="line"/>
      <point x="698" y="531" type="line"/>
      <point x="626" y="635" type="line"/>
      <point x="-92" y="635" type="line"/>
      <point x="-20" y="531" type="line"/>
      <point x="147" y="531" type="line"/>
      <point x="171" y="518"/>
      <point x="188" y="485"/>
      <point x="188" y="466" type="curve" smooth="yes"/>
      <point x="188" y="440"/>
      <point x="169" y="426"/>
      <point x="54" y="367" type="curve" smooth="yes"/>
      <point x="38" y="359"/>
      <point x="34" y="351"/>
      <point x="34" y="333" type="curve" smooth="yes"/>
      <point x="34" y="254"/>
      <point x="197" y="89"/>
      <point x="300" y="89" type="curve" smooth="yes"/>
      <point x="343" y="89"/>
      <point x="382" y="110"/>
      <point x="411" y="135" type="curve"/>
      <point x="406" y="37" type="line"/>
      <point x="536" y="-40" type="line"/>
    </contour>
    <contour>
      <point x="249" y="211" type="curve"/>
      <point x="214" y="211"/>
      <point x="176" y="229"/>
      <point x="176" y="260" type="curve" smooth="yes"/>
      <point x="176" y="270"/>
      <point x="182" y="275"/>
      <point x="208" y="291" type="curve"/>
      <point x="303" y="351"/>
      <point x="318" y="360"/>
      <point x="318" y="410" type="curve" smooth="yes"/>
      <point x="318" y="446"/>
      <point x="288" y="501"/>
      <point x="255" y="531" type="curve"/>
      <point x="407" y="531" type="line"/>
      <point x="407" y="318" type="line"/>
      <point x="373" y="263"/>
      <point x="327" y="211"/>
    </contour>
  </outline>
</glyph>
<glyph name="dvVA" format="1">
  <advance width="592"/>
  <unicode hex="0935"/>
  <outline>
    <contour>
      <point x="522" y="531" type="line"/>
      <point x="685" y="531" type="line"/>
      <point x="613" y="635" type="line"/>
      <point x="-92" y="635" type="line"/>
      <point x="-20" y="531" type="line"/>
      <point x="390" y="531" type="line"/>
      <point x="394" y="318" type="line"/>
      <point x="353" y="248"/>
      <point x="284" y="183"/>
      <point x="220" y="183" type="curve" smooth="yes"/>
      <point x="176" y="183"/>
      <point x="153" y="208"/>
      <point x="153" y="250" type="curve" smooth="yes"/>
      <point x="153" y="306"/>
      <point x="199" y="365"/>
      <point x="251" y="365" type="curve" smooth="yes"/>
      <point x="290" y="365"/>
      <point x="311" y="347"/>
      <point x="332" y="326" type="curve"/>
      <point x="366" y="383" type="line"/>
      <point x="329" y="430"/>
      <point x="274" y="482"/>
      <point x="194" y="482" type="curve" smooth="yes"/>
      <point x="121" y="482"/>
      <point x="40" y="422"/>
      <point x="40" y="316" type="curve" smooth="yes"/>
      <point x="40" y="192"/>
      <point x="172" y="71"/>
      <point x="265" y="71" type="curve" smooth="yes"/>
      <point x="320" y="71"/>
      <point x="367" y="102"/>
      <point x="395" y="128" type="curve"/>
      <point x="389" y="38" type="line"/>
      <point x="522" y="-40" type="line"/>
    </contour>
  </outline>
</glyph>
<glyph name="dvHA" format="1">
  <advance width="514"/>
  <unicode hex="0939"/>
  <outline>
    <contour>
      <point x="404" y="-221" type="move" name="blwm.virama"/>
    </contour>
    <contour>
      <point x="439" y="635" type="move" name="abvm"/>
    </contour>
    <contour>
      <point x="404" y="-323" type="move" name="blwm.u"/>
    </contour>
    <contour>
      <point x="374" y="-33" type="line"/>
      <point x="448" y="1"/>
      <point x="474" y="52"/>
      <point x="474" y="100" type="curve" smooth="yes"/>
      <point x="474" y="191"/>
      <point x="390" y="299"/>
      <point x="271" y="299" type="curve" smooth="yes"/>
      <point x="245" y="299"/>
      <point x="218" y="293"/>
      <point x="191" y="282" type="curve"/>
      <point x="180" y="294"/>
      <point x="172" y="307"/>
      <point x="172" y="319" type="curve" smooth="yes"/>
      <point x="172" y="346"/>
      <point x="190" y="362"/>
      <point x="227" y="362" type="curve" smooth="yes"/>
      <point x="439" y="362" type="line"/>
      <point x="439" y="531" type="line"/>
      <point x="606" y="531" type="line"/>
      <point x="534" y="635" type="line"/>
      <point x="-77" y="635" type="line"/>
      <point x="-5" y="531" type="line"/>
      <point x="313" y="531" type="line"/>
      <point x="313" y="475" type="line"/>
      <point x="171" y="475" type="line" smooth="yes"/>
      <point x="95" y="475"/>
      <point x="51" y="442"/>
      <point x="51" y="376" type="curve" smooth="yes"/>
      <point x="51" y="336"/>
      <point x="73" y="290"/>
      <point x="125" y="239" type="curve"/>
      <point x="92" y="208"/>
      <point x="69" y="166"/>
      <point x="69" y="115" type="curve" smooth="yes"/>
      <point x="69" y="-25"/>
      <point x="281" y="-160"/>
      <point x="346" y="-198" type="curve"/>
      <point x="416" y="-146" type="line"/>
      <point x="352" y="-117"/>
      <point x="192" y="-32"/>
      <point x="192" y="73" type="curve" smooth="yes"/>
      <point x="192" y="144"/>
      <point x="269" y="188"/>
      <point x="325" y="188" type="curve" smooth="yes"/>
      <point x="354" y="188"/>
      <point x="370" y="179"/>
      <point x="370" y="161" type="curve" smooth="yes"/>
      <point x="370" y="135"/>
      <point x="344" y="92"/>
      <point x="280" y="67" type="curve"/>
    </contour>
  </outline>
</glyph>
<glyph name="dvNukta" format="1">
  <advance width="0"/>
  <unicode hex="093C"/>
  <outline>
    <contour>
      <point x="-501" y="-62" type="line"/>
      <point x="-407" y="-153" type="line"/>
      <point x="-316" y="-62" type="line"/>
      <point x="-410" y="31" type="line"/>
    </contour>
  </outline>
</glyph>
<glyph name="dvAvagraha" format="1">
  <advance width="608"/>
  <unicode hex="093D"/>
  <outline>
    <contour>
      <point x="302" y="409" type="line"/>
      <point x="255" y="452"/>
      <point x="248" y="467"/>
      <point x="248" y="486" type="curve" smooth="yes"/>
      <point x="248" y="511"/>
      <point x="267" y="528"/>
      <point x="295" y="528" type="curve" smooth="yes"/>
      <point x="509" y="531" type="line"/>
      <point x="457" y="635" type="line"/>
      <point x="234" y="635" type="line" smooth="yes"/>
      <point x="160" y="635"/>
      <point x="106" y="592"/>
      <point x="106" y="535" type="curve" smooth="yes"/>
      <point x="106" y="507"/>
      <point x="110" y="467"/>
      <point x="176" y="406" type="curve" smooth="yes"/>
      <point x="321" y="272" type="line" smooth="yes"/>
      <point x="372" y="227"/>
      <point x="382" y="193"/>
      <point x="382" y="166" type="curve" smooth="yes"/>
      <point x="382" y="128"/>
      <point x="358" y="71"/>
      <point x="274" y="71" type="curve" smooth="yes"/>
      <point x="195" y="71"/>
      <point x="141" y="120"/>
      <point x="101" y="181" type="curve"/>
      <point x="41" y="124" type="line"/>
      <point x="84" y="54"/>
      <point x="191" y="-48"/>
      <point x="320" y="-48" type="curve" smooth="yes"/>
      <point x="438" y="-48"/>
      <point x="510" y="47"/>
      <point x="510" y="142" type="curve" smooth="yes"/>
      <point x="510" y="210"/>
      <point x="460" y="270"/>
      <point x="420" y="305" type="curve" smooth="yes"/>
    </contour>
  </outline>
</glyph>
<glyph name="dvmAA" format="1">
  <advance width="270"/>
  <unicode hex="093E"/>
  <outline>
    <contour>
      <point x="200" y="531" type="line"/>
      <point x="343" y="531" type="line"/>
      <point x="290" y="635" type="line"/>
      <point x="-77" y="635" type="line"/>
      <point x="-24" y="531" type="line"/>
      <point x="70" y="531" type="line"/>
      <point x="70" y="37" type="line"/>
      <point x="200" y="-40" type="line"/>
    </contour>
  </outline>
</glyph>
<glyph name="dvmvR" format="1">
  <advance width="0"/>
  <unicode hex="0943"/>
  <outline>
    <contour>
      <point x="-70" y="-40" type="move" name="_blwm.u"/>
    </contour>
    <contour>
      <point x="-70" y="-36" type="line"/>
      <point x="-198" y="38" type="line"/>
      <point x="-266" y="1"/>
      <point x="-324" y="-45"/>
      <point x="-324" y="-111" type="curve" smooth="yes"/>
      <point x="-324" y="-192"/>
      <point x="-205" y="-307"/>
      <point x="-97" y="-307" type="curve" smooth="yes"/>
      <point x="-18" y="-307"/>
      <point x="46" y="-253"/>
      <point x="70" y="-222" type="curve"/>
      <point x="-24" y="-143" type="line"/>
      <point x="-47" y="-173"/>
      <point x="-93" y="-204"/>
      <point x="-148" y="-204" type="curve" smooth="yes"/>
      <point x="-183" y="-204"/>
      <point x="-214" y="-182"/>
      <point x="-214" y="-153" type="curve" smooth="yes"/>
      <point x="-214" y="-96"/>
      <point x="-146" y="-71"/>
      <point x="-70" y="-40" type="curve"/>
    </contour>
  </outline>
</glyph>
<glyph name="dvmAI" format="1">
  <advance width="0"/>
  <unicode hex="0948"/>
  <outline>
    <contour>
      <point x="-70" y="635" type="move" name="_abvm"/>
    </contour>
    <contour>
      <point x="-335" y="826" type="line"/>
      <point x="-323" y="831"/>
      <point x="-311" y="833"/>
      <point x="-301" y="833" type="curve" smooth="yes"/>
      <point x="-215" y="833"/>
      <point x="-154" y="662"/>
      <point x="-145" y="635" type="curve"/>
      <point x="-201" y="721"/>
      <point x="-288" y="798"/>
      <point x="-370" y="798" type="curve" smooth="yes"/>
      <point x="-400" y="798"/>
      <point x="-433" y="791"/>
      <point x="-462" y="769" type="curve"/>
      <point x="-380" y="666" type="line"/>
      <point x="-357" y="679"/>
      <point x="-331" y="685"/>
      <point x="-313" y="685" type="curve" smooth="yes"/>
      <point x="-223" y="685"/>
      <point x="-157" y="566"/>
      <point x="-157" y="566" type="curve"/>
      <point x="-84" y="577" type="line"/>
      <point x="-103" y="717"/>
      <point x="-163" y="944"/>
      <point x="-309" y="944" type="curve" smooth="yes"/>
      <point x="-332" y="944"/>
      <point x="-360" y="941"/>
      <point x="-385" y="929" type="curve"/>
    </contour>
  </outline>
</glyph>
<glyph name="dvvRR" format="1">
  <advance width="1010"/>
  <unicode hex="0960"/>
  <outline>
    <contour>
      <point x="846" y="287" type="line"/>
      <point x="864" y="304"/>
      <point x="872" y="321"/>
      <point x="872" y="344" type="curve" smooth="yes"/>
      <point x="872" y="403"/>
      <point x="814" y="467"/>
      <point x="771" y="467" type="curve" smooth="yes"/>
      <point x="737" y="467"/>
      <point x="707" y="438"/>
      <point x="707" y="406" type="curve" smooth="yes"/>
      <point x="707" y="388"/>
      <point x="715" y="370"/>
      <point x="724" y="354" type="curve"/>
      <point x="724" y="354"/>
      <point x="698" y="327"/>
      <point x="638" y="327" type="curve" smooth="yes"/>
      <point x="628" y="327"/>
      <point x="587" y="329"/>
      <point x="577" y="332" type="curve"/>
      <point x="577" y="531" type="line"/>
      <point x="1109" y="531" type="line"/>
      <point x="1037" y="635" type="line"/>
      <point x="-92" y="635" type="line"/>
      <point x="-20" y="531" type="line"/>
      <point x="452" y="531" type="line"/>
      <point x="452" y="319" type="line"/>
      <point x="346" y="442"/>
      <point x="274" y="464"/>
      <point x="201" y="464" type="curve" smooth="yes"/>
      <point x="145" y="464"/>
      <point x="97" y="446"/>
      <point x="36" y="397" type="curve"/>
      <point x="126" y="293" type="line"/>
      <point x="180" y="339"/>
      <point x="229" y="357"/>
      <point x="272" y="357" type="curve" smooth="yes"/>
      <point x="318" y="357"/>
      <point x="365" y="331"/>
      <point x="392" y="294" type="curve"/>
      <point x="120" y="73" type="line"/>
      <point x="217" y="-4" type="line"/>
      <point x="452" y="195" type="line"/>
      <point x="452" y="31" type="line"/>
      <point x="577" y="-40" type="line"/>
      <point x="577" y="253" type="line"/>
      <point x="612" y="240"/>
      <point x="655" y="233"/>
      <point x="696" y="233" type="curve" smooth="yes"/>
      <point x="726" y="233"/>
      <point x="756" y="237"/>
      <point x="781" y="246" type="curve"/>
      <point x="802" y="218" type="line"/>
      <point x="737" y="180"/>
      <point x="660" y="135"/>
      <point x="660" y="69" type="curve" smooth="yes"/>
      <point x="660" y="16"/>
      <point x="701" y="-52"/>
      <point x="767" y="-92" type="curve"/>
      <point x="753" y="-112"/>
      <point x="744" y="-135"/>
      <point x="744" y="-161" type="curve" smooth="yes"/>
      <point x="744" y="-242"/>
      <point x="863" y="-357"/>
      <point x="971" y="-357" type="curve" smooth="yes"/>
      <point x="1050" y="-357"/>
      <point x="1114" y="-303"/>
      <point x="1138" y="-272" type="curve"/>
      <point x="1044" y="-193" type="line"/>
      <point x="1021" y="-223"/>
      <point x="975" y="-254"/>
      <point x="920" y="-254" type="curve" smooth="yes"/>
      <point x="885" y="-254"/>
      <point x="854" y="-232"/>
      <point x="854" y="-203" type="curve" smooth="yes"/>
      <point x="854" y="-136"/>
      <point x="935" y="-125"/>
      <point x="977" y="-98" type="curve"/>
      <point x="997" y="-85" type="line"/>
      <point x="1018" y="-70"/>
      <point x="1034" y="-54"/>
      <point x="1044" y="-42" type="curve"/>
      <point x="950" y="37" type="line"/>
      <point x="919" y="-1"/>
      <point x="873" y="-24"/>
      <point x="826" y="-24" type="curve" smooth="yes"/>
      <point x="791" y="-24"/>
      <point x="770" y="-2"/>
      <point x="770" y="27" type="curve" smooth="yes"/>
      <point x="770" y="84"/>
      <point x="869" y="126"/>
      <point x="945" y="157" type="curve"/>
    </contour>
  </outline>
</glyph>
<glyph name="dvvLL" format="1">
  <advance width="759"/>
  <unicode hex="0961"/>
  <outline>
    <contour>
      <point x="782" y="-165" type="line"/>
      <point x="803" y="-150"/>
      <point x="819" y="-134"/>
      <point x="829" y="-122" type="curve"/>
      <point x="735" y="-43" type="line"/>
      <point x="704" y="-81"/>
      <point x="658" y="-104"/>
      <point x="611" y="-104" type="curve" smooth="yes"/>
      <point x="576" y="-104"/>
      <point x="545" y="-82"/>
      <point x="545" y="-53" type="curve" smooth="yes"/>
      <point x="545" y="4"/>
      <point x="613" y="29"/>
      <point x="689" y="60" type="curve"/>
      <point x="689" y="531" type="line"/>
      <point x="851" y="531" type="line"/>
      <point x="779" y="635" type="line"/>
      <point x="-92" y="635" type="line"/>
      <point x="-20" y="531" type="line"/>
      <point x="559" y="531" type="line"/>
      <point x="559" y="421" type="line"/>
      <point x="528" y="442"/>
      <point x="494" y="456"/>
      <point x="463" y="456" type="curve" smooth="yes"/>
      <point x="412" y="456"/>
      <point x="371" y="434"/>
      <point x="344" y="400" type="curve"/>
      <point x="310" y="433"/>
      <point x="264" y="458"/>
      <point x="210" y="458" type="curve" smooth="yes"/>
      <point x="110" y="458"/>
      <point x="43" y="383"/>
      <point x="43" y="285" type="curve" smooth="yes"/>
      <point x="43" y="155"/>
      <point x="175" y="35"/>
      <point x="262" y="-40" type="curve"/>
      <point x="326" y="6" type="line"/>
      <point x="256" y="63"/>
      <point x="167" y="140"/>
      <point x="167" y="237" type="curve" smooth="yes"/>
      <point x="167" y="302"/>
      <point x="208" y="342"/>
      <point x="258" y="342" type="curve" smooth="yes"/>
      <point x="280" y="342"/>
      <point x="297" y="337"/>
      <point x="310" y="330" type="curve"/>
      <point x="305" y="313"/>
      <point x="303" y="294"/>
      <point x="303" y="276" type="curve" smooth="yes"/>
      <point x="303" y="240"/>
      <point x="312" y="202"/>
      <point x="334" y="164" type="curve"/>
      <point x="451" y="123" type="line"/>
      <point x="436" y="156"/>
      <point x="427" y="194"/>
      <point x="427" y="230" type="curve" smooth="yes"/>
      <point x="427" y="291"/>
      <point x="451" y="345"/>
      <point x="518" y="345" type="curve" smooth="yes"/>
      <point x="533" y="345"/>
      <point x="547" y="343"/>
      <point x="559" y="338" type="curve"/>
      <point x="559" y="137" type="line"/>
      <point x="492" y="100"/>
      <point x="435" y="55"/>
      <point x="435" y="-11" type="curve" smooth="yes"/>
      <point x="435" y="-64"/>
      <point x="486" y="-132"/>
      <point x="552" y="-172" type="curve"/>
      <point x="538" y="-192"/>
      <point x="529" y="-215"/>
      <point x="529" y="-241" type="curve" smooth="yes"/>
      <point x="529" y="-322"/>
      <point x="648" y="-437"/>
      <point x="756" y="-437" type="curve" smooth="yes"/>
      <point x="835" y="-437"/>
      <point x="899" y="-383"/>
      <point x="923" y="-352" type="curve"/>
      <point x="829" y="-273" type="line"/>
      <point x="806" y="-303"/>
      <point x="760" y="-334"/>
      <point x="705" y="-334" type="curve" smooth="yes"/>
      <point x="670" y="-334"/>
      <point x="639" y="-312"/>
      <point x="639" y="-283" type="curve" smooth="yes"/>
      <point x="639" y="-216"/>
      <point x="720" y="-205"/>
      <point x="762" y="-178" type="curve"/>
    </contour>
  </outline>
</glyph>
<glyph name="danda" format="1">
  <advance width="370"/>
  <unicode hex="0964"/>
  <outline>
    <contour>
      <point x="250" y="558" type="line"/>
      <point x="120" y="635" type="line"/>
      <point x="120" y="37" type="line"/>
      <point x="250" y="-40" type="line"/>
    </contour>
  </outline>
</glyph>
<glyph name="dvTwo" format="1">
  <advance width="525"/>
  <unicode hex="0968"/>
  <outline>
    <contour>
      <point x="113" y="456" type="line"/>
      <point x="164" y="489"/>
      <point x="215" y="512"/>
      <point x="278" y="512" type="curve" smooth="yes"/>
      <point x="335" y="512"/>
      <point x="388" y="475"/>
      <point x="388" y="412" type="curve" smooth="yes"/>
      <point x="388" y="321"/>
      <point x="294" y="271"/>
      <point x="230" y="256" type="curve"/>
      <point x="207" y="296"/>
      <point x="182" y="322"/>
      <point x="156" y="322" type="curve" smooth="yes"/>
      <point x="126" y="322"/>
      <point x="69" y="295"/>
      <point x="69" y="257" type="curve" smooth="yes"/>
      <point x="69" y="204"/>
      <point x="127" y="128"/>
      <point x="170" y="128" type="curve" smooth="yes"/>
      <point x="182" y="128"/>
      <point x="194" y="128"/>
      <point x="206" y="130" type="curve"/>
      <point x="376" y="-158" type="line"/>
      <point x="461" y="-105" type="line"/>
      <point x="289" y="149" type="line"/>
      <point x="390" y="185"/>
      <point x="476" y="262"/>
      <point x="476" y="353" type="curve" smooth="yes"/>
      <point x="476" y="480"/>
      <point x="359" y="632"/>
      <point x="254" y="632" type="curve" smooth="yes"/>
      <point x="174" y="632"/>
      <point x="96" y="595"/>
      <point x="46" y="568" type="curve"/>
    </contour>
  </outline>
</glyph>
<glyph name="dvFour" format="1">
  <advance width="621"/>
  <unicode hex="096A"/>
  <outline>
    <contour>
      <point x="291" y="409" type="line"/>
      <point x="74" y="640" type="line"/>
      <point x="16" y="592" type="line"/>
      <point x="242" y="353" type="line"/>
      <point x="177" y="279" type="line" smooth="yes"/>
      <point x="145" y="243"/>
      <point x="128" y="211"/>
      <point x="128" y="171" type="curve" smooth="yes"/>
      <point x="128" y="87"/>
      <point x="243" y="-48"/>
      <point x="345" y="-48" type="curve" smooth="yes"/>
      <point x="440" y="-48"/>
      <point x="504" y="26"/>
      <point x="504" y="97" type="curve"/>
      <point x="504" y="166"/>
      <point x="454" y="236"/>
      <point x="405" y="288" type="curve" smooth="yes"/>
      <point x="377" y="317" type="line"/>
      <point x="582" y="556" type="line"/>
      <point x="488" y="632" type="line"/>
    </contour>
    <contour>
      <point x="227" y="109" type="curve"/>
      <point x="227" y="141"/>
      <point x="256" y="174"/>
      <point x="269" y="190" type="curve"/>
      <point x="329" y="261" type="line" smooth="yes"/>
      <point x="364" y="223"/>
      <point x="396" y="186"/>
      <point x="396" y="147" type="curve" smooth="yes"/>
      <point x="396" y="86"/>
      <point x="342" y="42"/>
      <point x="292" y="42" type="curve" smooth="yes"/>
      <point x="249" y="42"/>
      <point x="227" y="68"/>
    </contour>
  </outline>
</glyph>
<glyph name="dvFive" format="1">
  <advance width="620"/>
  <unicode hex="096B"/>
  <outline>
    <contour>
      <point x="333" y="-48" type="curve" smooth="yes"/>
      <point x="605" y="-48"/>
      <point x="548" y="395"/>
      <point x="521" y="568" type="curve"/>
      <point x="395" y="624" type="line"/>
      <point x="409" y="552"/>
      <point x="420" y="482"/>
      <point x="427" y="408" type="curve"/>
      <point x="404" y="376"/>
      <point x="355" y="327"/>
      <point x="300" y="327" type="curve" smooth="yes"/>
      <point x="255" y="327"/>
      <point x="211" y="358"/>
      <point x="211" y="421" type="curve" smooth="yes"/>
      <point x="211" y="477"/>
      <point x="232" y="521"/>
      <point x="259" y="567" type="curve"/>
      <point x="136" y="632" type="line"/>
      <point x="108" y="566"/>
      <point x="99" y="526"/>
      <point x="99" y="474" type="curve" smooth="yes"/>
      <point x="99" y="347"/>
      <point x="263" y="235"/>
      <point x="351" y="235" type="curve" smooth="yes"/>
      <point x="395" y="235"/>
      <point x="420" y="254"/>
      <point x="445" y="276" type="curve"/>
      <point x="445" y="158"/>
      <point x="417" y="48"/>
      <point x="305" y="48" type="curve" smooth="yes"/>
      <point x="287" y="48"/>
      <point x="272" y="53"/>
      <point x="262" y="60" type="curve"/>
      <point x="217" y="132"/>
      <point x="176" y="178"/>
      <point x="141" y="178" type="curve" smooth="yes"/>
      <point x="110" y="178"/>
      <point x="79" y="143"/>
      <point x="79" y="114" type="curve" smooth="yes"/>
      <point x="79" y="61"/>
      <point x="147" y="13"/>
      <point x="227" y="-20" type="curve"/>
      <point x="346" y="-237" type="line"/>
      <point x="417" y="-192" type="line"/>
      <point x="315" y="-47" type="line"/>
      <point x="323" y="-48"/>
      <point x="326" y="-48"/>
    </contour>
  </outline>
</glyph>
<glyph name="dvSix" format="1">
  <advance width="598"/>
  <unicode hex="096C"/>
  <outline>
    <contour>
      <point x="441" y="265" type="line"/>
      <point x="397" y="373" type="line"/>
      <point x="326" y="388"/>
      <point x="263" y="387"/>
      <point x="213" y="371" type="curve"/>
      <point x="199" y="388"/>
      <point x="190" y="409"/>
      <point x="190" y="436" type="curve" smooth="yes"/>
      <point x="190" y="530"/>
      <point x="283" y="558"/>
      <point x="431" y="498" type="curve"/>
      <point x="434" y="501" type="line"/>
      <point x="403" y="612" type="line"/>
      <point x="225" y="675"/>
      <point x="80" y="604"/>
      <point x="80" y="488" type="curve" smooth="yes"/>
      <point x="80" y="423"/>
      <point x="117" y="374"/>
      <point x="153" y="342" type="curve"/>
      <point x="116" y="314"/>
      <point x="94" y="273"/>
      <point x="94" y="220" type="curve" smooth="yes"/>
      <point x="94" y="105"/>
      <point x="222" y="-48"/>
      <point x="379" y="-48" type="curve" smooth="yes"/>
      <point x="407" y="-48"/>
      <point x="433" y="-42"/>
      <point x="455" y="-32" type="curve"/>
      <point x="543" y="-179" type="line"/>
      <point x="622" y="-129" type="line"/>
      <point x="515" y="19" type="line"/>
      <point x="526" y="36"/>
      <point x="532" y="53"/>
      <point x="532" y="70" type="curve" smooth="yes"/>
      <point x="532" y="110"/>
      <point x="485" y="191"/>
      <point x="442" y="191" type="curve" smooth="yes"/>
      <point x="408" y="191"/>
      <point x="371" y="166"/>
      <point x="371" y="133" type="curve" smooth="yes"/>
      <point x="371" y="114"/>
      <point x="378" y="97"/>
      <point x="390" y="75" type="curve"/>
      <point x="377" y="60"/>
      <point x="353" y="45"/>
      <point x="314" y="45" type="curve" smooth="yes"/>
      <point x="255" y="45"/>
      <point x="201" y="96"/>
      <point x="201" y="155" type="curve" smooth="yes"/>
      <point x="201" y="259"/>
      <point x="287" y="292"/>
      <point x="438" y="261" type="curve"/>
    </contour>
  </outline>
</glyph>
<glyph name="dvSeven" format="1">
  <advance width="800"/>
  <unicode hex="096D"/>
  <outline>
    <contour>
      <point x="596" y="252" type="line"/>
      <point x="532" y="243"/>
      <point x="437" y="265"/>
      <point x="437" y="350" type="curve" smooth="yes"/>
      <point x="437" y="421"/>
      <point x="490" y="450"/>
      <point x="532" y="450" type="curve" smooth="yes"/>
      <point x="599" y="450"/>
      <point x="662" y="393"/>
      <point x="662" y="292" type="curve" smooth="yes"/>
      <point x="662" y="180"/>
      <point x="595" y="68"/>
      <point x="441" y="68" type="curve" smooth="yes"/>
      <point x="225" y="68"/>
      <point x="131" y="354"/>
      <point x="107" y="636" type="curve"/>
      <point x="27" y="599" type="line"/>
      <point x="50" y="337"/>
      <point x="162" y="-48"/>
      <point x="478" y="-48" type="curve" smooth="yes"/>
      <point x="661" y="-48"/>
      <point x="763" y="102"/>
      <point x="763" y="228" type="curve" smooth="yes"/>
      <point x="763" y="384"/>
      <point x="619" y="564"/>
      <point x="481" y="564" type="curve" smooth="yes"/>
      <point x="389" y="564"/>
      <point x="320" y="491"/>
      <point x="320" y="400" type="curve" smooth="yes"/>
      <point x="320" y="258"/>
      <point x="456" y="173"/>
      <point x="551" y="179" type="curve"/>
      <point x="597" y="251" type="line"/>
    </contour>
  </outline>
</glyph>
<glyph name="dvEight" format="1">
  <advance width="549"/>
  <unicode hex="096E"/>
  <outline>
    <contour>
      <point x="418" y="206" type="line"/>
      <point x="389" y="129"/>
      <point x="330" y="57"/>
      <point x="257" y="57" type="curve" smooth="yes"/>
      <point x="209" y="57"/>
      <point x="164" y="92"/>
      <point x="164" y="136" type="curve" smooth="yes"/>
      <point x="164" y="165"/>
      <point x="174" y="195"/>
      <point x="209" y="240" type="curve" smooth="yes"/>
      <point x="463" y="569" type="line"/>
      <point x="351" y="636" type="line"/>
      <point x="73" y="295" type="line"/>
      <point x="46" y="262"/>
      <point x="36" y="226"/>
      <point x="36" y="193" type="curve" smooth="yes"/>
      <point x="36" y="79"/>
      <point x="185" y="-55"/>
      <point x="302" y="-55" type="curve" smooth="yes"/>
      <point x="432" y="-55"/>
      <point x="494" y="45"/>
      <point x="528" y="131" type="curve"/>
      <point x="422" y="207" type="line"/>
    </contour>
  </outline>
</glyph>
<glyph name="dvNine" format="1">
  <advance width="483"/>
  <unicode hex="096F"/>
  <outline>
    <contour>
      <point x="286" y="-9" type="line"/>
      <point x="300" y="-29"/>
      <point x="309" y="-48"/>
      <point x="309" y="-65" type="curve" smooth="yes"/>
      <point x="309" y="-88"/>
      <point x="294" y="-108"/>
      <point x="260" y="-123" type="curve"/>
      <point x="364" y="-207" type="line"/>
      <point x="400" y="-189"/>
      <point x="432" y="-163"/>
      <point x="432" y="-125" type="curve" smooth="yes"/>
      <point x="432" y="-105"/>
      <point x="426" y="-84"/>
      <point x="406" y="-55" type="curve" smooth="yes"/>
      <point x="226" y="207" type="line"/>
      <point x="346" y="231"/>
      <point x="444" y="302"/>
      <point x="444" y="419" type="curve" smooth="yes"/>
      <point x="444" y="501"/>
      <point x="345" y="641"/>
      <point x="208" y="641" type="curve" smooth="yes"/>
      <point x="116" y="641"/>
      <point x="17" y="553"/>
      <point x="17" y="447" type="curve" smooth="yes"/>
      <point x="17" y="399"/>
      <point x="32" y="350"/>
      <point x="68" y="300" type="curve"/>
    </contour>
    <contour>
      <point x="163" y="308" type="curve"/>
      <point x="145" y="327"/>
      <point x="134" y="358"/>
      <point x="134" y="393" type="curve" smooth="yes"/>
      <point x="134" y="488"/>
      <point x="205" y="535"/>
      <point x="269" y="535" type="curve" smooth="yes"/>
      <point x="320" y="535"/>
      <point x="347" y="510"/>
      <point x="347" y="470" type="curve" smooth="yes"/>
      <point x="347" y="369"/>
      <point x="227" y="318"/>
    </contour>
  </outline>
</glyph>
<glyph name="dvAbbreviationsign" format="1">
  <advance width="509"/>
  <unicode hex="0970"/>
  <outline>
    <contour>
      <point x="243" y="405" type="curve"/>
      <point x="153" y="403"/>
      <point x="94" y="336"/>
      <point x="94" y="261" type="curve" smooth="yes"/>
      <point x="94" y="170"/>
      <point x="174" y="97"/>
      <point x="265" y="97" type="curve"/>
      <point x="357" y="101"/>
      <point x="415" y="167"/>
      <point x="415" y="242" type="curve" smooth="yes"/>
      <point x="415" y="332"/>
      <point x="337" y="405"/>
    </contour>
    <contour>
      <point x="223" y="173" type="curve" smooth="yes"/>
      <point x="197" y="173"/>
      <point x="179" y="191"/>
      <point x="179" y="220" type="curve" smooth="yes"/>
      <point x="179" y="280"/>
      <point x="240" y="329"/>
      <point x="286" y="329" type="curve" smooth="yes"/>
      <point x="312" y="329"/>
      <point x="329" y="311"/>
      <point x="329" y="282" type="curve" smooth="yes"/>
      <point x="329" y="222"/>
      <point x="268" y="173"/>
    </contour>
  </outline>
</glyph>
<glyph name="zerowidthjoiner" format="1">
  <advance width="0"/>
  <unicode hex="200D"/>
  <outline>
    <contour>
      <point x="129" y="553" type="line"/>
      <point x="33" y="648" type="line"/>
      <point x="129" y="744" type="line"/>
      <point x="97" y="776" type="line"/>
      <point x="1" y="681" type="line"/>
      <point x="-94" y="776" type="line"/>
      <point x="-127" y="743" type="line"/>
      <point x="-32" y="648" type="line"/>
      <point x="-125" y="555" type="line"/>
      <point x="-92" y="522" type="line"/>
      <point x="-23" y="595" type="line"/>
      <point x="-23" y="-270" type="line"/>
      <point x="24" y="-270" type="line"/>
      <point x="24" y="595" type="line"/>
      <point x="96" y="520" type="line"/>
    </contour>
  </outline>
</glyph>
<glyph name="perthousand" format="1">
  <advance width="1205"/>
  <unicode hex="2030"/>
  <outline>
    <contour>
      <point x="391" y="493" type="curve" smooth="yes"/>
      <point x="391" y="381"/>
      <point x="296" y="325"/>
      <point x="210" y="325" type="curve" smooth="yes"/>
      <point x="124" y="325"/>
      <point x="30" y="381"/>
      <point x="30" y="493" type="curve" smooth="yes"/>
      <point x="30" y="605"/>
      <point x="124" y="663"/>
      <point x="210" y="663" type="curve" smooth="yes"/>
      <point x="296" y="663"/>
      <point x="391" y="605"/>
    </contour>
    <contour>
      <point x="172" y="493" type="curve" smooth="yes"/>
      <point x="173" y="415"/>
      <point x="175" y="376"/>
      <point x="212" y="376" type="curve" smooth="yes"/>
      <point x="248" y="376"/>
      <point x="250" y="414"/>
      <point x="249" y="493" type="curve" smooth="yes"/>
      <point x="247" y="575"/>
      <point x="245" y="611"/>
      <point x="208" y="611" type="curve" smooth="yes"/>
      <point x="173" y="611"/>
      <point x="170" y="574"/>
    </contour>
    <contour>
      <point x="668" y="650" type="line"/>
      <point x="231" y="0" type="line"/>
      <point x="147" y="0" type="line"/>
      <point x="584" y="650" type="line"/>
    </contour>
    <contour>
      <point x="785" y="154" type="curve" smooth="yes"/>
      <point x="785" y="42"/>
      <point x="710" y="-14"/>
      <point x="604" y="-14" type="curve" smooth="yes"/>
      <point x="498" y="-14"/>
      <point x="424" y="42"/>
      <point x="424" y="154" type="curve" smooth="yes"/>
      <point x="424" y="265"/>
      <point x="498" y="324"/>
      <point x="604" y="324" type="curve" smooth="yes"/>
      <point x="710" y="324"/>
      <point x="785" y="265"/>
    </contour>
    <contour>
      <point x="566" y="154" type="curve" smooth="yes"/>
      <point x="567" y="76"/>
      <point x="569" y="37"/>
      <point x="606" y="37" type="curve" smooth="yes"/>
      <point x="642" y="37"/>
      <point x="644" y="75"/>
      <point x="643" y="154" type="curve" smooth="yes"/>
      <point x="641" y="236"/>
      <point x="639" y="272"/>
      <point x="602" y="272" type="curve" smooth="yes"/>
      <point x="567" y="272"/>
      <point x="564" y="235"/>
    </contour>
    <contour>
      <point x="1175" y="154" type="curve" smooth="yes"/>
      <point x="1175" y="42"/>
      <point x="1100" y="-14"/>
      <point x="994" y="-14" type="curve" smooth="yes"/>
      <point x="888" y="-14"/>
      <point x="814" y="42"/>
      <point x="814" y="154" type="curve" smooth="yes"/>
      <point x="814" y="265"/>
      <point x="888" y="324"/>
      <point x="994" y="324" type="curve" smooth="yes"/>
      <point x="1100" y="324"/>
      <point x="1175" y="265"/>
    </contour>
    <contour>
      <point x="956" y="154" type="curve" smooth="yes"/>
      <point x="957" y="76"/>
      <point x="959" y="37"/>
      <point x="996" y="37" type="curve" smooth="yes"/>
      <point x="1032" y="37"/>
      <point x="1034" y="75"/>
      <point x="1033" y="154" type="curve" smooth="yes"/>
      <point x="1031" y="236"/>
      <point x="1029" y="272"/>
      <point x="992" y="272" type="curve" smooth="yes"/>
      <point x="957" y="272"/>
      <point x="954" y="235"/>
    </contour>
  </outline>
</glyph>
<glyph name="guilsinglleft" format="1">
  <advance width="500"/>
  <unicode hex="2039"/>
  <outline>
    <contour>
      <point x="122" y="306" type="line"/>
      <point x="307" y="96" type="line"/>
      <point x="362" y="126" type="line"/>
      <point x="248" y="306" type="line"/>
      <point x="362" y="486" type="line"/>
      <point x="307" y="514" type="line"/>
    </contour>
  </outline>
</glyph>
<glyph name="fraction" format="1">
  <advance width="501"/>
  <unicode hex="2044"/>
  <outline>
    <contour>
      <point x="430" y="689" type="line"/>
      <point x="10" y="-37" type="line"/>
      <point x="71" y="-37" type="line"/>
      <point x="491" y="689" type="line"/>
    </contour>
  </outline>
</glyph>
<glyph name="indianrupee" format="1">
  <advance width="578"/>
  <unicode hex="20A8"/>
  <outline>
    <contour>
      <point x="537" y="634" type="line"/>
      <point x="69" y="634" type="line"/>
      <point x="69" y="528" type="line"/>
      <point x="291" y="531" type="line"/>
      <point x="291" y="454" type="line"/>
      <point x="70" y="457" type="line"/>
      <point x="70" y="352" type="line"/>
      <point x="291" y="355" type="line"/>
      <point x="291" y="347" type="line" smooth="yes"/>
      <point x="291" y="294"/>
      <point x="252" y="258"/>
      <point x="195" y="258" type="curve" smooth="yes"/>
      <point x="166" y="258"/>
      <point x="132" y="274"/>
      <point x="111" y="295" type="curve"/>
      <point x="59" y="244" type="line"/>
      <point x="133" y="132"/>
      <point x="229" y="19"/>
      <point x="330" y="-103" type="curve"/>
      <point x="425" y="-48" type="line"/>
      <point x="340" y="39"/>
      <point x="278" y="106"/>
      <point x="250" y="148" type="curve"/>
      <point x="276" y="151"/>
      <point x="302" y="157"/>
      <point x="326" y="168" type="curve" smooth="yes"/>
      <point x="378" y="192"/>
      <point x="418" y="240"/>
      <point x="418" y="331" type="curve" smooth="yes"/>
      <point x="418" y="355" type="line"/>
      <point x="590" y="352" type="line"/>
      <point x="541" y="457" type="line"/>
      <point x="418" y="454" type="line"/>
      <point x="418" y="531" type="line"/>
      <point x="590" y="528" type="line"/>
    </contour>
  </outline>
</glyph>
<glyph name="infinity" format="1">
  <advance width="813"/>
  <unicode hex="221E"/>
  <outline>
    <contour>
      <point x="427" y="353" type="curve"/>
      <point x="376" y="300" type="line"/>
      <point x="297" y="379"/>
      <point x="273" y="403"/>
      <point x="226" y="403" type="curve" smooth="yes"/>
      <point x="178" y="403"/>
      <point x="148" y="371"/>
      <point x="148" y="335" type="curve" smooth="yes"/>
      <point x="148" y="299"/>
      <point x="178" y="267"/>
      <point x="226" y="267" type="curve" smooth="yes"/>
      <point x="352" y="267"/>
      <point x="404" y="499"/>
      <point x="587" y="499" type="curve" smooth="yes"/>
      <point x="687" y="499"/>
      <point x="773" y="431"/>
      <point x="773" y="321" type="curve" smooth="yes"/>
      <point x="773" y="211"/>
      <point x="698" y="143"/>
      <point x="607" y="143" type="curve" smooth="yes"/>
      <point x="542" y="143"/>
      <point x="477" y="169"/>
      <point x="386" y="289" type="curve"/>
      <point x="437" y="342" type="line"/>
      <point x="516" y="263"/>
      <point x="540" y="239"/>
      <point x="587" y="239" type="curve" smooth="yes"/>
      <point x="635" y="239"/>
      <point x="665" y="271"/>
      <point x="665" y="307" type="curve" smooth="yes"/>
      <point x="665" y="343"/>
      <point x="635" y="375"/>
      <point x="587" y="375" type="curve" smooth="yes"/>
      <point x="467" y="375"/>
      <point x="419" y="143"/>
      <point x="226" y="143" type="curve" smooth="yes"/>
      <point x="126" y="143"/>
      <point x="40" y="211"/>
      <point x="40" y="321" type="curve" smooth="yes"/>
      <point x="40" y="431"/>
      <point x="115" y="499"/>
      <point x="206" y="499" type="curve" smooth="yes"/>
      <point x="271" y="499"/>
      <point x="336" y="473"/>
    </contour>
  </outline>
</glyph>
<glyph name="integral" format="1">
  <advance width="639"/>
  <unicode hex="222B"/>
  <outline>
    <contour>
      <point x="624" y="560" type="curve" smooth="yes"/>
      <point x="624" y="521"/>
      <point x="595" y="494"/>
      <point x="558" y="494" type="curve" smooth="yes"/>
      <point x="529" y="494"/>
      <point x="518" y="511"/>
      <point x="505" y="546" type="curve" smooth="yes"/>
      <point x="496" y="571"/>
      <point x="489" y="596"/>
      <point x="470" y="596" type="curve" smooth="yes"/>
      <point x="458" y="596"/>
      <point x="448" y="590"/>
      <point x="445" y="562" type="curve" smooth="yes"/>
      <point x="392" y="121" type="line" smooth="yes"/>
      <point x="376" y="-12"/>
      <point x="293" y="-79"/>
      <point x="208" y="-79" type="curve" smooth="yes"/>
      <point x="110" y="-79"/>
      <point x="55" y="-28"/>
      <point x="55" y="24" type="curve" smooth="yes"/>
      <point x="55" y="63"/>
      <point x="84" y="90"/>
      <point x="121" y="90" type="curve" smooth="yes"/>
      <point x="150" y="90"/>
      <point x="161" y="73"/>
      <point x="174" y="38" type="curve" smooth="yes"/>
      <point x="183" y="13"/>
      <point x="190" y="-12"/>
      <point x="209" y="-12" type="curve" smooth="yes"/>
      <point x="221" y="-12"/>
      <point x="231" y="-2"/>
      <point x="234" y="22" type="curve" smooth="yes"/>
      <point x="287" y="463" type="line" smooth="yes"/>
      <point x="303" y="596"/>
      <point x="386" y="663"/>
      <point x="471" y="663" type="curve" smooth="yes"/>
      <point x="569" y="663"/>
      <point x="624" y="612"/>
    </contour>
  </outline>
</glyph>
<glyph name="approxequal" format="1">
  <advance width="698"/>
  <unicode hex="2248"/>
  <outline>
    <contour>
      <point x="489" y="223" type="curve" smooth="yes"/>
      <point x="546" y="223"/>
      <point x="581" y="242"/>
      <point x="593" y="305" type="curve"/>
      <point x="648" y="305" type="line"/>
      <point x="639" y="158"/>
      <point x="555" y="96"/>
      <point x="458" y="96" type="curve" smooth="yes"/>
      <point x="380" y="96"/>
      <point x="288" y="173"/>
      <point x="208" y="173" type="curve" smooth="yes"/>
      <point x="150" y="173"/>
      <point x="114" y="154"/>
      <point x="102" y="91" type="curve"/>
      <point x="50" y="91" type="line"/>
      <point x="59" y="238"/>
      <point x="144" y="300"/>
      <point x="241" y="300" type="curve" smooth="yes"/>
      <point x="331" y="300"/>
      <point x="401" y="223"/>
    </contour>
    <contour>
      <point x="489" y="453" type="curve" smooth="yes"/>
      <point x="546" y="453"/>
      <point x="581" y="472"/>
      <point x="593" y="535" type="curve"/>
      <point x="648" y="535" type="line"/>
      <point x="639" y="388"/>
      <point x="555" y="326"/>
      <point x="458" y="326" type="curve" smooth="yes"/>
      <point x="380" y="326"/>
      <point x="288" y="403"/>
      <point x="208" y="403" type="curve" smooth="yes"/>
      <point x="150" y="403"/>
      <point x="114" y="384"/>
      <point x="102" y="321" type="curve"/>
      <point x="50" y="321" type="line"/>
      <point x="59" y="468"/>
      <point x="144" y="530"/>
      <point x="241" y="530" type="curve" smooth="yes"/>
      <point x="331" y="530"/>
      <point x="401" y="453"/>
    </contour>
  </outline>
</glyph>
<glyph name="lessequal" format="1">
  <advance width="588"/>
  <unicode hex="2264"/>
  <outline>
    <contour>
      <point x="528" y="502" type="line"/>
      <point x="174" y="396" type="line"/>
      <point x="528" y="290" type="line"/>
      <point x="528" y="190" type="line"/>
      <point x="55" y="341" type="line"/>
      <point x="55" y="451" type="line"/>
      <point x="528" y="602" type="line"/>
    </contour>
    <contour>
      <point x="528" y="61" type="line"/>
      <point x="55" y="61" type="line"/>
      <point x="55" y="156" type="line"/>
      <point x="528" y="156" type="line"/>
    </contour>
  </outline>
</glyph>
<glyph name="lozenge" format="1">
  <advance width="548"/>
  <unicode hex="25CA"/>
  <outline>
    <contour>
      <point x="306" y="663" type="line"/>
      <point x="508" y="324" type="line"/>
      <point x="306" y="-14" type="line"/>
      <point x="242" y="-14" type="line"/>
      <point x="40" y="324" type="line"/>
      <point x="242" y="663" type="line"/>
    </contour>
    <contour>
      <point x="144" y="324" type="line"/>
      <point x="274" y="98" type="line"/>
      <point x="404" y="322" type="line"/>
      <point x="274" y="551" type="line"/>
    </contour>
  </outline>
</glyph>
<glyph name="fl" format="1">
  <advance width="673"/>
  <unicode hex="FB02"/>
  <outline>
    <contour>
      <point x="240" y="706" type="move" name="top"/>
    </contour>
    <contour>
      <point x="230" y="0" type="move" name="bottom"/>
    </contour>
    <contour>
      <point x="214" y="459" type="line"/>
      <point x="254" y="459"/>
      <point x="303" y="461"/>
      <point x="367" y="470" type="curve"/>
      <point x="367" y="439"/>
      <point x="364" y="411"/>
      <point x="357" y="389" type="curve"/>
      <point x="214" y="389" type="line"/>
    </contour>
    <contour>
      <point x="581" y="703" type="curve"/>
      <point x="581" y="22" type="line"/>
      <point x="558" y="83" type="line"/>
      <point x="575" y="63"/>
      <point x="610" y="57"/>
      <point x="637" y="57" type="curve"/>
      <point x="639" y="40"/>
      <point x="636" y="17"/>
      <point x="633" y="0" type="curve"/>
      <point x="358" y="0" type="line"/>
      <point x="357" y="18"/>
      <point x="358" y="40"/>
      <point x="363" y="57" type="curve"/>
      <point x="398" y="63"/>
      <point x="426" y="73"/>
      <point x="426" y="116" type="curve" smooth="yes"/>
      <point x="426" y="618" type="line"/>
      <point x="405" y="631"/>
      <point x="374" y="642"/>
      <point x="336" y="642" type="curve" smooth="yes"/>
      <point x="279" y="642"/>
      <point x="248" y="614"/>
      <point x="248" y="565" type="curve" smooth="yes"/>
      <point x="248" y="22" type="line"/>
      <point x="225" y="83" type="line"/>
      <point x="242" y="63"/>
      <point x="277" y="57"/>
      <point x="304" y="57" type="curve"/>
      <point x="306" y="40"/>
      <point x="303" y="17"/>
      <point x="300" y="0" type="curve"/>
      <point x="25" y="0" type="line"/>
      <point x="24" y="18"/>
      <point x="25" y="40"/>
      <point x="30" y="57" type="curve"/>
      <point x="65" y="63"/>
      <point x="93" y="73"/>
      <point x="93" y="116" type="curve" smooth="yes"/>
      <point x="93" y="428" type="line"/>
      <point x="122" y="375" type="line"/>
      <point x="95" y="386"/>
      <point x="66" y="387"/>
      <point x="37" y="387" type="curve"/>
      <point x="36" y="401"/>
      <point x="37" y="425"/>
      <point x="39" y="437" type="curve"/>
      <point x="56" y="446"/>
      <point x="74" y="453"/>
      <point x="93" y="457" type="curve"/>
      <point x="93" y="501" type="line" smooth="yes"/>
      <point x="93" y="677"/>
      <point x="263" y="724"/>
      <point x="419" y="724" type="curve" smooth="yes"/>
      <point x="478" y="724"/>
      <point x="535" y="716"/>
    </contour>
  </outline>
</glyph>
<glyph name="dvBH_NA" format="1">
  <advance width="606"/>
  <outline>
    <contour>
      <point x="627" y="635" type="line"/>
      <point x="229" y="635" type="line"/>
      <point x="300" y="531" type="line"/>
      <point x="406" y="531" type="line"/>
      <point x="406" y="364" type="line"/>
      <point x="216" y="364" type="line"/>
      <point x="216" y="444" type="line" smooth="yes"/>
      <point x="216" y="486"/>
      <point x="207" y="515"/>
      <point x="176" y="543" type="curve" smooth="yes"/>
      <point x="115" y="596" type="line" smooth="yes"/>
      <point x="79" y="628"/>
      <point x="51" y="635"/>
      <point x="14" y="635" type="curve" smooth="yes"/>
      <point x="-90" y="635" type="line"/>
      <point x="-20" y="531" type="line"/>
      <point x="50" y="531" type="line" smooth="yes"/>
      <point x="74" y="531"/>
      <point x="91" y="514"/>
      <point x="91" y="491" type="curve" smooth="yes"/>
      <point x="91" y="363" type="line"/>
      <point x="78" y="363" type="line" smooth="yes"/>
      <point x="35" y="361"/>
      <point x="20" y="347"/>
      <point x="20" y="322" type="curve" smooth="yes"/>
      <point x="20" y="266"/>
      <point x="137" y="155"/>
      <point x="183" y="155" type="curve" smooth="yes"/>
      <point x="210" y="155"/>
      <point x="218" y="170"/>
      <point x="218" y="192" type="curve" smooth="yes"/>
      <point x="218" y="244" type="line"/>
      <point x="406" y="244" type="line"/>
      <point x="406" y="224" type="line"/>
      <point x="196" y="52" type="line" smooth="yes"/>
      <point x="170" y="31"/>
      <point x="162" y="16"/>
      <point x="162" y="2" type="curve" smooth="yes"/>
      <point x="162" y="-53"/>
      <point x="240" y="-86"/>
      <point x="301" y="-86" type="curve" smooth="yes"/>
      <point x="330" y="-86"/>
      <point x="347" y="-74"/>
      <point x="347" y="-59" type="curve" smooth="yes"/>
      <point x="347" y="-54"/>
      <point x="347" y="-50"/>
      <point x="342" y="-41" type="curve" smooth="yes"/>
      <point x="337" y="-30"/>
      <point x="332" y="-22"/>
      <point x="308" y="11" type="curve"/>
      <point x="406" y="111" type="line"/>
      <point x="406" y="32" type="line"/>
      <point x="536" y="-40" type="line"/>
      <point x="536" y="531" type="line"/>
      <point x="698" y="531" type="line"/>
    </contour>
  </outline>
</glyph>
<glyph name="dvBH_R" format="1">
  <advance width="339"/>
  <outline>
    <contour>
      <point x="425" y="240" type="line"/>
      <point x="166" y="21" type="line"/>
      <point x="260" y="-45" type="line"/>
      <point x="523" y="231" type="line"/>
      <point x="407" y="364" type="line"/>
      <point x="216" y="364" type="line"/>
      <point x="216" y="444" type="line" smooth="yes"/>
      <point x="216" y="486"/>
      <point x="207" y="515"/>
      <point x="176" y="543" type="curve" smooth="yes"/>
      <point x="115" y="596" type="line" smooth="yes"/>
      <point x="79" y="628"/>
      <point x="51" y="635"/>
      <point x="14" y="635" type="curve" smooth="yes"/>
      <point x="-90" y="635" type="line"/>
      <point x="-20" y="531" type="line"/>
      <point x="50" y="531" type="line" smooth="yes"/>
      <point x="74" y="531"/>
      <point x="91" y="514"/>
      <point x="91" y="491" type="curve" smooth="yes"/>
      <point x="91" y="363" type="line"/>
      <point x="87" y="363"/>
      <point x="82" y="363"/>
      <point x="78" y="363" type="curve" smooth="yes"/>
      <point x="35" y="361"/>
      <point x="20" y="347"/>
      <point x="20" y="322" type="curve" smooth="yes"/>
      <point x="20" y="266"/>
      <point x="137" y="155"/>
      <point x="183" y="155" type="curve" smooth="yes"/>
      <point x="210" y="155"/>
      <point x="218" y="170"/>
      <point x="218" y="192" type="curve" smooth="yes"/>
      <point x="218" y="244" type="line"/>
      <point x="425" y="244" type="line"/>
    </contour>
    <contour>
      <point x="359" y="635" type="line"/>
      <point x="229" y="635" type="line"/>
      <point x="300" y="531" type="line"/>
      <point x="430" y="531" type="line"/>
    </contour>
  </outline>
</glyph>
<glyph name="dvB_DA" format="1">
  <advance width="882"/>
  <outline>
    <contour>
      <point x="764" y="-40" type="move" name="blwm.virama"/>
    </contour>
    <contour>
      <point x="780" y="635" type="move" name="abvm"/>
    </contour>
    <contour>
      <point x="740" y="-134" type="move" name="blwm.u"/>
    </contour>
    <component base="dvDA" xOffset="345"/>
    <component base="dvB"/>
  </outline>
</glyph>
<glyph name="dvB_DHA" format="1">
  <advance width="949"/>
  <outline>
    <contour>
      <point x="717" y="531" type="line"/>
      <point x="749" y="531" type="line"/>
      <point x="749" y="285" type="line"/>
      <point x="710" y="237"/>
      <point x="652" y="178"/>
      <point x="579" y="178" type="curve" smooth="yes"/>
      <point x="536" y="178"/>
      <point x="506" y="204"/>
      <point x="506" y="238" type="curve" smooth="yes"/>
      <point x="506" y="286"/>
      <point x="559" y="297"/>
      <point x="594" y="297" type="curve" smooth="yes"/>
      <point x="623" y="297"/>
      <point x="651" y="292"/>
      <point x="692" y="280" type="curve"/>
      <point x="653" y="408" type="line"/>
      <point x="625" y="412"/>
      <point x="588" y="417"/>
      <point x="559" y="417" type="curve" smooth="yes"/>
      <point x="551" y="417"/>
      <point x="539" y="417"/>
      <point x="534" y="416" type="curve"/>
      <point x="518" y="429"/>
      <point x="512" y="442"/>
      <point x="512" y="461" type="curve"/>
      <point x="512" y="485"/>
      <point x="530" y="522"/>
      <point x="557" y="531" type="curve"/>
      <point x="666" y="531" type="line"/>
      <point x="594" y="635" type="line"/>
      <point x="249" y="635" type="line"/>
      <point x="321" y="531" type="line"/>
      <point x="366" y="531" type="line"/>
      <point x="376" y="531"/>
      <point x="389" y="533"/>
      <point x="400" y="533" type="curve"/>
      <point x="393" y="523"/>
      <point x="388" y="499"/>
      <point x="388" y="487" type="curve" smooth="yes"/>
      <point x="388" y="441"/>
      <point x="423" y="416"/>
      <point x="457" y="394" type="curve"/>
      <point x="419" y="375"/>
      <point x="394" y="338"/>
      <point x="394" y="299" type="curve" smooth="yes"/>
      <point x="394" y="176"/>
      <point x="520" y="73"/>
      <point x="627" y="73" type="curve" smooth="yes"/>
      <point x="672" y="73"/>
      <point x="721" y="92"/>
      <point x="755" y="117" type="curve"/>
      <point x="750" y="36" type="line"/>
      <point x="879" y="-40" type="line"/>
      <point x="879" y="531" type="line"/>
      <point x="1040" y="531" type="line"/>
      <point x="969" y="635" type="line"/>
      <point x="645" y="635" type="line"/>
    </contour>
    <component base="dvB"/>
  </outline>
</glyph>
<glyph name="dvB_JA" format="1">
  <advance width="1104"/>
  <outline>
    <contour>
      <point x="453" y="531" type="line"/>
      <point x="381" y="635" type="line"/>
      <point x="-92" y="635" type="line"/>
      <point x="-20" y="531" type="line"/>
    </contour>
    <contour>
      <point x="427" y="358" type="line"/>
      <point x="482" y="198"/>
      <point x="563" y="67"/>
      <point x="681" y="67" type="curve" smooth="yes"/>
      <point x="766" y="67"/>
      <point x="812" y="117"/>
      <point x="812" y="194" type="curve" smooth="yes"/>
      <point x="812" y="237"/>
      <point x="795" y="286"/>
      <point x="758" y="321" type="curve"/>
      <point x="897" y="321" type="line"/>
      <point x="897" y="37" type="line"/>
      <point x="1027" y="-40" type="line"/>
      <point x="1027" y="531" type="line"/>
      <point x="1190" y="531" type="line"/>
      <point x="1118" y="635" type="line"/>
      <point x="310" y="635" type="line"/>
      <point x="382" y="531" type="line"/>
      <point x="897" y="531" type="line"/>
      <point x="897" y="436" type="line"/>
      <point x="618" y="436" type="line"/>
      <point x="603" y="412" type="line"/>
      <point x="674" y="344"/>
      <point x="702" y="285"/>
      <point x="702" y="249" type="curve" smooth="yes"/>
      <point x="702" y="211"/>
      <point x="682" y="192"/>
      <point x="646" y="192" type="curve" smooth="yes"/>
      <point x="569" y="192"/>
      <point x="517" y="307"/>
      <point x="479" y="436" type="curve"/>
    </contour>
    <contour>
      <point x="427" y="358" type="line"/>
      <point x="415" y="340"/>
      <point x="355" y="249"/>
      <point x="332" y="229" type="curve"/>
      <point x="207" y="364" type="line"/>
      <point x="220" y="369"/>
      <point x="233" y="372"/>
      <point x="246" y="372" type="curve" smooth="yes"/>
      <point x="282" y="372"/>
      <point x="304" y="355"/>
      <point x="327" y="332" type="curve"/>
      <point x="371" y="389" type="line"/>
      <point x="338" y="429"/>
      <point x="282" y="473"/>
      <point x="208" y="473" type="curve" smooth="yes"/>
      <point x="133" y="473"/>
      <point x="40" y="413"/>
      <point x="40" y="305" type="curve" smooth="yes"/>
      <point x="40" y="202"/>
      <point x="154" y="87"/>
      <point x="266" y="87" type="curve" smooth="yes"/>
      <point x="377" y="87"/>
      <point x="442" y="192"/>
      <point x="502" y="302" type="curve"/>
    </contour>
    <contour>
      <point x="228" y="182" type="curve" smooth="yes"/>
      <point x="180" y="182"/>
      <point x="139" y="219"/>
      <point x="139" y="267" type="curve" smooth="yes"/>
      <point x="139" y="289"/>
      <point x="146" y="309"/>
      <point x="156" y="324" type="curve"/>
      <point x="278" y="192" type="line"/>
      <point x="261" y="185"/>
      <point x="244" y="182"/>
    </contour>
  </outline>
</glyph>
<glyph name="dvB_JHA" format="1">
  <advance width="1117"/>
  <outline>
    <contour>
      <point x="423" y="347" type="line"/>
      <point x="408" y="324"/>
      <point x="374" y="256"/>
      <point x="334" y="227" type="curve"/>
      <point x="207" y="364" type="line"/>
      <point x="220" y="369"/>
      <point x="233" y="372"/>
      <point x="246" y="372" type="curve" smooth="yes"/>
      <point x="282" y="372"/>
      <point x="304" y="355"/>
      <point x="327" y="332" type="curve"/>
      <point x="371" y="389" type="line"/>
      <point x="338" y="429"/>
      <point x="282" y="473"/>
      <point x="208" y="473" type="curve" smooth="yes"/>
      <point x="133" y="473"/>
      <point x="40" y="413"/>
      <point x="40" y="305" type="curve" smooth="yes"/>
      <point x="40" y="202"/>
      <point x="154" y="87"/>
      <point x="266" y="87" type="curve" smooth="yes"/>
      <point x="360" y="87"/>
      <point x="423" y="167"/>
      <point x="495" y="263" type="curve"/>
    </contour>
    <contour>
      <point x="433" y="531" type="line"/>
      <point x="361" y="635" type="line"/>
      <point x="-92" y="635" type="line"/>
      <point x="-20" y="531" type="line"/>
    </contour>
    <contour>
      <point x="228" y="182" type="curve" smooth="yes"/>
      <point x="180" y="182"/>
      <point x="139" y="219"/>
      <point x="139" y="267" type="curve" smooth="yes"/>
      <point x="139" y="289"/>
      <point x="146" y="309"/>
      <point x="156" y="324" type="curve"/>
      <point x="278" y="192" type="line"/>
      <point x="261" y="185"/>
      <point x="244" y="182"/>
    </contour>
    <component base="dvJHA" xOffset="366"/>
  </outline>
</glyph>
<glyph name="dvB_NA" format="1">
  <advance width="597"/>
  <outline>
    <contour>
      <point x="394" y="39" type="line"/>
      <point x="527" y="-40" type="line"/>
      <point x="527" y="531" type="line"/>
      <point x="689" y="531" type="line"/>
      <point x="617" y="635" type="line"/>
      <point x="-92" y="635" type="line"/>
      <point x="-20" y="531" type="line"/>
      <point x="395" y="531" type="line"/>
      <point x="398" y="301" type="line"/>
      <point x="381" y="275"/>
      <point x="351" y="239"/>
      <point x="334" y="227" type="curve"/>
      <point x="207" y="364" type="line"/>
      <point x="220" y="369"/>
      <point x="233" y="372"/>
      <point x="246" y="372" type="curve" smooth="yes"/>
      <point x="282" y="372"/>
      <point x="304" y="355"/>
      <point x="327" y="332" type="curve"/>
      <point x="371" y="389" type="line"/>
      <point x="338" y="429"/>
      <point x="282" y="473"/>
      <point x="208" y="473" type="curve" smooth="yes"/>
      <point x="133" y="473"/>
      <point x="40" y="413"/>
      <point x="40" y="305" type="curve" smooth="yes"/>
      <point x="40" y="218"/>
      <point x="127" y="112"/>
      <point x="223" y="104" type="curve"/>
      <point x="143" y="39" type="line" smooth="yes"/>
      <point x="117" y="18"/>
      <point x="109" y="3"/>
      <point x="109" y="-11" type="curve" smooth="yes"/>
      <point x="109" y="-66"/>
      <point x="187" y="-99"/>
      <point x="248" y="-99" type="curve" smooth="yes"/>
      <point x="277" y="-99"/>
      <point x="294" y="-87"/>
      <point x="294" y="-72" type="curve" smooth="yes"/>
      <point x="294" y="-67"/>
      <point x="294" y="-63"/>
      <point x="289" y="-54" type="curve" smooth="yes"/>
      <point x="284" y="-43"/>
      <point x="279" y="-35"/>
      <point x="255" y="-2" type="curve"/>
      <point x="401" y="147" type="line"/>
    </contour>
    <contour>
      <point x="228" y="182" type="curve" smooth="yes"/>
      <point x="180" y="182"/>
      <point x="139" y="219"/>
      <point x="139" y="267" type="curve" smooth="yes"/>
      <point x="139" y="289"/>
      <point x="146" y="309"/>
      <point x="156" y="324" type="curve"/>
      <point x="278" y="192" type="line"/>
      <point x="261" y="185"/>
      <point x="244" y="182"/>
    </contour>
  </outline>
</glyph>
<glyph name="dvB_R" format="1">
  <advance width="351"/>
  <outline>
    <contour>
      <point x="140" y="25" type="line"/>
      <point x="234" y="-41" type="line"/>
      <point x="469" y="211" type="line"/>
      <point x="391" y="294" type="line"/>
      <point x="372" y="269"/>
      <point x="352" y="247"/>
      <point x="331" y="229" type="curve"/>
      <point x="206" y="364" type="line"/>
      <point x="219" y="369"/>
      <point x="232" y="372"/>
      <point x="245" y="372" type="curve" smooth="yes"/>
      <point x="281" y="372"/>
      <point x="303" y="355"/>
      <point x="326" y="332" type="curve"/>
      <point x="370" y="389" type="line"/>
      <point x="337" y="429"/>
      <point x="281" y="473"/>
      <point x="207" y="473" type="curve" smooth="yes"/>
      <point x="132" y="473"/>
      <point x="39" y="413"/>
      <point x="39" y="305" type="curve" smooth="yes"/>
      <point x="39" y="213"/>
      <point x="132" y="100"/>
      <point x="236" y="98" type="curve"/>
    </contour>
    <contour>
      <point x="443" y="531" type="line"/>
      <point x="371" y="635" type="line"/>
      <point x="-92" y="635" type="line"/>
      <point x="-20" y="531" type="line"/>
    </contour>
    <contour>
      <point x="227" y="182" type="curve" smooth="yes"/>
      <point x="179" y="182"/>
      <point x="138" y="219"/>
      <point x="138" y="267" type="curve" smooth="yes"/>
      <point x="138" y="289"/>
      <point x="145" y="309"/>
      <point x="155" y="324" type="curve"/>
      <point x="276" y="193" type="line"/>
      <point x="260" y="186"/>
      <point x="243" y="182"/>
    </contour>
  </outline>
</glyph>
<glyph name="dvCH_RA" format="1">
  <advance width="711"/>
  <outline>
    <contour>
      <point x="238" y="-185" type="line"/>
      <point x="379" y="-26" type="line"/>
      <point x="506" y="-185" type="line"/>
      <point x="576" y="-139" type="line"/>
      <point x="410" y="37" type="line"/>
      <point x="288" y="37" type="line"/>
      <point x="134" y="-102" type="line"/>
    </contour>
    <component base="dvCHA"/>
  </outline>
</glyph>
<glyph name="dvC" format="1">
  <advance width="414"/>
  <outline>
    <contour>
      <point x="497" y="531" type="line"/>
      <point x="434" y="635" type="line"/>
      <point x="-84" y="635" type="line"/>
      <point x="-20" y="531" type="line"/>
    </contour>
    <contour>
      <point x="478" y="330" type="line"/>
      <point x="428" y="239"/>
      <point x="363" y="189"/>
      <point x="297" y="189" type="curve" smooth="yes"/>
      <point x="262" y="189"/>
      <point x="231" y="204"/>
      <point x="231" y="247" type="curve" smooth="yes"/>
      <point x="231" y="291"/>
      <point x="273" y="333"/>
      <point x="341" y="343" type="curve"/>
      <point x="434" y="343" type="line"/>
      <point x="362" y="448" type="line"/>
      <point x="-14" y="448" type="line"/>
      <point x="58" y="342" type="line"/>
      <point x="144" y="347" type="line"/>
      <point x="129" y="332"/>
      <point x="120" y="311"/>
      <point x="120" y="290" type="curve" smooth="yes"/>
      <point x="120" y="186"/>
      <point x="247" y="77"/>
      <point x="337" y="77" type="curve" smooth="yes"/>
      <point x="397" y="77"/>
      <point x="459" y="96"/>
      <point x="558" y="227" type="curve"/>
    </contour>
  </outline>
</glyph>
<glyph name="dvC_CHA" format="1">
  <advance width="1091"/>
  <outline>
    <contour>
      <point x="467" y="531" type="line"/>
      <point x="404" y="635" type="line"/>
      <point x="-84" y="635" type="line"/>
      <point x="-20" y="531" type="line"/>
    </contour>
    <contour>
      <point x="476" y="249" type="line"/>
      <point x="420" y="188"/>
      <point x="333" y="140"/>
      <point x="267" y="140" type="curve" smooth="yes"/>
      <point x="232" y="140"/>
      <point x="201" y="155"/>
      <point x="201" y="198" type="curve" smooth="yes"/>
      <point x="201" y="242"/>
      <point x="243" y="284"/>
      <point x="311" y="294" type="curve"/>
      <point x="404" y="294" type="line"/>
      <point x="332" y="399" type="line"/>
      <point x="-44" y="399" type="line"/>
      <point x="28" y="293" type="line"/>
      <point x="114" y="298" type="line"/>
      <point x="99" y="283"/>
      <point x="90" y="262"/>
      <point x="90" y="241" type="curve" smooth="yes"/>
      <point x="90" y="137"/>
      <point x="217" y="28"/>
      <point x="307" y="28" type="curve" smooth="yes"/>
      <point x="367" y="28"/>
      <point x="435" y="43"/>
      <point x="556" y="146" type="curve"/>
    </contour>
    <component base="dvCHA" xOffset="380"/>
  </outline>
</glyph>
<glyph name="dvC_CH_VA" format="1">
  <advance width="1088"/>
  <outline>
    <contour>
      <point x="926" y="-402" type="move" name="blwm.virama"/>
    </contour>
    <contour>
      <point x="922" y="635" type="move" name="abvm"/>
    </contour>
    <contour>
      <point x="926" y="-402" type="move" name="blwm.u"/>
    </contour>
    <contour>
      <point x="467" y="531" type="line"/>
      <point x="404" y="635" type="line"/>
      <point x="-84" y="635" type="line"/>
      <point x="-20" y="531" type="line"/>
    </contour>
    <contour>
      <point x="476" y="249" type="line"/>
      <point x="420" y="188"/>
      <point x="333" y="140"/>
      <point x="267" y="140" type="curve" smooth="yes"/>
      <point x="232" y="140"/>
      <point x="201" y="155"/>
      <point x="201" y="198" type="curve" smooth="yes"/>
      <point x="201" y="242"/>
      <point x="243" y="284"/>
      <point x="311" y="294" type="curve"/>
      <point x="404" y="294" type="line"/>
      <point x="332" y="399" type="line"/>
      <point x="-44" y="399" type="line"/>
      <point x="28" y="293" type="line"/>
      <point x="114" y="298" type="line"/>
      <point x="99" y="283"/>
      <point x="90" y="262"/>
      <point x="90" y="241" type="curve" smooth="yes"/>
      <point x="90" y="137"/>
      <point x="217" y="28"/>
      <point x="307" y="28" type="curve" smooth="yes"/>
      <point x="367" y="28"/>
      <point x="435" y="43"/>
      <point x="556" y="146" type="curve"/>
    </contour>
    <contour>
      <point x="1180" y="531" type="line"/>
      <point x="1108" y="635" type="line"/>
      <point x="285" y="635" type="line"/>
      <point x="357" y="531" type="line"/>
      <point x="796" y="531" type="line"/>
      <point x="796" y="475" type="line"/>
      <point x="754" y="456"/>
      <point x="720" y="411"/>
      <point x="720" y="351" type="curve" smooth="yes"/>
      <point x="720" y="270"/>
      <point x="782" y="190"/>
      <point x="829" y="146" type="curve"/>
      <point x="785" y="104"/>
      <point x="725" y="78"/>
      <point x="657" y="78" type="curve" smooth="yes"/>
      <point x="609" y="78"/>
      <point x="560" y="91"/>
      <point x="560" y="135" type="curve" smooth="yes"/>
      <point x="560" y="178"/>
      <point x="613" y="190"/>
      <point x="643" y="190" type="curve" smooth="yes"/>
      <point x="674" y="190"/>
      <point x="703" y="184"/>
      <point x="724" y="179" type="curve"/>
      <point x="677" y="295" type="line"/>
      <point x="651" y="302"/>
      <point x="619" y="305"/>
      <point x="596" y="305" type="curve" smooth="yes"/>
      <point x="579" y="305"/>
      <point x="565" y="303"/>
      <point x="551" y="301" type="curve"/>
      <point x="538" y="311"/>
      <point x="532" y="322"/>
      <point x="532" y="335" type="curve" smooth="yes"/>
      <point x="532" y="363"/>
      <point x="563" y="377"/>
      <point x="611" y="377" type="curve" smooth="yes"/>
      <point x="634" y="377"/>
      <point x="662" y="373"/>
      <point x="692" y="367" type="curve"/>
      <point x="652" y="481" type="line"/>
      <point x="619" y="488"/>
      <point x="588" y="492"/>
      <point x="564" y="492" type="curve" smooth="yes"/>
      <point x="466" y="492"/>
      <point x="416" y="447"/>
      <point x="416" y="376" type="curve" smooth="yes"/>
      <point x="416" y="338"/>
      <point x="445" y="299"/>
      <point x="478" y="268" type="curve"/>
      <point x="458" y="248"/>
      <point x="447" y="221"/>
      <point x="447" y="189" type="curve" smooth="yes"/>
      <point x="447" y="129"/>
      <point x="482" y="73"/>
      <point x="534" y="34" type="curve"/>
      <point x="498" y="10"/>
      <point x="471" y="-26"/>
      <point x="471" y="-77" type="curve" smooth="yes"/>
      <point x="471" y="-192"/>
      <point x="603" y="-295"/>
      <point x="695" y="-295" type="curve" smooth="yes"/>
      <point x="741" y="-295"/>
      <point x="778" y="-273"/>
      <point x="809" y="-242" type="curve"/>
      <point x="801" y="-328" type="line"/>
      <point x="926" y="-402" type="line"/>
      <point x="926" y="58" type="line"/>
      <point x="931" y="63" type="line"/>
      <point x="1037" y="-20" type="line"/>
      <point x="1096" y="49" type="line"/>
      <point x="981" y="129" type="line"/>
      <point x="1004" y="172"/>
      <point x="1018" y="220"/>
      <point x="1018" y="271" type="curve" smooth="yes"/>
      <point x="1018" y="343"/>
      <point x="977" y="417"/>
      <point x="922" y="457" type="curve"/>
      <point x="922" y="531" type="line"/>
    </contour>
    <contour>
      <point x="714" y="-29" type="curve"/>
      <point x="745" y="-29"/>
      <point x="776" y="-24"/>
      <point x="804" y="-15" type="curve"/>
      <point x="806" y="-70" type="line"/>
      <point x="760" y="-138"/>
      <point x="702" y="-192"/>
      <point x="648" y="-192" type="curve" smooth="yes"/>
      <point x="607" y="-192"/>
      <point x="580" y="-169"/>
      <point x="580" y="-128" type="curve" smooth="yes"/>
      <point x="580" y="-72"/>
      <point x="615" y="-25"/>
      <point x="685" y="-28" type="curve"/>
      <point x="694" y="-29"/>
      <point x="704" y="-29"/>
    </contour>
    <contour>
      <point x="921" y="337" type="curve" smooth="yes"/>
      <point x="921" y="276"/>
      <point x="890" y="215"/>
      <point x="881" y="206" type="curve"/>
      <point x="853" y="230"/>
      <point x="834" y="262"/>
      <point x="834" y="293" type="curve" smooth="yes"/>
      <point x="834" y="339"/>
      <point x="856" y="380"/>
      <point x="890" y="380" type="curve" smooth="yes"/>
      <point x="914" y="380"/>
      <point x="921" y="354"/>
    </contour>
  </outline>
</glyph>
<glyph name="dvC_NA" format="1">
  <advance width="673"/>
  <outline>
    <contour>
      <point x="473" y="37" type="line"/>
      <point x="603" y="-40" type="line"/>
      <point x="603" y="531" type="line"/>
      <point x="756" y="531" type="line"/>
      <point x="693" y="635" type="line"/>
      <point x="-84" y="635" type="line"/>
      <point x="-20" y="531" type="line"/>
      <point x="474" y="531" type="line"/>
      <point x="474" y="311" type="line"/>
      <point x="418" y="241"/>
      <point x="362" y="189"/>
      <point x="297" y="189" type="curve" smooth="yes"/>
      <point x="262" y="189"/>
      <point x="231" y="204"/>
      <point x="231" y="247" type="curve" smooth="yes"/>
      <point x="231" y="291"/>
      <point x="273" y="333"/>
      <point x="341" y="343" type="curve"/>
      <point x="434" y="343" type="line"/>
      <point x="362" y="448" type="line"/>
      <point x="-14" y="448" type="line"/>
      <point x="58" y="342" type="line"/>
      <point x="144" y="347" type="line"/>
      <point x="129" y="332"/>
      <point x="120" y="311"/>
      <point x="120" y="290" type="curve" smooth="yes"/>
      <point x="120" y="205"/>
      <point x="218" y="98"/>
      <point x="292" y="95" type="curve"/>
      <point x="217" y="33" type="line" smooth="yes"/>
      <point x="191" y="12"/>
      <point x="183" y="-3"/>
      <point x="183" y="-17" type="curve" smooth="yes"/>
      <point x="183" y="-72"/>
      <point x="261" y="-105"/>
      <point x="322" y="-105" type="curve" smooth="yes"/>
      <point x="351" y="-105"/>
      <point x="368" y="-93"/>
      <point x="368" y="-78" type="curve" smooth="yes"/>
      <point x="368" y="-73"/>
      <point x="368" y="-69"/>
      <point x="363" y="-60" type="curve" smooth="yes"/>
      <point x="358" y="-49"/>
      <point x="353" y="-41"/>
      <point x="329" y="-8" type="curve"/>
      <point x="479" y="146" type="line"/>
    </contour>
  </outline>
</glyph>
<glyph name="dvC_RA" format="1">
  <advance width="673"/>
  <outline>
    <contour>
      <point x="756" y="531" type="line"/>
      <point x="693" y="635" type="line"/>
      <point x="-65" y="635" type="line"/>
      <point x="-1" y="531" type="line"/>
      <point x="474" y="531" type="line"/>
      <point x="474" y="311" type="line"/>
      <point x="421" y="244"/>
      <point x="362" y="189"/>
      <point x="297" y="189" type="curve" smooth="yes"/>
      <point x="262" y="189"/>
      <point x="231" y="204"/>
      <point x="231" y="247" type="curve" smooth="yes"/>
      <point x="231" y="291"/>
      <point x="273" y="333"/>
      <point x="341" y="343" type="curve"/>
      <point x="434" y="343" type="line"/>
      <point x="362" y="448" type="line"/>
      <point x="-14" y="448" type="line"/>
      <point x="58" y="342" type="line"/>
      <point x="144" y="347" type="line"/>
      <point x="129" y="332"/>
      <point x="120" y="311"/>
      <point x="120" y="290" type="curve" smooth="yes"/>
      <point x="120" y="206"/>
      <point x="222" y="91"/>
      <point x="296" y="94" type="curve"/>
      <point x="194" y="11" type="line"/>
      <point x="288" y="-55" type="line"/>
      <point x="481" y="147" type="line"/>
      <point x="473" y="32" type="line"/>
      <point x="603" y="-40" type="line"/>
      <point x="603" y="531" type="line"/>
    </contour>
  </outline>
</glyph>
<glyph name="dvC_R" format="1">
  <advance width="414"/>
  <outline>
    <contour>
      <point x="497" y="531" type="line"/>
      <point x="434" y="635" type="line"/>
      <point x="-84" y="635" type="line"/>
      <point x="-20" y="531" type="line"/>
    </contour>
    <contour>
      <point x="194" y="11" type="line"/>
      <point x="288" y="-55" type="line"/>
      <point x="559" y="229" type="line"/>
      <point x="477" y="315" type="line"/>
      <point x="423" y="246"/>
      <point x="363" y="189"/>
      <point x="297" y="189" type="curve" smooth="yes"/>
      <point x="262" y="189"/>
      <point x="231" y="204"/>
      <point x="231" y="247" type="curve" smooth="yes"/>
      <point x="231" y="291"/>
      <point x="273" y="333"/>
      <point x="341" y="343" type="curve"/>
      <point x="434" y="343" type="line"/>
      <point x="362" y="448" type="line"/>
      <point x="-14" y="448" type="line"/>
      <point x="58" y="342" type="line"/>
      <point x="144" y="347" type="line"/>
      <point x="129" y="332"/>
      <point x="120" y="311"/>
      <point x="120" y="290" type="curve" smooth="yes"/>
      <point x="120" y="206"/>
      <point x="222" y="91"/>
      <point x="296" y="94" type="curve"/>
    </contour>
  </outline>
</glyph>
<glyph name="dvDDH_RA" format="1">
  <advance width="537"/>
  <outline>
    <contour>
      <point x="194" y="-176" type="line"/>
      <point x="335" y="-17" type="line"/>
      <point x="462" y="-176" type="line"/>
      <point x="532" y="-130" type="line"/>
      <point x="366" y="46" type="line"/>
      <point x="244" y="46" type="line"/>
      <point x="90" y="-93" type="line"/>
    </contour>
    <component base="dvDDHA"/>
  </outline>
</glyph>
<glyph name="dvDDH_YA" format="1">
  <advance width="1075"/>
  <outline>
    <contour>
      <point x="352" y="309" type="curve" smooth="yes"/>
      <point x="290" y="309"/>
      <point x="241" y="256"/>
      <point x="241" y="195" type="curve"/>
      <point x="241" y="157"/>
      <point x="258" y="126"/>
      <point x="279" y="100" type="curve"/>
      <point x="214" y="106"/>
      <point x="154" y="158"/>
      <point x="154" y="225" type="curve" smooth="yes"/>
      <point x="154" y="299"/>
      <point x="205" y="342"/>
      <point x="275" y="342" type="curve" smooth="yes"/>
      <point x="573" y="342" type="line" smooth="yes"/>
      <point x="613" y="342"/>
      <point x="636" y="342"/>
      <point x="636" y="329" type="curve" smooth="yes"/>
      <point x="636" y="310"/>
      <point x="581" y="285"/>
      <point x="539" y="262" type="curve" smooth="yes"/>
      <point x="523" y="253"/>
      <point x="519" y="244"/>
      <point x="519" y="228" type="curve" smooth="yes"/>
      <point x="519" y="153"/>
      <point x="654" y="42"/>
      <point x="757" y="42" type="curve" smooth="yes"/>
      <point x="800" y="42"/>
      <point x="837" y="59"/>
      <point x="880" y="105" type="curve"/>
      <point x="875" y="32" type="line"/>
      <point x="1005" y="-40" type="line"/>
      <point x="1005" y="531" type="line"/>
      <point x="1167" y="531" type="line"/>
      <point x="1095" y="635" type="line"/>
      <point x="-66" y="635" type="line"/>
      <point x="6" y="531" type="line"/>
      <point x="310" y="531" type="line"/>
      <point x="310" y="462" type="line"/>
      <point x="216" y="462" type="line" smooth="yes"/>
      <point x="106" y="462"/>
      <point x="43" y="386"/>
      <point x="43" y="296" type="curve" smooth="yes"/>
      <point x="43" y="204"/>
      <point x="86" y="129"/>
      <point x="144" y="77" type="curve" smooth="yes"/>
      <point x="202" y="24"/>
      <point x="275" y="-5"/>
      <point x="334" y="-5" type="curve" smooth="yes"/>
      <point x="437" y="-5"/>
      <point x="509" y="67"/>
      <point x="509" y="149" type="curve" smooth="yes"/>
      <point x="509" y="232"/>
      <point x="420" y="309"/>
    </contour>
    <contour>
      <point x="527" y="462" type="curve"/>
      <point x="440" y="462" type="line"/>
      <point x="440" y="531" type="line"/>
      <point x="876" y="531" type="line"/>
      <point x="876" y="281" type="line"/>
      <point x="847" y="228"/>
      <point x="768" y="144"/>
      <point x="694" y="144" type="curve" smooth="yes"/>
      <point x="677" y="144"/>
      <point x="655" y="150"/>
      <point x="655" y="176" type="curve" smooth="yes"/>
      <point x="655" y="186"/>
      <point x="665" y="195"/>
      <point x="687" y="211" type="curve" smooth="yes"/>
      <point x="746" y="254"/>
      <point x="766" y="282"/>
      <point x="766" y="304" type="curve" smooth="yes"/>
      <point x="766" y="362"/>
      <point x="630" y="462"/>
    </contour>
    <contour>
      <point x="338" y="140" type="curve" smooth="yes"/>
      <point x="338" y="172"/>
      <point x="366" y="207"/>
      <point x="402" y="207" type="curve" smooth="yes"/>
      <point x="415" y="207"/>
      <point x="421" y="201"/>
      <point x="421" y="192" type="curve" smooth="yes"/>
      <point x="421" y="159"/>
      <point x="386" y="123"/>
      <point x="348" y="110" type="curve"/>
      <point x="341" y="119"/>
      <point x="338" y="130"/>
    </contour>
  </outline>
</glyph>
<glyph name="dvDD_DDHA" format="1">
  <advance width="553"/>
  <outline>
    <contour>
      <point x="305" y="-19" type="curve" smooth="yes"/>
      <point x="418" y="-19"/>
      <point x="501" y="59"/>
      <point x="501" y="136" type="curve" smooth="yes"/>
      <point x="501" y="204"/>
      <point x="427" y="309"/>
      <point x="349" y="309" type="curve" smooth="yes"/>
      <point x="300" y="309"/>
      <point x="258" y="272"/>
      <point x="210" y="272" type="curve" smooth="yes"/>
      <point x="185" y="272"/>
      <point x="174" y="286"/>
      <point x="174" y="309" type="curve" smooth="yes"/>
      <point x="174" y="338"/>
      <point x="193" y="355"/>
      <point x="235" y="355" type="curve" smooth="yes"/>
      <point x="445" y="355" type="line"/>
      <point x="445" y="531" type="line"/>
      <point x="645" y="531" type="line"/>
      <point x="573" y="635" type="line"/>
      <point x="-82" y="635" type="line"/>
      <point x="-10" y="531" type="line"/>
      <point x="322" y="531" type="line"/>
      <point x="322" y="470" type="line"/>
      <point x="205" y="470" type="line" smooth="yes"/>
      <point x="119" y="470"/>
      <point x="74" y="433"/>
      <point x="74" y="360" type="curve" smooth="yes"/>
      <point x="74" y="267"/>
      <point x="177" y="156"/>
      <point x="259" y="156" type="curve" smooth="yes"/>
      <point x="308" y="156"/>
      <point x="354" y="193"/>
      <point x="387" y="193" type="curve" smooth="yes"/>
      <point x="400" y="193"/>
      <point x="405" y="188"/>
      <point x="405" y="181" type="curve" smooth="yes"/>
      <point x="405" y="133"/>
      <point x="336" y="88"/>
      <point x="260" y="88" type="curve" smooth="yes"/>
      <point x="183" y="88"/>
      <point x="134" y="153"/>
      <point x="99" y="208" type="curve"/>
      <point x="33" y="164" type="line"/>
      <point x="50" y="131"/>
      <point x="86" y="86"/>
      <point x="123" y="58" type="curve"/>
      <point x="72" y="34"/>
      <point x="52" y="-11"/>
      <point x="52" y="-68" type="curve" smooth="yes"/>
      <point x="52" y="-239"/>
      <point x="224" y="-360"/>
      <point x="343" y="-360" type="curve" smooth="yes"/>
      <point x="446" y="-360"/>
      <point x="518" y="-288"/>
      <point x="518" y="-206" type="curve" smooth="yes"/>
      <point x="518" y="-123"/>
      <point x="429" y="-46"/>
      <point x="361" y="-46" type="curve" smooth="yes"/>
      <point x="299" y="-46"/>
      <point x="250" y="-95"/>
      <point x="250" y="-156" type="curve" smooth="yes"/>
      <point x="250" y="-194"/>
      <point x="267" y="-229"/>
      <point x="288" y="-255" type="curve"/>
      <point x="223" y="-249"/>
      <point x="163" y="-193"/>
      <point x="163" y="-126" type="curve" smooth="yes"/>
      <point x="163" y="-55"/>
      <point x="229" y="-19"/>
    </contour>
    <contour>
      <point x="347" y="-213" type="curve" smooth="yes"/>
      <point x="347" y="-181"/>
      <point x="375" y="-146"/>
      <point x="411" y="-146" type="curve" smooth="yes"/>
      <point x="424" y="-146"/>
      <point x="430" y="-152"/>
      <point x="430" y="-161" type="curve" smooth="yes"/>
      <point x="430" y="-194"/>
      <point x="395" y="-230"/>
      <point x="357" y="-243" type="curve"/>
      <point x="350" y="-234"/>
      <point x="347" y="-223"/>
    </contour>
  </outline>
</glyph>
<glyph name="dvDD_RA" format="1">
  <advance width="523"/>
  <outline>
    <contour>
      <point x="165" y="-202" type="line"/>
      <point x="306" y="-43" type="line"/>
      <point x="433" y="-202" type="line"/>
      <point x="503" y="-156" type="line"/>
      <point x="337" y="20" type="line"/>
      <point x="215" y="20" type="line"/>
      <point x="61" y="-119" type="line"/>
    </contour>
    <component base="dvDDA"/>
  </outline>
</glyph>
<glyph name="dvDD_YA" format="1">
  <advance width="1075"/>
  <outline>
    <contour>
      <point x="33" y="140" type="line"/>
      <point x="88" y="34"/>
      <point x="192" y="-43"/>
      <point x="303" y="-43" type="curve" smooth="yes"/>
      <point x="416" y="-43"/>
      <point x="499" y="37"/>
      <point x="499" y="114" type="curve" smooth="yes"/>
      <point x="499" y="182"/>
      <point x="430" y="289"/>
      <point x="352" y="289" type="curve" smooth="yes"/>
      <point x="303" y="289"/>
      <point x="261" y="252"/>
      <point x="213" y="252" type="curve" smooth="yes"/>
      <point x="188" y="252"/>
      <point x="174" y="276"/>
      <point x="174" y="299" type="curve" smooth="yes"/>
      <point x="174" y="328"/>
      <point x="193" y="345"/>
      <point x="235" y="345" type="curve" smooth="yes"/>
      <point x="573" y="345" type="line" smooth="yes"/>
      <point x="613" y="345"/>
      <point x="636" y="342"/>
      <point x="636" y="329" type="curve" smooth="yes"/>
      <point x="636" y="310"/>
      <point x="581" y="285"/>
      <point x="539" y="262" type="curve" smooth="yes"/>
      <point x="523" y="253"/>
      <point x="519" y="244"/>
      <point x="519" y="228" type="curve" smooth="yes"/>
      <point x="519" y="153"/>
      <point x="654" y="42"/>
      <point x="757" y="42" type="curve" smooth="yes"/>
      <point x="800" y="42"/>
      <point x="837" y="59"/>
      <point x="880" y="105" type="curve"/>
      <point x="875" y="32" type="line"/>
      <point x="1005" y="-40" type="line"/>
      <point x="1005" y="531" type="line"/>
      <point x="1167" y="531" type="line"/>
      <point x="1095" y="635" type="line"/>
      <point x="-82" y="635" type="line"/>
      <point x="-10" y="531" type="line"/>
      <point x="322" y="531" type="line"/>
      <point x="322" y="458" type="line"/>
      <point x="205" y="458" type="line" smooth="yes"/>
      <point x="119" y="458"/>
      <point x="74" y="423"/>
      <point x="74" y="350" type="curve" smooth="yes"/>
      <point x="74" y="257"/>
      <point x="177" y="141"/>
      <point x="259" y="141" type="curve" smooth="yes"/>
      <point x="308" y="141"/>
      <point x="354" y="178"/>
      <point x="387" y="178" type="curve" smooth="yes"/>
      <point x="400" y="178"/>
      <point x="406" y="170"/>
      <point x="406" y="159" type="curve" smooth="yes"/>
      <point x="406" y="111"/>
      <point x="346" y="63"/>
      <point x="270" y="63" type="curve" smooth="yes"/>
      <point x="193" y="63"/>
      <point x="134" y="129"/>
      <point x="99" y="184" type="curve"/>
    </contour>
    <contour>
      <point x="527" y="458" type="curve"/>
      <point x="445" y="458" type="line"/>
      <point x="445" y="531" type="line"/>
      <point x="876" y="531" type="line"/>
      <point x="876" y="281" type="line"/>
      <point x="847" y="228"/>
      <point x="768" y="144"/>
      <point x="694" y="144" type="curve" smooth="yes"/>
      <point x="677" y="144"/>
      <point x="655" y="150"/>
      <point x="655" y="176" type="curve" smooth="yes"/>
      <point x="655" y="186"/>
      <point x="665" y="195"/>
      <point x="687" y="211" type="curve" smooth="yes"/>
      <point x="746" y="254"/>
      <point x="766" y="282"/>
      <point x="766" y="304" type="curve" smooth="yes"/>
      <point x="766" y="362"/>
      <point x="630" y="458"/>
    </contour>
  </outline>
</glyph>
<glyph name="dvDH" format="1">
  <advance width="360"/>
  <outline>
    <contour>
      <point x="173" y="461" type="curve"/>
      <point x="173" y="485"/>
      <point x="191" y="522"/>
      <point x="218" y="531" type="curve"/>
      <point x="327" y="531" type="line"/>
      <point x="255" y="635" type="line"/>
      <point x="-92" y="635" type="line"/>
      <point x="-20" y="531" type="line"/>
      <point x="27" y="531" type="line"/>
      <point x="37" y="531"/>
      <point x="50" y="533"/>
      <point x="61" y="533" type="curve"/>
      <point x="54" y="523"/>
      <point x="49" y="499"/>
      <point x="49" y="487" type="curve" smooth="yes"/>
      <point x="49" y="441"/>
      <point x="84" y="416"/>
      <point x="118" y="394" type="curve"/>
      <point x="80" y="375"/>
      <point x="55" y="338"/>
      <point x="55" y="299" type="curve" smooth="yes"/>
      <point x="55" y="176"/>
      <point x="181" y="73"/>
      <point x="288" y="73" type="curve" smooth="yes"/>
      <point x="333" y="73"/>
      <point x="421" y="92"/>
      <point x="515" y="212" type="curve"/>
      <point x="431" y="315" type="line"/>
      <point x="375" y="234"/>
      <point x="313" y="178"/>
      <point x="240" y="178" type="curve" smooth="yes"/>
      <point x="197" y="178"/>
      <point x="167" y="204"/>
      <point x="167" y="238" type="curve" smooth="yes"/>
      <point x="167" y="286"/>
      <point x="220" y="297"/>
      <point x="255" y="297" type="curve" smooth="yes"/>
      <point x="284" y="297"/>
      <point x="312" y="292"/>
      <point x="353" y="280" type="curve"/>
      <point x="314" y="408" type="line"/>
      <point x="286" y="412"/>
      <point x="249" y="417"/>
      <point x="220" y="417" type="curve" smooth="yes"/>
      <point x="212" y="417"/>
      <point x="200" y="417"/>
      <point x="195" y="416" type="curve"/>
      <point x="179" y="429"/>
      <point x="173" y="442"/>
    </contour>
    <contour>
      <point x="378" y="531" type="line"/>
      <point x="451" y="531" type="line"/>
      <point x="380" y="635" type="line"/>
      <point x="306" y="635" type="line"/>
    </contour>
  </outline>
</glyph>
<glyph name="dvDH_MA" format="1">
  <advance width="943"/>
  <outline>
    <contour>
      <point x="173" y="461" type="curve"/>
      <point x="173" y="485"/>
      <point x="191" y="522"/>
      <point x="218" y="531" type="curve"/>
      <point x="317" y="531" type="line"/>
      <point x="245" y="635" type="line"/>
      <point x="-92" y="635" type="line"/>
      <point x="-20" y="531" type="line"/>
      <point x="27" y="531" type="line"/>
      <point x="37" y="531"/>
      <point x="50" y="533"/>
      <point x="61" y="533" type="curve"/>
      <point x="54" y="523"/>
      <point x="49" y="499"/>
      <point x="49" y="487" type="curve" smooth="yes"/>
      <point x="49" y="441"/>
      <point x="84" y="416"/>
      <point x="118" y="394" type="curve"/>
      <point x="80" y="375"/>
      <point x="55" y="338"/>
      <point x="55" y="299" type="curve" smooth="yes"/>
      <point x="55" y="176"/>
      <point x="181" y="73"/>
      <point x="288" y="73" type="curve" smooth="yes"/>
      <point x="333" y="73"/>
      <point x="421" y="92"/>
      <point x="515" y="212" type="curve"/>
      <point x="431" y="315" type="line"/>
      <point x="375" y="234"/>
      <point x="313" y="178"/>
      <point x="240" y="178" type="curve" smooth="yes"/>
      <point x="197" y="178"/>
      <point x="167" y="204"/>
      <point x="167" y="238" type="curve" smooth="yes"/>
      <point x="167" y="286"/>
      <point x="220" y="297"/>
      <point x="255" y="297" type="curve" smooth="yes"/>
      <point x="284" y="297"/>
      <point x="312" y="292"/>
      <point x="353" y="280" type="curve"/>
      <point x="314" y="408" type="line"/>
      <point x="286" y="412"/>
      <point x="249" y="417"/>
      <point x="220" y="417" type="curve" smooth="yes"/>
      <point x="212" y="417"/>
      <point x="200" y="417"/>
      <point x="195" y="416" type="curve"/>
      <point x="179" y="429"/>
      <point x="173" y="442"/>
    </contour>
    <contour>
      <point x="449" y="349" type="line"/>
      <point x="405" y="349"/>
      <point x="377" y="336"/>
      <point x="377" y="302" type="curve" smooth="yes"/>
      <point x="377" y="246"/>
      <point x="494" y="140"/>
      <point x="540" y="140" type="curve" smooth="yes"/>
      <point x="567" y="140"/>
      <point x="575" y="155"/>
      <point x="575" y="177" type="curve" smooth="yes"/>
      <point x="575" y="229" type="line"/>
      <point x="743" y="229" type="line"/>
      <point x="743" y="37" type="line"/>
      <point x="873" y="-40" type="line"/>
      <point x="873" y="531" type="line"/>
      <point x="1031" y="531" type="line"/>
      <point x="963" y="635" type="line"/>
      <point x="309" y="635" type="line"/>
      <point x="376" y="531" type="line"/>
      <point x="450" y="531" type="line"/>
      <point x="450" y="349" type="line"/>
    </contour>
    <contour>
      <point x="575" y="531" type="line"/>
      <point x="743" y="531" type="line"/>
      <point x="743" y="349" type="line"/>
      <point x="575" y="349" type="line"/>
    </contour>
  </outline>
</glyph>
<glyph name="dvDH_N_YA" format="1">
  <advance width="984"/>
  <outline>
    <contour>
      <point x="914" y="531" type="line"/>
      <point x="1076" y="531" type="line"/>
      <point x="1004" y="635" type="line"/>
      <point x="306" y="635" type="line"/>
      <point x="378" y="531" type="line"/>
      <point x="525" y="531" type="line"/>
      <point x="549" y="518"/>
      <point x="566" y="485"/>
      <point x="566" y="466" type="curve" smooth="yes"/>
      <point x="566" y="440"/>
      <point x="547" y="426"/>
      <point x="432" y="367" type="curve" smooth="yes"/>
      <point x="416" y="359"/>
      <point x="412" y="351"/>
      <point x="412" y="333" type="curve" smooth="yes"/>
      <point x="412" y="254"/>
      <point x="575" y="89"/>
      <point x="678" y="89" type="curve" smooth="yes"/>
      <point x="721" y="89"/>
      <point x="760" y="110"/>
      <point x="789" y="135" type="curve"/>
      <point x="784" y="37" type="line"/>
      <point x="914" y="-40" type="line"/>
    </contour>
    <contour>
      <point x="627" y="211" type="curve"/>
      <point x="592" y="211"/>
      <point x="554" y="229"/>
      <point x="554" y="260" type="curve" smooth="yes"/>
      <point x="554" y="270"/>
      <point x="560" y="275"/>
      <point x="586" y="291" type="curve"/>
      <point x="681" y="351"/>
      <point x="696" y="360"/>
      <point x="696" y="410" type="curve" smooth="yes"/>
      <point x="696" y="446"/>
      <point x="666" y="501"/>
      <point x="633" y="531" type="curve"/>
      <point x="785" y="531" type="line"/>
      <point x="785" y="318" type="line"/>
      <point x="751" y="263"/>
      <point x="705" y="211"/>
    </contour>
    <contour>
      <point x="173" y="461" type="curve"/>
      <point x="173" y="485"/>
      <point x="191" y="522"/>
      <point x="218" y="531" type="curve"/>
      <point x="327" y="531" type="line"/>
      <point x="255" y="635" type="line"/>
      <point x="-92" y="635" type="line"/>
      <point x="-20" y="531" type="line"/>
      <point x="27" y="531" type="line"/>
      <point x="37" y="531"/>
      <point x="50" y="533"/>
      <point x="61" y="533" type="curve"/>
      <point x="54" y="523"/>
      <point x="49" y="499"/>
      <point x="49" y="487" type="curve" smooth="yes"/>
      <point x="49" y="441"/>
      <point x="84" y="416"/>
      <point x="118" y="394" type="curve"/>
      <point x="80" y="375"/>
      <point x="55" y="338"/>
      <point x="55" y="299" type="curve" smooth="yes"/>
      <point x="55" y="198"/>
      <point x="149" y="99"/>
      <point x="234" y="89" type="curve"/>
      <point x="198" y="59" type="line" smooth="yes"/>
      <point x="172" y="38"/>
      <point x="164" y="23"/>
      <point x="164" y="9" type="curve" smooth="yes"/>
      <point x="164" y="-46"/>
      <point x="242" y="-79"/>
      <point x="303" y="-79" type="curve" smooth="yes"/>
      <point x="332" y="-79"/>
      <point x="349" y="-67"/>
      <point x="349" y="-52" type="curve" smooth="yes"/>
      <point x="349" y="-47"/>
      <point x="349" y="-43"/>
      <point x="344" y="-34" type="curve" smooth="yes"/>
      <point x="339" y="-23"/>
      <point x="334" y="-15"/>
      <point x="310" y="18" type="curve"/>
      <point x="515" y="229" type="line"/>
      <point x="433" y="312" type="line"/>
      <point x="377" y="237"/>
      <point x="313" y="178"/>
      <point x="240" y="178" type="curve" smooth="yes"/>
      <point x="197" y="178"/>
      <point x="167" y="204"/>
      <point x="167" y="238" type="curve" smooth="yes"/>
      <point x="167" y="286"/>
      <point x="220" y="297"/>
      <point x="255" y="297" type="curve" smooth="yes"/>
      <point x="284" y="297"/>
      <point x="312" y="292"/>
      <point x="353" y="280" type="curve"/>
      <point x="314" y="408" type="line"/>
      <point x="286" y="412"/>
      <point x="249" y="417"/>
      <point x="220" y="417" type="curve" smooth="yes"/>
      <point x="212" y="417"/>
      <point x="200" y="417"/>
      <point x="195" y="416" type="curve"/>
      <point x="179" y="429"/>
      <point x="173" y="442"/>
    </contour>
    <contour>
      <point x="378" y="531" type="line"/>
      <point x="451" y="531" type="line"/>
      <point x="380" y="635" type="line"/>
      <point x="306" y="635" type="line"/>
    </contour>
  </outline>
</glyph>
